<?xml version='1.0' encoding='utf-8'?>
<COLLADA xmlns="http://www.collada.org/2005/11/COLLADASchema" version="1.4.1">
  <asset>
    <created>2026-09-14T00:00:00Z</created>
    <modified>2026-09-14T00:00:00Z</modified>
    <unit name="metre" meter="1" />
    <up_axis>Z_UP</up_axis>
  </asset>
  <library_images>
    <image id="wheel_atlas">
      <init_from>wheel_atlas.png</init_from>
    </image>
  </library_images>
  <library_effects>
    <effect id="scout_383b3b_effect">
      <profile_COMMON>
        <newparam sid="atlas_surface">
          <surface type="2D">
            <init_from>wheel_atlas</init_from>
          </surface>
        </newparam>
        <newparam sid="atlas_sampler">
          <sampler2D>
            <source>atlas_surface</source>
          </sampler2D>
        </newparam>
        <technique sid="common">
          <phong>
            <emission>
              <color>0 0 0 1</color>
            </emission>
            <ambient>
              <color>0.11 0.115 0.115 1</color>
            </ambient>
            <diffuse>
              <texture texture="atlas_sampler" texcoord="UVMap" />
            </diffuse>
            <specular>
              <color>0.035 0.035 0.035 1</color>
            </specular>
            <shininess>
              <float>24</float>
            </shininess>
          </phong>
        </technique>
      </profile_COMMON>
    </effect>
    <effect id="scout_b01424_effect">
      <profile_COMMON>
        <newparam sid="atlas_surface">
          <surface type="2D">
            <init_from>wheel_atlas</init_from>
          </surface>
        </newparam>
        <newparam sid="atlas_sampler">
          <sampler2D>
            <source>atlas_surface</source>
          </sampler2D>
        </newparam>
        <technique sid="common">
          <phong>
            <emission>
              <color>0 0 0 1</color>
            </emission>
            <ambient>
              <color>0.345 0.04 0.07 1</color>
            </ambient>
            <diffuse>
              <texture texture="atlas_sampler" texcoord="UVMap" />
            </diffuse>
            <specular>
              <color>0.035 0.035 0.035 1</color>
            </specular>
            <shininess>
              <float>24</float>
            </shininess>
          </phong>
        </technique>
      </profile_COMMON>
    </effect>
    <effect id="scout_b8bab5_effect">
      <profile_COMMON>
        <newparam sid="atlas_surface">
          <surface type="2D">
            <init_from>wheel_atlas</init_from>
          </surface>
        </newparam>
        <newparam sid="atlas_sampler">
          <sampler2D>
            <source>atlas_surface</source>
          </sampler2D>
        </newparam>
        <technique sid="common">
          <phong>
            <emission>
              <color>0 0 0 1</color>
            </emission>
            <ambient>
              <color>0.36 0.365 0.355 1</color>
            </ambient>
            <diffuse>
              <texture texture="atlas_sampler" texcoord="UVMap" />
            </diffuse>
            <specular>
              <color>0.035 0.035 0.035 1</color>
            </specular>
            <shininess>
              <float>24</float>
            </shininess>
          </phong>
        </technique>
      </profile_COMMON>
    </effect>
  </library_effects>
  <library_materials>
    <material id="scout_383b3b" name="scout_383b3b">
      <instance_effect url="#scout_383b3b_effect" />
    </material>
    <material id="scout_b01424" name="scout_b01424">
      <instance_effect url="#scout_b01424_effect" />
    </material>
    <material id="scout_b8bab5" name="scout_b8bab5">
      <instance_effect url="#scout_b8bab5_effect" />
    </material>
  </library_materials>
  <library_geometries>
    <geometry id="geometry" name="wheel">
      <mesh>
        <source id="atlas_uv">
          <float_array id="atlas_uv_array" count="4008">0.285294116 0.25 0.284091502 0.240865216 0.28056559 0.232352942 0.28056559 0.232352942 0.274956703 0.225043282 0.267647058 0.219434395 0.267647058 0.219434395 0.259134799 0.215908498 0.25 0.214705884 0.25 0.214705884 0.240865216 0.215908498 0.232352942 0.219434395 0.232352942 0.219434395 0.225043297 0.225043282 0.219434395 0.232352942 0.219434395 0.232352942 0.215908498 0.240865216 0.214705884 0.25 0.214705884 0.25 0.215908498 0.259134799 0.219434395 0.267647058 0.219434395 0.267647058 0.225043297 0.274956703 0.232352942 0.28056559 0.232352942 0.28056559 0.240865216 0.284091502 0.25 0.285294116 0.25 0.285294116 0.259134799 0.284091502 0.267647058 0.28056559 0.267647058 0.28056559 0.274956703 0.274956703 0.28056559 0.267647058 0.28056559 0.267647058 0.284091502 0.259134799 0.285294116 0.25 0.285294116 0.25 0.28056559 0.232352942 0.267647058 0.219434395 0.267647058 0.219434395 0.25 0.214705884 0.232352942 0.219434395 0.232352942 0.219434395 0.219434395 0.232352942 0.214705884 0.25 0.214705884 0.25 0.219434395 0.267647058 0.232352942 0.28056559 0.232352942 0.28056559 0.25 0.285294116 0.267647058 0.28056559 0.267647058 0.28056559 0.28056559 0.267647058 0.285294116 0.25 0.285294116 0.25 0.267647058 0.219434395 0.232352942 0.219434395 0.232352942 0.219434395 0.214705884 0.25 0.232352942 0.28056559 0.232352942 0.28056559 0.267647058 0.28056559 0.285294116 0.25 0.232352942 0.219434395 0.232352942 0.28056559 0.285294116 0.25 0.285294116 0.25 0.284091502 0.259134799 0.284091502 0.259134799 0.285294116 0.25 0.284091502 0.259134799 0.285294116 0.25 0.284091502 0.259134799 0.28056559 0.267647058 0.28056559 0.267647058 0.284091502 0.259134799 0.28056559 0.267647058 0.284091502 0.259134799 0.28056559 0.267647058 0.274956703 0.274956703 0.274956703 0.274956703 0.28056559 0.267647058 0.274956703 0.274956703 0.28056559 0.267647058 0.274956703 0.274956703 0.267647058 0.28056559 0.267647058 0.28056559 0.274956703 0.274956703 0.267647058 0.28056559 0.274956703 0.274956703 0.267647058 0.28056559 0.259134799 0.284091502 0.259134799 0.284091502 0.267647058 0.28056559 0.259134799 0.284091502 0.267647058 0.28056559 0.259134799 0.284091502 0.25 0.285294116 0.25 0.285294116 0.259134799 0.284091502 0.25 0.285294116 0.259134799 0.284091502 0.25 0.285294116 0.240865216 0.284091502 0.240865216 0.284091502 0.25 0.285294116 0.240865216 0.284091502 0.25 0.285294116 0.240865216 0.284091502 0.232352942 0.28056559 0.232352942 0.28056559 0.240865216 0.284091502 0.232352942 0.28056559 0.240865216 0.284091502 0.232352942 0.28056559 0.225043297 0.274956703 0.225043297 0.274956703 0.232352942 0.28056559 0.225043297 0.274956703 0.232352942 0.28056559 0.225043297 0.274956703 0.219434395 0.267647058 0.219434395 0.267647058 0.225043297 0.274956703 0.219434395 0.267647058 0.225043297 0.274956703 0.219434395 0.267647058 0.215908498 0.259134799 0.215908498 0.259134799 0.219434395 0.267647058 0.215908498 0.259134799 0.219434395 0.267647058 0.215908498 0.259134799 0.214705884 0.25 0.214705884 0.25 0.215908498 0.259134799 0.214705884 0.25 0.215908498 0.259134799 0.214705884 0.25 0.215908498 0.240865216 0.215908498 0.240865216 0.214705884 0.25 0.215908498 0.240865216 0.214705884 0.25 0.215908498 0.240865216 0.219434395 0.232352942 0.219434395 0.232352942 0.215908498 0.240865216 0.219434395 0.232352942 0.215908498 0.240865216 0.219434395 0.232352942 0.225043297 0.225043282 0.225043297 0.225043282 0.219434395 0.232352942 0.225043297 0.225043282 0.219434395 0.232352942 0.225043297 0.225043282 0.232352942 0.219434395 0.232352942 0.219434395 0.225043297 0.225043282 0.232352942 0.219434395 0.225043297 0.225043282 0.232352942 0.219434395 0.240865216 0.215908498 0.240865216 0.215908498 0.232352942 0.219434395 0.240865216 0.215908498 0.232352942 0.219434395 0.240865216 0.215908498 0.25 0.214705884 0.25 0.214705884 0.240865216 0.215908498 0.25 0.214705884 0.240865216 0.215908498 0.25 0.214705884 0.259134799 0.215908498 0.259134799 0.215908498 0.25 0.214705884 0.259134799 0.215908498 0.25 0.214705884 0.259134799 0.215908498 0.267647058 0.219434395 0.267647058 0.219434395 0.259134799 0.215908498 0.267647058 0.219434395 0.259134799 0.215908498 0.267647058 0.219434395 0.274956703 0.225043282 0.274956703 0.225043282 0.267647058 0.219434395 0.274956703 0.225043282 0.267647058 0.219434395 0.274956703 0.225043282 0.28056559 0.232352942 0.28056559 0.232352942 0.274956703 0.225043282 0.28056559 0.232352942 0.274956703 0.225043282 0.28056559 0.232352942 0.284091502 0.240865216 0.284091502 0.240865216 0.28056559 0.232352942 0.284091502 0.240865216 0.28056559 0.232352942 0.284091502 0.240865216 0.285294116 0.25 0.285294116 0.25 0.284091502 0.240865216 0.285294116 0.25 0.284091502 0.240865216 0.285294116 0.25 0.284091502 0.259134799 0.41477558 0.294151485 0.285294116 0.25 0.41477558 0.294151485 0.420588225 0.25 0.284091502 0.259134799 0.28056559 0.267647058 0.397733748 0.335294127 0.284091502 0.259134799 0.397733748 0.335294127 0.41477558 0.294151485 0.28056559 0.267647058 0.274956703 0.274956703 0.370624095 0.370624095 0.28056559 0.267647058 0.370624095 0.370624095 0.397733748 0.335294127 0.274956703 0.274956703 0.267647058 0.28056559 0.335294127 0.397733748 0.274956703 0.274956703 0.335294127 0.397733748 0.370624095 0.370624095 0.267647058 0.28056559 0.259134799 0.284091502 0.294151485 0.41477558 0.267647058 0.28056559 0.294151485 0.41477558 0.335294127 0.397733748 0.259134799 0.284091502 0.25 0.285294116 0.25 0.420588225 0.259134799 0.284091502 0.25 0.420588225 0.294151485 0.41477558 0.25 0.285294116 0.240865216 0.284091502 0.205848515 0.41477558 0.25 0.285294116 0.205848515 0.41477558 0.25 0.420588225 0.240865216 0.284091502 0.232352942 0.28056559 0.164705887 0.397733748 0.240865216 0.284091502 0.164705887 0.397733748 0.205848515 0.41477558 0.232352942 0.28056559 0.225043297 0.274956703 0.129375905 0.370624095 0.232352942 0.28056559 0.129375905 0.370624095 0.164705887 0.397733748 0.225043297 0.274956703 0.219434395 0.267647058 0.102266252 0.335294127 0.225043297 0.274956703 0.102266252 0.335294127 0.129375905 0.370624095 0.219434395 0.267647058 0.215908498 0.259134799 0.0852244198 0.294151485 0.219434395 0.267647058 0.0852244198 0.294151485 0.102266252 0.335294127 0.215908498 0.259134799 0.214705884 0.25 0.0794117674 0.25 0.215908498 0.259134799 0.0794117674 0.25 0.0852244198 0.294151485 0.214705884 0.25 0.215908498 0.240865216 0.0852244198 0.205848515 0.214705884 0.25 0.0852244198 0.205848515 0.0794117674 0.25 0.215908498 0.240865216 0.219434395 0.232352942 0.102266252 0.164705887 0.215908498 0.240865216 0.102266252 0.164705887 0.0852244198 0.205848515 0.219434395 0.232352942 0.225043297 0.225043282 0.129375905 0.129375905 0.219434395 0.232352942 0.129375905 0.129375905 0.102266252 0.164705887 0.225043297 0.225043282 0.232352942 0.219434395 0.164705887 0.102266252 0.225043297 0.225043282 0.164705887 0.102266252 0.129375905 0.129375905 0.232352942 0.219434395 0.240865216 0.215908498 0.205848515 0.0852244198 0.232352942 0.219434395 0.205848515 0.0852244198 0.164705887 0.102266252 0.240865216 0.215908498 0.25 0.214705884 0.25 0.07941176 0.240865216 0.215908498 0.25 0.07941176 0.205848515 0.0852244198 0.25 0.214705884 0.259134799 0.215908498 0.294151485 0.0852244198 0.25 0.214705884 0.294151485 0.0852244198 0.25 0.07941176 0.259134799 0.215908498 0.267647058 0.219434395 0.335294127 0.102266252 0.259134799 0.215908498 0.335294127 0.102266252 0.294151485 0.0852244198 0.267647058 0.219434395 0.274956703 0.225043282 0.370624095 0.129375905 0.267647058 0.219434395 0.370624095 0.129375905 0.335294127 0.102266252 0.274956703 0.225043282 0.28056559 0.232352942 0.397733748 0.164705887 0.274956703 0.225043282 0.397733748 0.164705887 0.370624095 0.129375905 0.28056559 0.232352942 0.284091502 0.240865216 0.41477558 0.205848515 0.28056559 0.232352942 0.41477558 0.205848515 0.397733748 0.164705887 0.284091502 0.240865216 0.285294116 0.25 0.420588225 0.25 0.284091502 0.240865216 0.420588225 0.25 0.41477558 0.205848515 0.420588225 0.25 0.41477558 0.294151485 0.440344214 0.301002562 0.420588225 0.25 0.440344214 0.301002562 0.447058827 0.25 0.41477558 0.294151485 0.397733748 0.335294127 0.420657963 0.348529398 0.41477558 0.294151485 0.420657963 0.348529398 0.440344214 0.301002562 0.397733748 0.335294127 0.370624095 0.370624095 0.389341623 0.389341623 0.397733748 0.335294127 0.389341623 0.389341623 0.420657963 0.348529398 0.370624095 0.370624095 0.335294127 0.397733748 0.348529428 0.420657963 0.370624095 0.370624095 0.348529428 0.420657963 0.389341623 0.389341623 0.335294127 0.397733748 0.294151485 0.41477558 0.301002562 0.440344214 0.335294127 0.397733748 0.301002562 0.440344214 0.348529428 0.420657963 0.294151485 0.41477558 0.25 0.420588225 0.25 0.447058827 0.294151485 0.41477558 0.25 0.447058827 0.301002562 0.440344214 0.25 0.420588225 0.205848515 0.41477558 0.198997423 0.440344214 0.25 0.420588225 0.198997423 0.440344214 0.25 0.447058827 0.205848515 0.41477558 0.164705887 0.397733748 0.151470587 0.420657963 0.205848515 0.41477558 0.151470587 0.420657963 0.198997423 0.440344214 0.164705887 0.397733748 0.129375905 0.370624095 0.110658363 0.389341623 0.164705887 0.397733748 0.110658363 0.389341623 0.151470587 0.420657963 0.129375905 0.370624095 0.102266252 0.335294127 0.0793420523 0.348529398 0.129375905 0.370624095 0.0793420523 0.348529398 0.110658363 0.389341623 0.102266252 0.335294127 0.0852244198 0.294151485 0.0596557893 0.301002562 0.102266252 0.335294127 0.0596557893 0.301002562 0.0793420523 0.348529398 0.0852244198 0.294151485 0.0794117674 0.25 0.0529411733 0.25 0.0852244198 0.294151485 0.0529411733 0.25 0.0596557893 0.301002562 0.0794117674 0.25 0.0852244198 0.205848515 0.0596557893 0.198997423 0.0794117674 0.25 0.0596557893 0.198997423 0.0529411733 0.25 0.0852244198 0.205848515 0.102266252 0.164705887 0.0793420523 0.151470587 0.0852244198 0.205848515 0.0793420523 0.151470587 0.0596557893 0.198997423 0.102266252 0.164705887 0.129375905 0.129375905 0.110658363 0.11065837 0.102266252 0.164705887 0.110658363 0.11065837 0.0793420523 0.151470587 0.129375905 0.129375905 0.164705887 0.102266252 0.151470587 0.0793420523 0.129375905 0.129375905 0.151470587 0.0793420523 0.110658363 0.11065837 0.164705887 0.102266252 0.205848515 0.0852244198 0.198997423 0.0596558005 0.164705887 0.102266252 0.198997423 0.0596558005 0.151470587 0.0793420523 0.205848515 0.0852244198 0.25 0.07941176 0.25 0.0529411845 0.205848515 0.0852244198 0.25 0.0529411845 0.198997423 0.0596558005 0.25 0.07941176 0.294151485 0.0852244198 0.301002562 0.0596558005 0.25 0.07941176 0.301002562 0.0596558005 0.25 0.0529411845 0.294151485 0.0852244198 0.335294127 0.102266252 0.348529428 0.0793420523 0.294151485 0.0852244198 0.348529428 0.0793420523 0.301002562 0.0596558005 0.335294127 0.102266252 0.370624095 0.129375905 0.389341623 0.11065837 0.335294127 0.102266252 0.389341623 0.11065837 0.348529428 0.0793420523 0.370624095 0.129375905 0.397733748 0.164705887 0.420657963 0.151470587 0.370624095 0.129375905 0.420657963 0.151470587 0.389341623 0.11065837 0.397733748 0.164705887 0.41477558 0.205848515 0.440344214 0.198997423 0.397733748 0.164705887 0.440344214 0.198997423 0.420657963 0.151470587 0.41477558 0.205848515 0.420588225 0.25 0.447058827 0.25 0.41477558 0.205848515 0.447058827 0.25 0.440344214 0.198997423 0.447058827 0.25 0.440344214 0.301002562 0.451708049 0.304047495 0.447058827 0.25 0.451708049 0.304047495 0.458823532 0.25 0.440344214 0.301002562 0.420657963 0.348529398 0.430846483 0.354411751 0.440344214 0.301002562 0.430846483 0.354411751 0.451708049 0.304047495 0.420657963 0.348529398 0.389341623 0.389341623 0.397660524 0.397660524 0.420657963 0.348529398 0.397660524 0.397660524 0.430846483 0.354411751 0.389341623 0.389341623 0.348529428 0.420657963 0.354411781 0.430846483 0.389341623 0.389341623 0.354411781 0.430846483 0.397660524 0.397660524 0.348529428 0.420657963 0.301002562 0.440344214 0.304047495 0.451708049 0.348529428 0.420657963 0.304047495 0.451708049 0.354411781 0.430846483 0.301002562 0.440344214 0.25 0.447058827 0.25 0.458823532 0.301002562 0.440344214 0.25 0.458823532 0.304047495 0.451708049 0.25 0.447058827 0.198997423 0.440344214 0.19595249 0.451708049 0.25 0.447058827 0.19595249 0.451708049 0.25 0.458823532 0.198997423 0.440344214 0.151470587 0.420657963 0.145588234 0.430846483 0.198997423 0.440344214 0.145588234 0.430846483 0.19595249 0.451708049 0.151470587 0.420657963 0.110658363 0.389341623 0.102339461 0.397660524 0.151470587 0.420657963 0.102339461 0.397660524 0.145588234 0.430846483 0.110658363 0.389341623 0.0793420523 0.348529398 0.0691535175 0.354411751 0.110658363 0.389341623 0.0691535175 0.354411751 0.102339461 0.397660524 0.0793420523 0.348529398 0.0596557893 0.301002562 0.0482919663 0.304047495 0.0793420523 0.348529398 0.0482919663 0.304047495 0.0691535175 0.354411751 0.0596557893 0.301002562 0.0529411733 0.25 0.0411764644 0.25 0.0596557893 0.301002562 0.0411764644 0.25 0.0482919663 0.304047495 0.0529411733 0.25 0.0596557893 0.198997423 0.0482919663 0.19595249 0.0529411733 0.25 0.0482919663 0.19595249 0.0411764644 0.25 0.0596557893 0.198997423 0.0793420523 0.151470587 0.0691535175 0.145588234 0.0596557893 0.198997423 0.0691535175 0.145588234 0.0482919663 0.19595249 0.0793420523 0.151470587 0.110658363 0.11065837 0.102339461 0.102339469 0.0793420523 0.151470587 0.102339461 0.102339469 0.0691535175 0.145588234 0.110658363 0.11065837 0.151470587 0.0793420523 0.145588234 0.0691535175 0.110658363 0.11065837 0.145588234 0.0691535175 0.102339461 0.102339469 0.151470587 0.0793420523 0.198997423 0.0596558005 0.19595249 0.0482919589 0.151470587 0.0793420523 0.19595249 0.0482919589 0.145588234 0.0691535175 0.198997423 0.0596558005 0.25 0.0529411845 0.25 0.0411764793 0.198997423 0.0596558005 0.25 0.0411764793 0.19595249 0.0482919589 0.25 0.0529411845 0.301002562 0.0596558005 0.304047495 0.0482919589 0.25 0.0529411845 0.304047495 0.0482919589 0.25 0.0411764793 0.301002562 0.0596558005 0.348529428 0.0793420523 0.354411781 0.0691535175 0.301002562 0.0596558005 0.354411781 0.0691535175 0.304047495 0.0482919589 0.348529428 0.0793420523 0.389341623 0.11065837 0.397660524 0.102339469 0.348529428 0.0793420523 0.397660524 0.102339469 0.354411781 0.0691535175 0.389341623 0.11065837 0.420657963 0.151470587 0.430846483 0.145588234 0.389341623 0.11065837 0.430846483 0.145588234 0.397660524 0.102339469 0.420657963 0.151470587 0.440344214 0.198997423 0.451708049 0.19595249 0.420657963 0.151470587 0.451708049 0.19595249 0.430846483 0.145588234 0.440344214 0.198997423 0.447058827 0.25 0.458823532 0.25 0.440344214 0.198997423 0.458823532 0.25 0.451708049 0.19595249 1 0.525190234 1.04166663 0.525190234 1.04166663 0.572966814 1 0.525190234 1.04166663 0.572966814 1 0.572966814 0.0416666679 0.525190234 0.0833333284 0.525190234 0.0833333433 0.572966814 0.0416666679 0.525190234 0.0833333433 0.572966814 0.0416666679 0.572966814 0.0833333284 0.525190234 0.124999993 0.525190234 0.125 0.572966814 0.0833333284 0.525190234 0.125 0.572966814 0.0833333433 0.572966814 0.124999993 0.525190234 0.166666657 0.525190234 0.166666657 0.572966814 0.124999993 0.525190234 0.166666657 0.572966814 0.125 0.572966814 0.166666657 0.525190234 0.208333328 0.525190234 0.208333328 0.572966814 0.166666657 0.525190234 0.208333328 0.572966814 0.166666657 0.572966814 0.208333328 0.525190234 0.25 0.525190234 0.25 0.572966814 0.208333328 0.525190234 0.25 0.572966814 0.208333328 0.572966814 0.25 0.525190234 0.291666657 0.525190234 0.291666657 0.572966814 0.25 0.525190234 0.291666657 0.572966814 0.25 0.572966814 0.291666657 0.525190234 0.333333343 0.525190234 0.333333343 0.572966814 0.291666657 0.525190234 0.333333343 0.572966814 0.291666657 0.572966814 0.333333343 0.525190234 0.375 0.525190234 0.375 0.572966814 0.333333343 0.525190234 0.375 0.572966814 0.333333343 0.572966814 0.375 0.525190234 0.416666657 0.525190234 0.416666657 0.572966814 0.375 0.525190234 0.416666657 0.572966814 0.375 0.572966814 0.416666657 0.525190234 0.458333343 0.525190234 0.458333343 0.572966814 0.416666657 0.525190234 0.458333343 0.572966814 0.416666657 0.572966814 0.458333343 0.525190234 0.5 0.525190234 0.5 0.572966814 0.458333343 0.525190234 0.5 0.572966814 0.458333343 0.572966814 0.5 0.525190234 0.541666687 0.525190234 0.541666687 0.572966814 0.5 0.525190234 0.541666687 0.572966814 0.5 0.572966814 0.541666687 0.525190234 0.583333313 0.525190234 0.583333313 0.572966814 0.541666687 0.525190234 0.583333313 0.572966814 0.541666687 0.572966814 0.583333313 0.525190234 0.625 0.525190234 0.625 0.572966814 0.583333313 0.525190234 0.625 0.572966814 0.583333313 0.572966814 0.625 0.525190234 0.666666687 0.525190234 0.666666687 0.572966814 0.625 0.525190234 0.666666687 0.572966814 0.625 0.572966814 0.666666687 0.525190234 0.708333313 0.525190234 0.708333313 0.572966814 0.666666687 0.525190234 0.708333313 0.572966814 0.666666687 0.572966814 0.708333313 0.525190234 0.75 0.525190234 0.75 0.572966814 0.708333313 0.525190234 0.75 0.572966814 0.708333313 0.572966814 0.75 0.525190234 0.791666687 0.525190234 0.791666687 0.572966814 0.75 0.525190234 0.791666687 0.572966814 0.75 0.572966814 0.791666687 0.525190234 0.833333313 0.525190234 0.833333313 0.572966814 0.791666687 0.525190234 0.833333313 0.572966814 0.791666687 0.572966814 0.833333313 0.525190234 0.875 0.525190234 0.875 0.572966814 0.833333313 0.525190234 0.875 0.572966814 0.833333313 0.572966814 0.875 0.525190234 0.916666687 0.525190234 0.916666687 0.572966814 0.875 0.525190234 0.916666687 0.572966814 0.875 0.572966814 0.916666687 0.525190234 0.958333313 0.525190234 0.958333313 0.572966814 0.916666687 0.525190234 0.958333313 0.572966814 0.916666687 0.572966814 0.958333313 0.525190234 1 0.525190234 1 0.572966814 0.958333313 0.525190234 1 0.572966814 0.958333313 0.572966814 1 0.572966814 1.04166663 0.572966814 1.04166663 0.644631684 1 0.572966814 1.04166663 0.644631684 1 0.644631684 0.0416666679 0.572966814 0.0833333433 0.572966814 0.0833333284 0.644631684 0.0416666679 0.572966814 0.0833333284 0.644631684 0.0416666642 0.644631684 0.0833333433 0.572966814 0.125 0.572966814 0.125 0.644631684 0.0833333433 0.572966814 0.125 0.644631684 0.0833333284 0.644631684 0.125 0.572966814 0.166666657 0.572966814 0.166666657 0.644631684 0.125 0.572966814 0.166666657 0.644631684 0.125 0.644631684 0.166666657 0.572966814 0.208333328 0.572966814 0.208333328 0.644631684 0.166666657 0.572966814 0.208333328 0.644631684 0.166666657 0.644631684 0.208333328 0.572966814 0.25 0.572966814 0.25 0.644631684 0.208333328 0.572966814 0.25 0.644631684 0.208333328 0.644631684 0.25 0.572966814 0.291666657 0.572966814 0.291666657 0.644631684 0.25 0.572966814 0.291666657 0.644631684 0.25 0.644631684 0.291666657 0.572966814 0.333333343 0.572966814 0.333333343 0.644631684 0.291666657 0.572966814 0.333333343 0.644631684 0.291666657 0.644631684 0.333333343 0.572966814 0.375 0.572966814 0.375 0.644631684 0.333333343 0.572966814 0.375 0.644631684 0.333333343 0.644631684 0.375 0.572966814 0.416666657 0.572966814 0.416666657 0.644631684 0.375 0.572966814 0.416666657 0.644631684 0.375 0.644631684 0.416666657 0.572966814 0.458333343 0.572966814 0.458333343 0.644631684 0.416666657 0.572966814 0.458333343 0.644631684 0.416666657 0.644631684 0.458333343 0.572966814 0.5 0.572966814 0.5 0.644631684 0.458333343 0.572966814 0.5 0.644631684 0.458333343 0.644631684 0.5 0.572966814 0.541666687 0.572966814 0.541666687 0.644631684 0.5 0.572966814 0.541666687 0.644631684 0.5 0.644631684 0.541666687 0.572966814 0.583333313 0.572966814 0.583333313 0.644631684 0.541666687 0.572966814 0.583333313 0.644631684 0.541666687 0.644631684 0.583333313 0.572966814 0.625 0.572966814 0.625 0.644631684 0.583333313 0.572966814 0.625 0.644631684 0.583333313 0.644631684 0.625 0.572966814 0.666666687 0.572966814 0.666666687 0.644631684 0.625 0.572966814 0.666666687 0.644631684 0.625 0.644631684 0.666666687 0.572966814 0.708333313 0.572966814 0.708333313 0.644631684 0.666666687 0.572966814 0.708333313 0.644631684 0.666666687 0.644631684 0.708333313 0.572966814 0.75 0.572966814 0.75 0.644631684 0.708333313 0.572966814 0.75 0.644631684 0.708333313 0.644631684 0.75 0.572966814 0.791666687 0.572966814 0.791666687 0.644631684 0.75 0.572966814 0.791666687 0.644631684 0.75 0.644631684 0.791666687 0.572966814 0.833333313 0.572966814 0.833333313 0.644631684 0.791666687 0.572966814 0.833333313 0.644631684 0.791666687 0.644631684 0.833333313 0.572966814 0.875 0.572966814 0.875 0.644631684 0.833333313 0.572966814 0.875 0.644631684 0.833333313 0.644631684 0.875 0.572966814 0.916666687 0.572966814 0.916666687 0.644631684 0.875 0.572966814 0.916666687 0.644631684 0.875 0.644631684 0.916666687 0.572966814 0.958333313 0.572966814 0.958333313 0.644631684 0.916666687 0.572966814 0.958333313 0.644631684 0.916666687 0.644631684 0.958333313 0.572966814 1 0.572966814 1 0.644631684 0.958333313 0.572966814 1 0.644631684 0.958333313 0.644631684 1 0.644631684 1.04166663 0.644631684 1.04166663 0.86559844 1 0.644631684 1.04166663 0.86559844 1 0.86559844 0.0416666642 0.644631684 0.0833333284 0.644631684 0.0833333284 0.86559844 0.0416666642 0.644631684 0.0833333284 0.86559844 0.0416666642 0.86559844 0.0833333284 0.644631684 0.125 0.644631684 0.125 0.86559844 0.0833333284 0.644631684 0.125 0.86559844 0.0833333284 0.86559844 0.125 0.644631684 0.166666657 0.644631684 0.166666657 0.86559844 0.125 0.644631684 0.166666657 0.86559844 0.125 0.86559844 0.166666657 0.644631684 0.208333328 0.644631684 0.208333328 0.86559844 0.166666657 0.644631684 0.208333328 0.86559844 0.166666657 0.86559844 0.208333328 0.644631684 0.25 0.644631684 0.25 0.86559844 0.208333328 0.644631684 0.25 0.86559844 0.208333328 0.86559844 0.25 0.644631684 0.291666657 0.644631684 0.291666657 0.86559844 0.25 0.644631684 0.291666657 0.86559844 0.25 0.86559844 0.291666657 0.644631684 0.333333343 0.644631684 0.333333343 0.86559844 0.291666657 0.644631684 0.333333343 0.86559844 0.291666657 0.86559844 0.333333343 0.644631684 0.375 0.644631684 0.375 0.86559844 0.333333343 0.644631684 0.375 0.86559844 0.333333343 0.86559844 0.375 0.644631684 0.416666657 0.644631684 0.416666657 0.86559844 0.375 0.644631684 0.416666657 0.86559844 0.375 0.86559844 0.416666657 0.644631684 0.458333343 0.644631684 0.458333343 0.86559844 0.416666657 0.644631684 0.458333343 0.86559844 0.416666657 0.86559844 0.458333343 0.644631684 0.5 0.644631684 0.5 0.86559844 0.458333343 0.644631684 0.5 0.86559844 0.458333343 0.86559844 0.5 0.644631684 0.541666687 0.644631684 0.541666687 0.86559844 0.5 0.644631684 0.541666687 0.86559844 0.5 0.86559844 0.541666687 0.644631684 0.583333313 0.644631684 0.583333313 0.86559844 0.541666687 0.644631684 0.583333313 0.86559844 0.541666687 0.86559844 0.583333313 0.644631684 0.625 0.644631684 0.625 0.86559844 0.583333313 0.644631684 0.625 0.86559844 0.583333313 0.86559844 0.625 0.644631684 0.666666687 0.644631684 0.666666687 0.86559844 0.625 0.644631684 0.666666687 0.86559844 0.625 0.86559844 0.666666687 0.644631684 0.708333313 0.644631684 0.708333313 0.86559844 0.666666687 0.644631684 0.708333313 0.86559844 0.666666687 0.86559844 0.708333313 0.644631684 0.75 0.644631684 0.75 0.86559844 0.708333313 0.644631684 0.75 0.86559844 0.708333313 0.86559844 0.75 0.644631684 0.791666687 0.644631684 0.791666687 0.86559844 0.75 0.644631684 0.791666687 0.86559844 0.75 0.86559844 0.791666687 0.644631684 0.833333313 0.644631684 0.833333313 0.86559844 0.791666687 0.644631684 0.833333313 0.86559844 0.791666687 0.86559844 0.833333313 0.644631684 0.875 0.644631684 0.875 0.86559844 0.833333313 0.644631684 0.875 0.86559844 0.833333313 0.86559844 0.875 0.644631684 0.916666687 0.644631684 0.916666687 0.86559844 0.875 0.644631684 0.916666687 0.86559844 0.875 0.86559844 0.916666687 0.644631684 0.958333313 0.644631684 0.958333313 0.86559844 0.916666687 0.644631684 0.958333313 0.86559844 0.916666687 0.86559844 0.958333313 0.644631684 1 0.644631684 1 0.86559844 0.958333313 0.644631684 1 0.86559844 0.958333313 0.86559844 1 0.86559844 1.04166663 0.86559844 1.04166663 0.949207485 1 0.86559844 1.04166663 0.949207485 1 0.949207485 0.0416666642 0.86559844 0.0833333284 0.86559844 0.0833333433 0.949207485 0.0416666642 0.86559844 0.0833333433 0.949207485 0.0416666679 0.949207485 0.0833333284 0.86559844 0.125 0.86559844 0.125 0.949207485 0.0833333284 0.86559844 0.125 0.949207485 0.0833333433 0.949207485 0.125 0.86559844 0.166666657 0.86559844 0.166666657 0.949207485 0.125 0.86559844 0.166666657 0.949207485 0.125 0.949207485 0.166666657 0.86559844 0.208333328 0.86559844 0.208333328 0.949207485 0.166666657 0.86559844 0.208333328 0.949207485 0.166666657 0.949207485 0.208333328 0.86559844 0.25 0.86559844 0.25 0.949207485 0.208333328 0.86559844 0.25 0.949207485 0.208333328 0.949207485 0.25 0.86559844 0.291666657 0.86559844 0.291666657 0.949207485 0.25 0.86559844 0.291666657 0.949207485 0.25 0.949207485 0.291666657 0.86559844 0.333333343 0.86559844 0.333333343 0.949207485 0.291666657 0.86559844 0.333333343 0.949207485 0.291666657 0.949207485 0.333333343 0.86559844 0.375 0.86559844 0.375 0.949207485 0.333333343 0.86559844 0.375 0.949207485 0.333333343 0.949207485 0.375 0.86559844 0.416666657 0.86559844 0.416666657 0.949207485 0.375 0.86559844 0.416666657 0.949207485 0.375 0.949207485 0.416666657 0.86559844 0.458333343 0.86559844 0.458333343 0.949207485 0.416666657 0.86559844 0.458333343 0.949207485 0.416666657 0.949207485 0.458333343 0.86559844 0.5 0.86559844 0.5 0.949207485 0.458333343 0.86559844 0.5 0.949207485 0.458333343 0.949207485 0.5 0.86559844 0.541666687 0.86559844 0.541666687 0.949207485 0.5 0.86559844 0.541666687 0.949207485 0.5 0.949207485 0.541666687 0.86559844 0.583333313 0.86559844 0.583333313 0.949207485 0.541666687 0.86559844 0.583333313 0.949207485 0.541666687 0.949207485 0.583333313 0.86559844 0.625 0.86559844 0.625 0.949207485 0.583333313 0.86559844 0.625 0.949207485 0.583333313 0.949207485 0.625 0.86559844 0.666666687 0.86559844 0.666666687 0.949207485 0.625 0.86559844 0.666666687 0.949207485 0.625 0.949207485 0.666666687 0.86559844 0.708333313 0.86559844 0.708333313 0.949207485 0.666666687 0.86559844 0.708333313 0.949207485 0.666666687 0.949207485 0.708333313 0.86559844 0.75 0.86559844 0.75 0.949207485 0.708333313 0.86559844 0.75 0.949207485 0.708333313 0.949207485 0.75 0.86559844 0.791666687 0.86559844 0.791666687 0.949207485 0.75 0.86559844 0.791666687 0.949207485 0.75 0.949207485 0.791666687 0.86559844 0.833333313 0.86559844 0.833333313 0.949207485 0.791666687 0.86559844 0.833333313 0.949207485 0.791666687 0.949207485 0.833333313 0.86559844 0.875 0.86559844 0.875 0.949207485 0.833333313 0.86559844 0.875 0.949207485 0.833333313 0.949207485 0.875 0.86559844 0.916666687 0.86559844 0.916666687 0.949207485 0.875 0.86559844 0.916666687 0.949207485 0.875 0.949207485 0.916666687 0.86559844 0.958333313 0.86559844 0.958333313 0.949207485 0.916666687 0.86559844 0.958333313 0.949207485 0.916666687 0.949207485 0.958333313 0.86559844 1 0.86559844 1 0.949207485 0.958333313 0.86559844 1 0.949207485 0.958333313 0.949207485 1 0.949207485 1.04166663 0.949207485 1.04166663 0.999970138 1 0.949207485 1.04166663 0.999970138 1 0.999970138 0.0416666679 0.949207485 0.0833333433 0.949207485 0.0833333284 0.999970138 0.0416666679 0.949207485 0.0833333284 0.999970138 0.0416666679 0.999970138 0.0833333433 0.949207485 0.125 0.949207485 0.125 0.999970138 0.0833333433 0.949207485 0.125 0.999970138 0.0833333284 0.999970138 0.125 0.949207485 0.166666657 0.949207485 0.166666672 0.999970138 0.125 0.949207485 0.166666672 0.999970138 0.125 0.999970138 0.166666657 0.949207485 0.208333328 0.949207485 0.208333343 0.999970138 0.166666657 0.949207485 0.208333343 0.999970138 0.166666672 0.999970138 0.208333328 0.949207485 0.25 0.949207485 0.25 0.999970138 0.208333328 0.949207485 0.25 0.999970138 0.208333343 0.999970138 0.25 0.949207485 0.291666657 0.949207485 0.291666657 0.999970138 0.25 0.949207485 0.291666657 0.999970138 0.25 0.999970138 0.291666657 0.949207485 0.333333343 0.949207485 0.333333343 0.999970138 0.291666657 0.949207485 0.333333343 0.999970138 0.291666657 0.999970138 0.333333343 0.949207485 0.375 0.949207485 0.375 0.999970138 0.333333343 0.949207485 0.375 0.999970138 0.333333343 0.999970138 0.375 0.949207485 0.416666657 0.949207485 0.416666657 0.999970138 0.375 0.949207485 0.416666657 0.999970138 0.375 0.999970138 0.416666657 0.949207485 0.458333343 0.949207485 0.458333343 0.999970138 0.416666657 0.949207485 0.458333343 0.999970138 0.416666657 0.999970138 0.458333343 0.949207485 0.5 0.949207485 0.5 0.999970138 0.458333343 0.949207485 0.5 0.999970138 0.458333343 0.999970138 0.5 0.949207485 0.541666687 0.949207485 0.541666687 0.999970138 0.5 0.949207485 0.541666687 0.999970138 0.5 0.999970138 0.541666687 0.949207485 0.583333313 0.949207485 0.583333313 0.999970138 0.541666687 0.949207485 0.583333313 0.999970138 0.541666687 0.999970138 0.583333313 0.949207485 0.625 0.949207485 0.625 0.999970138 0.583333313 0.949207485 0.625 0.999970138 0.583333313 0.999970138 0.625 0.949207485 0.666666687 0.949207485 0.666666687 0.999970138 0.625 0.949207485 0.666666687 0.999970138 0.625 0.999970138 0.666666687 0.949207485 0.708333313 0.949207485 0.708333313 0.999970138 0.666666687 0.949207485 0.708333313 0.999970138 0.666666687 0.999970138 0.708333313 0.949207485 0.75 0.949207485 0.75 0.999970138 0.708333313 0.949207485 0.75 0.999970138 0.708333313 0.999970138 0.75 0.949207485 0.791666687 0.949207485 0.791666687 0.999970138 0.75 0.949207485 0.791666687 0.999970138 0.75 0.999970138 0.791666687 0.949207485 0.833333313 0.949207485 0.833333313 0.999970138 0.791666687 0.949207485 0.833333313 0.999970138 0.791666687 0.999970138 0.833333313 0.949207485 0.875 0.949207485 0.875 0.999970138 0.833333313 0.949207485 0.875 0.999970138 0.833333313 0.999970138 0.875 0.949207485 0.916666687 0.949207485 0.916666687 0.999970138 0.875 0.949207485 0.916666687 0.999970138 0.875 0.999970138 0.916666687 0.949207485 0.958333313 0.949207485 0.958333313 0.999970138 0.916666687 0.949207485 0.958333313 0.999970138 0.916666687 0.999970138 0.958333313 0.949207485 1 0.949207485 1 0.999970138 0.958333313 0.949207485 1 0.999970138 0.958333313 0.999970138 0.949999988 0.25 0.943185151 0.301763803 0.91477561 0.294151485 0.949999988 0.25 0.91477561 0.294151485 0.920588255 0.25 0.943185151 0.301763803 0.923205078 0.349999994 0.897733748 0.335294127 0.943185151 0.301763803 0.897733748 0.335294127 0.91477561 0.294151485 0.923205078 0.349999994 0.891421378 0.391421348 0.870624125 0.370624095 0.923205078 0.349999994 0.870624125 0.370624095 0.897733748 0.335294127 0.891421378 0.391421348 0.850000024 0.423205078 0.835294127 0.397733748 0.891421378 0.391421348 0.835294127 0.397733748 0.870624125 0.370624095 0.850000024 0.423205078 0.801763833 0.44318518 0.794151485 0.41477558 0.850000024 0.423205078 0.794151485 0.41477558 0.835294127 0.397733748 0.801763833 0.44318518 0.75 0.449999988 0.75 0.420588225 0.801763833 0.44318518 0.75 0.420588225 0.794151485 0.41477558 0.75 0.449999988 0.698236167 0.44318518 0.705848515 0.41477558 0.75 0.449999988 0.705848515 0.41477558 0.75 0.420588225 0.698236167 0.44318518 0.649999976 0.423205078 0.664705873 0.397733748 0.698236167 0.44318518 0.664705873 0.397733748 0.705848515 0.41477558 0.649999976 0.423205078 0.608578622 0.391421348 0.629375875 0.370624095 0.649999976 0.423205078 0.629375875 0.370624095 0.664705873 0.397733748 0.608578622 0.391421348 0.576794922 0.349999994 0.602266252 0.335294127 0.608578622 0.391421348 0.602266252 0.335294127 0.629375875 0.370624095 0.576794922 0.349999994 0.556814849 0.301763803 0.58522439 0.294151485 0.576794922 0.349999994 0.58522439 0.294151485 0.602266252 0.335294127 0.556814849 0.301763803 0.550000012 0.25 0.579411745 0.25 0.556814849 0.301763803 0.579411745 0.25 0.58522439 0.294151485 0.550000012 0.25 0.556814849 0.198236197 0.58522439 0.205848515 0.550000012 0.25 0.58522439 0.205848515 0.579411745 0.25 0.556814849 0.198236197 0.576794922 0.149999991 0.602266252 0.164705887 0.556814849 0.198236197 0.602266252 0.164705887 0.58522439 0.205848515 0.576794922 0.149999991 0.608578622 0.108578645 0.629375875 0.129375905 0.576794922 0.149999991 0.629375875 0.129375905 0.602266252 0.164705887 0.608578622 0.108578645 0.649999976 0.0767949224 0.664705873 0.102266252 0.608578622 0.108578645 0.664705873 0.102266252 0.629375875 0.129375905 0.649999976 0.0767949224 0.698236167 0.0568148308 0.705848515 0.0852244198 0.649999976 0.0767949224 0.705848515 0.0852244198 0.664705873 0.102266252 0.698236167 0.0568148308 0.75 0.0500000045 0.75 0.07941176 0.698236167 0.0568148308 0.75 0.07941176 0.705848515 0.0852244198 0.75 0.0500000045 0.801763833 0.0568148308 0.794151485 0.0852244198 0.75 0.0500000045 0.794151485 0.0852244198 0.75 0.07941176 0.801763833 0.0568148308 0.850000024 0.0767949224 0.835294127 0.102266252 0.801763833 0.0568148308 0.835294127 0.102266252 0.794151485 0.0852244198 0.850000024 0.0767949224 0.891421378 0.108578645 0.870624125 0.129375905 0.850000024 0.0767949224 0.870624125 0.129375905 0.835294127 0.102266252 0.891421378 0.108578645 0.923205078 0.149999991 0.897733748 0.164705887 0.891421378 0.108578645 0.897733748 0.164705887 0.870624125 0.129375905 0.923205078 0.149999991 0.943185151 0.198236197 0.91477561 0.205848515 0.923205078 0.149999991 0.91477561 0.205848515 0.897733748 0.164705887 0.943185151 0.198236197 0.949999988 0.25 0.920588255 0.25 0.943185151 0.198236197 0.920588255 0.25 0.91477561 0.205848515 0.920588255 0.25 0.91477561 0.294151485 0.91477561 0.294151485 0.920588255 0.25 0.91477561 0.294151485 0.920588255 0.25 0.91477561 0.294151485 0.897733748 0.335294127 0.897733748 0.335294127 0.91477561 0.294151485 0.897733748 0.335294127 0.91477561 0.294151485 0.897733748 0.335294127 0.870624125 0.370624095 0.870624125 0.370624095 0.897733748 0.335294127 0.870624125 0.370624095 0.897733748 0.335294127 0.870624125 0.370624095 0.835294127 0.397733748 0.835294127 0.397733748 0.870624125 0.370624095 0.835294127 0.397733748 0.870624125 0.370624095 0.835294127 0.397733748 0.794151485 0.41477558 0.794151485 0.41477558 0.835294127 0.397733748 0.794151485 0.41477558 0.835294127 0.397733748 0.794151485 0.41477558 0.75 0.420588225 0.75 0.420588225 0.794151485 0.41477558 0.75 0.420588225 0.794151485 0.41477558 0.75 0.420588225 0.705848515 0.41477558 0.705848515 0.41477558 0.75 0.420588225 0.705848515 0.41477558 0.75 0.420588225 0.705848515 0.41477558 0.664705873 0.397733748 0.664705873 0.397733748 0.705848515 0.41477558 0.664705873 0.397733748 0.705848515 0.41477558 0.664705873 0.397733748 0.629375875 0.370624095 0.629375875 0.370624095 0.664705873 0.397733748 0.629375875 0.370624095 0.664705873 0.397733748 0.629375875 0.370624095 0.602266252 0.335294127 0.602266252 0.335294127 0.629375875 0.370624095 0.602266252 0.335294127 0.629375875 0.370624095 0.602266252 0.335294127 0.58522439 0.294151485 0.58522439 0.294151485 0.602266252 0.335294127 0.58522439 0.294151485 0.602266252 0.335294127 0.58522439 0.294151485 0.579411745 0.25 0.579411745 0.25 0.58522439 0.294151485 0.579411745 0.25 0.58522439 0.294151485 0.579411745 0.25 0.58522439 0.205848515 0.58522439 0.205848515 0.579411745 0.25 0.58522439 0.205848515 0.579411745 0.25 0.58522439 0.205848515 0.602266252 0.164705887 0.602266252 0.164705887 0.58522439 0.205848515 0.602266252 0.164705887 0.58522439 0.205848515 0.602266252 0.164705887 0.629375875 0.129375905 0.629375875 0.129375905 0.602266252 0.164705887 0.629375875 0.129375905 0.602266252 0.164705887 0.629375875 0.129375905 0.664705873 0.102266252 0.664705873 0.102266252 0.629375875 0.129375905 0.664705873 0.102266252 0.629375875 0.129375905 0.664705873 0.102266252 0.705848515 0.0852244198 0.705848515 0.0852244198 0.664705873 0.102266252 0.705848515 0.0852244198 0.664705873 0.102266252 0.705848515 0.0852244198 0.75 0.07941176 0.75 0.07941176 0.705848515 0.0852244198 0.75 0.07941176 0.705848515 0.0852244198 0.75 0.07941176 0.794151485 0.0852244198 0.794151485 0.0852244198 0.75 0.07941176 0.794151485 0.0852244198 0.75 0.07941176 0.794151485 0.0852244198 0.835294127 0.102266252 0.835294127 0.102266252 0.794151485 0.0852244198 0.835294127 0.102266252 0.794151485 0.0852244198 0.835294127 0.102266252 0.870624125 0.129375905 0.870624125 0.129375905 0.835294127 0.102266252 0.870624125 0.129375905 0.835294127 0.102266252 0.870624125 0.129375905 0.897733748 0.164705887 0.897733748 0.164705887 0.870624125 0.129375905 0.897733748 0.164705887 0.870624125 0.129375905 0.897733748 0.164705887 0.91477561 0.205848515 0.91477561 0.205848515 0.897733748 0.164705887 0.91477561 0.205848515 0.897733748 0.164705887 0.91477561 0.205848515 0.920588255 0.25 0.920588255 0.25 0.91477561 0.205848515 0.920588255 0.25 0.91477561 0.205848515 0.920588255 0.25 0.91477561 0.294151485 0.784091473 0.259134799 0.920588255 0.25 0.784091473 0.259134799 0.785294116 0.25 0.91477561 0.294151485 0.897733748 0.335294127 0.780565619 0.267647058 0.91477561 0.294151485 0.780565619 0.267647058 0.784091473 0.259134799 0.897733748 0.335294127 0.870624125 0.370624095 0.774956703 0.274956703 0.897733748 0.335294127 0.774956703 0.274956703 0.780565619 0.267647058 0.870624125 0.370624095 0.835294127 0.397733748 0.767647088 0.28056559 0.870624125 0.370624095 0.767647088 0.28056559 0.774956703 0.274956703 0.835294127 0.397733748 0.794151485 0.41477558 0.759134769 0.284091502 0.835294127 0.397733748 0.759134769 0.284091502 0.767647088 0.28056559 0.794151485 0.41477558 0.75 0.420588225 0.75 0.285294116 0.794151485 0.41477558 0.75 0.285294116 0.759134769 0.284091502 0.75 0.420588225 0.705848515 0.41477558 0.740865231 0.284091502 0.75 0.420588225 0.740865231 0.284091502 0.75 0.285294116 0.705848515 0.41477558 0.664705873 0.397733748 0.732352912 0.28056559 0.705848515 0.41477558 0.732352912 0.28056559 0.740865231 0.284091502 0.664705873 0.397733748 0.629375875 0.370624095 0.725043297 0.274956703 0.664705873 0.397733748 0.725043297 0.274956703 0.732352912 0.28056559 0.629375875 0.370624095 0.602266252 0.335294127 0.719434381 0.267647058 0.629375875 0.370624095 0.719434381 0.267647058 0.725043297 0.274956703 0.602266252 0.335294127 0.58522439 0.294151485 0.715908527 0.259134799 0.602266252 0.335294127 0.715908527 0.259134799 0.719434381 0.267647058 0.58522439 0.294151485 0.579411745 0.25 0.714705884 0.25 0.58522439 0.294151485 0.714705884 0.25 0.715908527 0.259134799 0.579411745 0.25 0.58522439 0.205848515 0.715908527 0.240865216 0.579411745 0.25 0.715908527 0.240865216 0.714705884 0.25 0.58522439 0.205848515 0.602266252 0.164705887 0.719434381 0.232352942 0.58522439 0.205848515 0.719434381 0.232352942 0.715908527 0.240865216 0.602266252 0.164705887 0.629375875 0.129375905 0.725043297 0.225043282 0.602266252 0.164705887 0.725043297 0.225043282 0.719434381 0.232352942 0.629375875 0.129375905 0.664705873 0.102266252 0.732352912 0.219434395 0.629375875 0.129375905 0.732352912 0.219434395 0.725043297 0.225043282 0.664705873 0.102266252 0.705848515 0.0852244198 0.740865231 0.215908498 0.664705873 0.102266252 0.740865231 0.215908498 0.732352912 0.219434395 0.705848515 0.0852244198 0.75 0.07941176 0.75 0.214705884 0.705848515 0.0852244198 0.75 0.214705884 0.740865231 0.215908498 0.75 0.07941176 0.794151485 0.0852244198 0.759134769 0.215908498 0.75 0.07941176 0.759134769 0.215908498 0.75 0.214705884 0.794151485 0.0852244198 0.835294127 0.102266252 0.767647088 0.219434395 0.794151485 0.0852244198 0.767647088 0.219434395 0.759134769 0.215908498 0.835294127 0.102266252 0.870624125 0.129375905 0.774956703 0.225043282 0.835294127 0.102266252 0.774956703 0.225043282 0.767647088 0.219434395 0.870624125 0.129375905 0.897733748 0.164705887 0.780565619 0.232352942 0.870624125 0.129375905 0.780565619 0.232352942 0.774956703 0.225043282 0.897733748 0.164705887 0.91477561 0.205848515 0.784091473 0.240865216 0.897733748 0.164705887 0.784091473 0.240865216 0.780565619 0.232352942 0.91477561 0.205848515 0.920588255 0.25 0.785294116 0.25 0.91477561 0.205848515 0.785294116 0.25 0.784091473 0.240865216 0.785294116 0.25 0.784091473 0.259134799 0.784091473 0.259134799 0.785294116 0.25 0.784091473 0.259134799 0.785294116 0.25 0.784091473 0.259134799 0.780565619 0.267647058 0.780565619 0.267647058 0.784091473 0.259134799 0.780565619 0.267647058 0.784091473 0.259134799 0.780565619 0.267647058 0.774956703 0.274956703 0.774956703 0.274956703 0.780565619 0.267647058 0.774956703 0.274956703 0.780565619 0.267647058 0.774956703 0.274956703 0.767647088 0.28056559 0.767647088 0.28056559 0.774956703 0.274956703 0.767647088 0.28056559 0.774956703 0.274956703 0.767647088 0.28056559 0.759134769 0.284091502 0.759134769 0.284091502 0.767647088 0.28056559 0.759134769 0.284091502 0.767647088 0.28056559 0.759134769 0.284091502 0.75 0.285294116 0.75 0.285294116 0.759134769 0.284091502 0.75 0.285294116 0.759134769 0.284091502 0.75 0.285294116 0.740865231 0.284091502 0.740865231 0.284091502 0.75 0.285294116 0.740865231 0.284091502 0.75 0.285294116 0.740865231 0.284091502 0.732352912 0.28056559 0.732352912 0.28056559 0.740865231 0.284091502 0.732352912 0.28056559 0.740865231 0.284091502 0.732352912 0.28056559 0.725043297 0.274956703 0.725043297 0.274956703 0.732352912 0.28056559 0.725043297 0.274956703 0.732352912 0.28056559 0.725043297 0.274956703 0.719434381 0.267647058 0.719434381 0.267647058 0.725043297 0.274956703 0.719434381 0.267647058 0.725043297 0.274956703 0.719434381 0.267647058 0.715908527 0.259134799 0.715908527 0.259134799 0.719434381 0.267647058 0.715908527 0.259134799 0.719434381 0.267647058 0.715908527 0.259134799 0.714705884 0.25 0.714705884 0.25 0.715908527 0.259134799 0.714705884 0.25 0.715908527 0.259134799 0.714705884 0.25 0.715908527 0.240865216 0.715908527 0.240865216 0.714705884 0.25 0.715908527 0.240865216 0.714705884 0.25 0.715908527 0.240865216 0.719434381 0.232352942 0.719434381 0.232352942 0.715908527 0.240865216 0.719434381 0.232352942 0.715908527 0.240865216 0.719434381 0.232352942 0.725043297 0.225043282 0.725043297 0.225043282 0.719434381 0.232352942 0.725043297 0.225043282 0.719434381 0.232352942 0.725043297 0.225043282 0.732352912 0.219434395 0.732352912 0.219434395 0.725043297 0.225043282 0.732352912 0.219434395 0.725043297 0.225043282 0.732352912 0.219434395 0.740865231 0.215908498 0.740865231 0.215908498 0.732352912 0.219434395 0.740865231 0.215908498 0.732352912 0.219434395 0.740865231 0.215908498 0.75 0.214705884 0.75 0.214705884 0.740865231 0.215908498 0.75 0.214705884 0.740865231 0.215908498 0.75 0.214705884 0.759134769 0.215908498 0.759134769 0.215908498 0.75 0.214705884 0.759134769 0.215908498 0.75 0.214705884 0.759134769 0.215908498 0.767647088 0.219434395 0.767647088 0.219434395 0.759134769 0.215908498 0.767647088 0.219434395 0.759134769 0.215908498 0.767647088 0.219434395 0.774956703 0.225043282 0.774956703 0.225043282 0.767647088 0.219434395 0.774956703 0.225043282 0.767647088 0.219434395 0.774956703 0.225043282 0.780565619 0.232352942 0.780565619 0.232352942 0.774956703 0.225043282 0.780565619 0.232352942 0.774956703 0.225043282 0.780565619 0.232352942 0.784091473 0.240865216 0.784091473 0.240865216 0.780565619 0.232352942 0.784091473 0.240865216 0.780565619 0.232352942 0.784091473 0.240865216 0.785294116 0.25 0.785294116 0.25 0.784091473 0.240865216 0.785294116 0.25 0.784091473 0.240865216 0.784091473 0.240865216 0.785294116 0.25 0.784091473 0.259134799 0.784091473 0.259134799 0.780565619 0.267647058 0.774956703 0.274956703 0.774956703 0.274956703 0.767647088 0.28056559 0.759134769 0.284091502 0.759134769 0.284091502 0.75 0.285294116 0.740865231 0.284091502 0.740865231 0.284091502 0.732352912 0.28056559 0.725043297 0.274956703 0.725043297 0.274956703 0.719434381 0.267647058 0.715908527 0.259134799 0.715908527 0.259134799 0.714705884 0.25 0.715908527 0.240865216 0.715908527 0.240865216 0.719434381 0.232352942 0.725043297 0.225043282 0.725043297 0.225043282 0.732352912 0.219434395 0.740865231 0.215908498 0.740865231 0.215908498 0.75 0.214705884 0.759134769 0.215908498 0.759134769 0.215908498 0.767647088 0.219434395 0.774956703 0.225043282 0.774956703 0.225043282 0.780565619 0.232352942 0.784091473 0.240865216 0.784091473 0.240865216 0.784091473 0.259134799 0.774956703 0.274956703 0.774956703 0.274956703 0.759134769 0.284091502 0.740865231 0.284091502 0.740865231 0.284091502 0.725043297 0.274956703 0.715908527 0.259134799 0.715908527 0.259134799 0.715908527 0.240865216 0.725043297 0.225043282 0.725043297 0.225043282 0.740865231 0.215908498 0.759134769 0.215908498 0.759134769 0.215908498 0.774956703 0.225043282 0.784091473 0.240865216 0.784091473 0.240865216 0.774956703 0.274956703 0.740865231 0.284091502 0.740865231 0.284091502 0.715908527 0.259134799 0.725043297 0.225043282 0.725043297 0.225043282 0.759134769 0.215908498 0.784091473 0.240865216 0.740865231 0.284091502 0.725043297 0.225043282 0.784091473 0.240865216</float_array>
          <technique_common>
            <accessor source="#atlas_uv_array" count="2004" stride="2">
              <param name="S" type="float" />
              <param name="T" type="float" />
            </accessor>
          </technique_common>
        </source>
        <source id="positions">
          <float_array id="positions_array" count="1008">0.0120000001 -0.000995000009 -0.0469949991 0.0115911104 -0.00410082843 -0.0469949991 0.0103923045 -0.00699499995 -0.0469949991 0.00848528091 -0.00948028173 -0.0469949991 0.00600000005 -0.0113873044 -0.0469949991 0.00310582854 -0.0125861103 -0.0469949991 -2.20436416e-18 -0.012995 -0.0469949991 -0.00310582854 -0.0125861103 -0.0469949991 -0.00600000005 -0.0113873044 -0.0469949991 -0.00848528091 -0.00948028173 -0.0469949991 -0.0103923045 -0.00699499995 -0.0469949991 -0.0115911104 -0.00410082843 -0.0469949991 -0.0120000001 -0.000995000009 -0.0469949991 -0.0115911104 0.00211082865 -0.0469949991 -0.0103923045 0.00500500016 -0.0469949991 -0.00848528091 0.00749028148 -0.0469949991 -0.00600000005 0.00939730462 -0.0469949991 -0.00310582854 0.0105961096 -0.0469949991 7.34788054e-19 0.0110050002 -0.0469949991 0.00310582854 0.0105961096 -0.0469949991 0.00600000005 0.00939730462 -0.0469949991 0.00848528091 0.00749028148 -0.0469949991 0.0103923045 0.00500500016 -0.0469949991 0.0115911104 0.00211082865 -0.0469949991 0.0115911104 0.00211082865 -0.00200000009 0.0120000001 -0.000995000009 -0.00200000009 0.0103923045 0.00500500016 -0.00200000009 0.00848528091 0.00749028148 -0.00200000009 0.00600000005 0.00939730462 -0.00200000009 0.00310582854 0.0105961096 -0.00200000009 7.34788054e-19 0.0110050002 -0.00200000009 -0.00310582854 0.0105961096 -0.00200000009 -0.00600000005 0.00939730462 -0.00200000009 -0.00848528091 0.00749028148 -0.00200000009 -0.0103923045 0.00500500016 -0.00200000009 -0.0115911104 0.00211082865 -0.00200000009 -0.0120000001 -0.000995000009 -0.00200000009 -0.0115911104 -0.00410082843 -0.00200000009 -0.0103923045 -0.00699499995 -0.00200000009 -0.00848528091 -0.00948028173 -0.00200000009 -0.00600000005 -0.0113873044 -0.00200000009 -0.00310582854 -0.0125861103 -0.00200000009 -2.20436416e-18 -0.012995 -0.00200000009 0.00310582854 -0.0125861103 -0.00200000009 0.00600000005 -0.0113873044 -0.00200000009 0.00848528091 -0.00948028173 -0.00200000009 0.0103923045 -0.00699499995 -0.00200000009 0.0115911104 -0.00410082843 -0.00200000009 0.0560236983 0.0140165044 -0.00200000009 0.0579999983 -0.000995000009 -0.00200000009 0.0502294749 0.0280050002 -0.00200000009 0.041012194 0.040017195 -0.00200000009 0.0289999992 0.0492344722 -0.00200000009 0.0150115043 0.0550286993 -0.00200000009 3.55147556e-18 0.0570049994 -0.00200000009 -0.0150115043 0.0550286993 -0.00200000009 -0.0289999992 0.0492344722 -0.00200000009 -0.041012194 0.040017195 -0.00200000009 -0.0502294749 0.0280050002 -0.00200000009 -0.0560236983 0.0140165044 -0.00200000009 -0.0579999983 -0.000995000009 -0.00200000009 -0.0560236983 -0.0160065051 -0.00200000009 -0.0502294749 -0.029995 -0.00200000009 -0.041012194 -0.042007193 -0.00200000009 -0.0289999992 -0.0512244739 -0.00200000009 -0.0150115043 -0.0570186973 -0.00200000009 -1.06544271e-17 -0.058995001 -0.00200000009 0.0150115043 -0.0570186973 -0.00200000009 0.0289999992 -0.0512244739 -0.00200000009 0.041012194 -0.042007193 -0.00200000009 0.0502294749 -0.029995 -0.00200000009 0.0560236983 -0.0160065051 -0.00200000009 0.064717032 0.0163458753 -0.00100000005 0.0670000017 -0.000995000009 -0.00100000005 0.0580237024 0.0325049981 -0.00100000005 0.0473761559 0.0463811532 -0.00100000005 0.0335000008 0.0570287034 -0.00100000005 0.0173408762 0.0637220293 -0.00100000005 4.10256686e-18 0.066004999 -0.00100000005 -0.0173408762 0.0637220293 -0.00100000005 -0.0335000008 0.0570287034 -0.00100000005 -0.0473761559 0.0463811532 -0.00100000005 -0.0580237024 0.0325049981 -0.00100000005 -0.064717032 0.0163458753 -0.00100000005 -0.0670000017 -0.000995000009 -0.00100000005 -0.064717032 -0.0183358751 -0.00100000005 -0.0580237024 -0.0344949998 -0.00100000005 -0.0473761559 -0.0483711548 -0.00100000005 -0.0335000008 -0.0590187013 -0.00100000005 -0.0173408762 -0.0657120273 -0.00100000005 -1.23077006e-17 -0.0679949969 -0.00100000005 0.0173408762 -0.0657120273 -0.00100000005 0.0335000008 -0.0590187013 -0.00100000005 0.0473761559 -0.0483711548 -0.00100000005 0.0580237024 -0.0344949998 -0.00100000005 0.064717032 -0.0183358751 -0.00100000005 0.0685807317 0.0173811521 0.00200000009 0.0710000023 -0.000995000009 0.00200000009 0.0614878051 0.0345049985 0.00200000009 0.0502045825 0.0492095798 0.00200000009 0.0355000012 0.0604928024 0.00200000009 0.018376153 0.0675857365 0.00200000009 4.34749628e-18 0.0700049996 0.00200000009 -0.018376153 0.0675857365 0.00200000009 -0.0355000012 0.0604928024 0.00200000009 -0.0502045825 0.0492095798 0.00200000009 -0.0614878051 0.0345049985 0.00200000009 -0.0685807317 0.0173811521 0.00200000009 -0.0710000023 -0.000995000009 0.00200000009 -0.0685807317 -0.0193711519 0.00200000009 -0.0614878051 -0.0364950001 0.00200000009 -0.0502045825 -0.0511995815 0.00200000009 -0.0355000012 -0.0624828041 0.00200000009 -0.018376153 -0.0695757344 0.00200000009 -1.30424884e-17 -0.0719949976 0.00200000009 0.018376153 -0.0695757344 0.00200000009 0.0355000012 -0.0624828041 0.00200000009 0.0502045825 -0.0511995815 0.00200000009 0.0614878051 -0.0364950001 0.00200000009 0.0685807317 -0.0193711519 0.00200000009 0.0753422156 0.0191928856 0.00999999978 0.076128006 -0.000995000009 0.00999999978 0.0659287795 0.037069004 0.00999999978 0.0551543273 0.0541593283 0.00999999978 0.038064003 0.0649337769 0.00999999978 0.0201878864 0.0743472129 0.00999999978 4.66149569e-18 0.0751330033 0.00999999978 -0.0201878864 0.0743472129 0.00999999978 -0.038064003 0.0649337769 0.00999999978 -0.0551543273 0.0541593283 0.00999999978 -0.0659287795 0.037069004 0.00999999978 -0.0753422156 0.0191928856 0.00999999978 -0.076128006 -0.000995000009 0.00999999978 -0.0753422156 -0.0211828854 0.00999999978 -0.0659287795 -0.039059002 0.00999999978 -0.0551543273 -0.05614933 0.00999999978 -0.038064003 -0.0669237822 0.00999999978 -0.0201878864 -0.0763372108 0.00999999978 -1.39844875e-17 -0.0771230012 0.00999999978 0.0201878864 -0.0763372108 0.00999999978 0.038064003 -0.0669237822 0.00999999978 0.0551543273 -0.05614933 0.00999999978 0.0659287795 -0.039059002 0.00999999978 0.0753422156 -0.0211828854 0.00999999978 0.0770808831 0.0196587592 0.0219999999 0.0798000023 -0.000995000009 0.0219999999 0.0691088289 0.0389049985 0.0219999999 0.0564271212 0.0554321222 0.0219999999 0.0399000011 0.0681138262 0.0219999999 0.0206537601 0.0760858804 0.0219999999 4.88634075e-18 0.0788049996 0.0219999999 -0.0206537601 0.0760858804 0.0219999999 -0.0399000011 0.0681138262 0.0219999999 -0.0564271212 0.0554321222 0.0219999999 -0.0691088289 0.0389049985 0.0219999999 -0.0770808831 0.0196587592 0.0219999999 -0.0798000023 -0.000995000009 0.0219999999 -0.0770808831 -0.021648759 0.0219999999 -0.0691088289 -0.0408950001 0.0219999999 -0.0564271212 -0.0574221201 0.0219999999 -0.0399000011 -0.0701038241 0.0219999999 -0.0206537601 -0.0780758783 0.0219999999 -1.46590218e-17 -0.0807949975 0.0219999999 0.0206537601 -0.0780758783 0.0219999999 0.0399000011 -0.0701038241 0.0219999999 0.0564271212 -0.0574221201 0.0219999999 0.0691088289 -0.0408950001 0.0219999999 0.0770808831 -0.021648759 0.0219999999 0.0770808831 0.0196587592 0.0590000004 0.0798000023 -0.000995000009 0.0590000004 0.0691088289 0.0389049985 0.0590000004 0.0564271212 0.0554321222 0.0590000004 0.0399000011 0.0681138262 0.0590000004 0.0206537601 0.0760858804 0.0590000004 4.88634075e-18 0.0788049996 0.0590000004 -0.0206537601 0.0760858804 0.0590000004 -0.0399000011 0.0681138262 0.0590000004 -0.0564271212 0.0554321222 0.0590000004 -0.0691088289 0.0389049985 0.0590000004 -0.0770808831 0.0196587592 0.0590000004 -0.0798000023 -0.000995000009 0.0590000004 -0.0770808831 -0.021648759 0.0590000004 -0.0691088289 -0.0408950001 0.0590000004 -0.0564271212 -0.0574221201 0.0590000004 -0.0399000011 -0.0701038241 0.0590000004 -0.0206537601 -0.0780758783 0.0590000004 -1.46590218e-17 -0.0807949975 0.0590000004 0.0206537601 -0.0780758783 0.0590000004 0.0399000011 -0.0701038241 0.0590000004 0.0564271212 -0.0574221201 0.0590000004 0.0691088289 -0.0408950001 0.0590000004 0.0770808831 -0.021648759 0.0590000004 0.0705125853 0.0178987905 0.0729999989 0.0712480024 -0.000995000009 0.0729999989 0.0617025755 0.0346290022 0.0729999989 0.0516187958 0.0506237969 0.0729999989 0.0356240012 0.0607075766 0.0729999989 0.0188937895 0.0695175827 0.0729999989 4.36268166e-18 0.0702530071 0.0729999989 -0.0188937895 0.0695175827 0.0729999989 -0.0356240012 0.0607075766 0.0729999989 -0.0516187958 0.0506237969 0.0729999989 -0.0617025755 0.0346290022 0.0729999989 -0.0705125853 0.0178987905 0.0729999989 -0.0712480024 -0.000995000009 0.0729999989 -0.0705125853 -0.0198887903 0.0729999989 -0.0617025755 -0.0366190001 0.0729999989 -0.0516187958 -0.0526137948 0.0729999989 -0.0356240012 -0.0626975745 0.0729999989 -0.0188937895 -0.071507588 0.0729999989 -1.30880454e-17 -0.072243005 0.0729999989 0.0188937895 -0.071507588 0.0729999989 0.0356240012 -0.0626975745 0.0729999989 0.0516187958 -0.0526137948 0.0729999989 0.0617025755 -0.0366190001 0.0729999989 0.0705125853 -0.0198887903 0.0729999989 0.0656829551 0.0166046955 0.0815000013 0.0680000037 -0.000995000009 0.0815000013 0.058889728 0.0330049992 0.0815000013 0.0480832607 0.0470882617 0.0815000013 0.0340000018 0.0578947291 0.0815000013 0.0175996944 0.0646879598 0.0815000013 4.16379932e-18 0.067005001 0.0815000013 -0.0175996944 0.0646879598 0.0815000013 -0.0340000018 0.0578947291 0.0815000013 -0.0480832607 0.0470882617 0.0815000013 -0.058889728 0.0330049992 0.0815000013 -0.0656829551 0.0166046955 0.0815000013 -0.0680000037 -0.000995000009 0.0815000013 -0.0656829551 -0.0185946953 0.0815000013 -0.058889728 -0.0349950008 0.0815000013 -0.0480832607 -0.0490782596 0.0815000013 -0.0340000018 -0.059884727 0.0815000013 -0.0175996944 -0.0666779578 0.0815000013 -1.24913975e-17 -0.0689949989 0.0815000013 0.0175996944 -0.0666779578 0.0815000013 0.0340000018 -0.059884727 0.0815000013 0.0480832607 -0.0490782596 0.0815000013 0.058889728 -0.0349950008 0.0815000013 0.0656829551 -0.0185946953 0.0815000013 0.0560236983 0.0140165044 0.0815000013 0.0579999983 -0.000995000009 0.0815000013 0.0502294749 0.0280050002 0.0815000013 0.041012194 0.040017195 0.0815000013 0.0289999992 0.0492344722 0.0815000013 0.0150115043 0.0550286993 0.0815000013 3.55147556e-18 0.0570049994 0.0815000013 -0.0150115043 0.0550286993 0.0815000013 -0.0289999992 0.0492344722 0.0815000013 -0.041012194 0.040017195 0.0815000013 -0.0502294749 0.0280050002 0.0815000013 -0.0560236983 0.0140165044 0.0815000013 -0.0579999983 -0.000995000009 0.0815000013 -0.0560236983 -0.0160065051 0.0815000013 -0.0502294749 -0.029995 0.0815000013 -0.041012194 -0.042007193 0.0815000013 -0.0289999992 -0.0512244739 0.0815000013 -0.0150115043 -0.0570186973 0.0815000013 -1.06544271e-17 -0.058995001 0.0815000013 0.0150115043 -0.0570186973 0.0815000013 0.0289999992 -0.0512244739 0.0815000013 0.041012194 -0.042007193 0.0815000013 0.0502294749 -0.029995 0.0815000013 0.0560236983 -0.0160065051 0.0815000013 0.0560236983 0.0140165044 0.0810000002 0.0579999983 -0.000995000009 0.0810000002 0.0502294749 0.0280050002 0.0810000002 0.041012194 0.040017195 0.0810000002 0.0289999992 0.0492344722 0.0810000002 0.0150115043 0.0550286993 0.0810000002 3.55147556e-18 0.0570049994 0.0810000002 -0.0150115043 0.0550286993 0.0810000002 -0.0289999992 0.0492344722 0.0810000002 -0.041012194 0.040017195 0.0810000002 -0.0502294749 0.0280050002 0.0810000002 -0.0560236983 0.0140165044 0.0810000002 -0.0579999983 -0.000995000009 0.0810000002 -0.0560236983 -0.0160065051 0.0810000002 -0.0502294749 -0.029995 0.0810000002 -0.041012194 -0.042007193 0.0810000002 -0.0289999992 -0.0512244739 0.0810000002 -0.0150115043 -0.0570186973 0.0810000002 -1.06544271e-17 -0.058995001 0.0810000002 0.0150115043 -0.0570186973 0.0810000002 0.0289999992 -0.0512244739 0.0810000002 0.041012194 -0.042007193 0.0810000002 0.0502294749 -0.029995 0.0810000002 0.0560236983 -0.0160065051 0.0810000002 0.0115911104 0.00211082865 0.0810000002 0.0120000001 -0.000995000009 0.0810000002 0.0103923045 0.00500500016 0.0810000002 0.00848528091 0.00749028148 0.0810000002 0.00600000005 0.00939730462 0.0810000002 0.00310582854 0.0105961096 0.0810000002 7.34788054e-19 0.0110050002 0.0810000002 -0.00310582854 0.0105961096 0.0810000002 -0.00600000005 0.00939730462 0.0810000002 -0.00848528091 0.00749028148 0.0810000002 -0.0103923045 0.00500500016 0.0810000002 -0.0115911104 0.00211082865 0.0810000002 -0.0120000001 -0.000995000009 0.0810000002 -0.0115911104 -0.00410082843 0.0810000002 -0.0103923045 -0.00699499995 0.0810000002 -0.00848528091 -0.00948028173 0.0810000002 -0.00600000005 -0.0113873044 0.0810000002 -0.00310582854 -0.0125861103 0.0810000002 -2.20436416e-18 -0.012995 0.0810000002 0.00310582854 -0.0125861103 0.0810000002 0.00600000005 -0.0113873044 0.0810000002 0.00848528091 -0.00948028173 0.0810000002 0.0103923045 -0.00699499995 0.0810000002 0.0115911104 -0.00410082843 0.0810000002 0.0115911104 0.00211082865 0.0850050002 0.0120000001 -0.000995000009 0.0850050002 0.0103923045 0.00500500016 0.0850050002 0.00848528091 0.00749028148 0.0850050002 0.00600000005 0.00939730462 0.0850050002 0.00310582854 0.0105961096 0.0850050002 7.34788054e-19 0.0110050002 0.0850050002 -0.00310582854 0.0105961096 0.0850050002 -0.00600000005 0.00939730462 0.0850050002 -0.00848528091 0.00749028148 0.0850050002 -0.0103923045 0.00500500016 0.0850050002 -0.0115911104 0.00211082865 0.0850050002 -0.0120000001 -0.000995000009 0.0850050002 -0.0115911104 -0.00410082843 0.0850050002 -0.0103923045 -0.00699499995 0.0850050002 -0.00848528091 -0.00948028173 0.0850050002 -0.00600000005 -0.0113873044 0.0850050002 -0.00310582854 -0.0125861103 0.0850050002 -2.20436416e-18 -0.012995 0.0850050002 0.00310582854 -0.0125861103 0.0850050002 0.00600000005 -0.0113873044 0.0850050002 0.00848528091 -0.00948028173 0.0850050002 0.0103923045 -0.00699499995 0.0850050002 0.0115911104 -0.00410082843 0.0850050002</float_array>
          <technique_common>
            <accessor source="#positions_array" count="336" stride="3">
              <param name="X" type="float" />
              <param name="Y" type="float" />
              <param name="Z" type="float" />
            </accessor>
          </technique_common>
        </source>
        <source id="normals">
          <float_array id="normals_array" count="1011">-9.76116041e-08 0 -1 1 0 0 0.965925872 0.258819044 0 0.866025388 0.500000119 0 0.707106709 0.707106829 0 0.5 0.866025388 0 0.258819163 0.965925872 0 0 1 0 -0.258819163 0.965925872 0 -0.5 0.866025388 0 -0.707106709 0.707106829 0 -0.866025388 0.500000119 0 -0.965925872 0.258819044 0 -1 0 0 -0.965925872 -0.258819044 0 -0.866025388 -0.50000006 0 -0.707106769 -0.707106769 0 -0.50000006 -0.866025329 0 -0.258819103 -0.965925753 0 0 -1 0 0.258819103 -0.965925753 0 0.50000006 -0.866025329 0 0.707106769 -0.707106769 0 0.866025388 -0.50000006 0 0.965925872 -0.258819044 0 4.36523973e-09 0 -1 -3.91460803e-16 0 -1 0.0578502603 0.0155009255 -0.998204947 0.0598909818 0 -0.998204947 -4.36523884e-09 0 -1 0.0518671423 0.0299455039 -0.998204947 6.54786136e-09 0 -1 0.042349346 0.042349346 -0.998204947 -1.09130827e-09 0 -1 0.029945489 0.0518671013 -0.998204947 -3.27392913e-09 0 -1 0.015500918 0.057850223 -0.998204947 0 0 -1 0 0.0598909371 -0.998204947 3.27392913e-09 0 -1 -0.0155009245 0.0578502268 -0.998204947 1.09130827e-09 0 -1 -0.0299455002 0.0518671274 -0.998204947 -6.54786136e-09 0 -1 -0.0423493497 0.042349346 -0.998204947 4.36523884e-09 0 -1 -0.0518671349 0.0299454983 -0.998204947 1.30486934e-16 0 -1 -0.0578502603 0.0155009255 -0.998204947 -4.36523973e-09 0 -1 -0.0598909855 0 -0.998204947 -2.60973869e-16 0 -1 -0.0578502677 -0.0155009255 -0.998204947 6.54785826e-09 0 -1 -0.0518671274 -0.0299455002 -0.998204947 -4.36524195e-09 0 -1 -0.0423493348 -0.0423493348 -0.998204947 1.09130838e-09 0 -1 -0.0299454909 -0.05186712 -0.998204947 1.2004409e-08 0 -1 -0.0155009236 -0.0578502789 -0.998204947 0 -0.0598910376 -0.998204947 -1.2004409e-08 0 -1 0.0155009245 -0.0578502789 -0.998204947 -1.09130838e-09 0 -1 0.0299454927 -0.05186712 -0.998204947 4.36524195e-09 0 -1 0.0423493385 -0.0423493423 -0.998204947 0.0518671237 -0.0299455039 -0.998204947 2.18261986e-09 0 -1 0.0578502603 -0.0155009255 -0.998204947 0.373672426 0.100125283 -0.922140896 0.386854231 -3.72329656e-09 -0.922140896 0.335025519 0.193427131 -0.922140896 0.273547351 0.273547322 -0.922140777 0.193427294 0.335025847 -0.922140777 0.100125261 0.373672515 -0.922140777 -2.48219778e-09 0.386854053 -0.922140956 -0.100125201 0.373672396 -0.922140956 -0.193427086 0.335025519 -0.922140956 -0.273547232 0.273547173 -0.922140956 -0.335025519 0.193427131 -0.922140896 -0.373672485 0.10012529 -0.922140896 -0.386854231 -2.48219778e-09 -0.922140896 -0.373672515 -0.100125298 -0.922140777 -0.335025519 -0.193427101 -0.922140956 -0.273547024 -0.273546994 -0.922140956 -0.193427071 -0.335025609 -0.922140896 -0.100125231 -0.373672396 -0.922140956 2.48219734e-09 -0.386853755 -0.922141075 0.100125216 -0.373672366 -0.922140896 0.193427071 -0.335025609 -0.922140896 0.273547113 -0.273547053 -0.922140956 0.335025519 -0.193427101 -0.922140896 0.373672485 -0.10012529 -0.922140896 0.685836256 0.183769494 -0.704171419 0.712224722 -3.6419916e-09 -0.701951623 0.6168046 0.356112361 -0.701951563 0.502067149 0.502067089 -0.7041713 0.35611257 0.616804957 -0.701951265 0.183769375 0.685836434 -0.70417124 -1.21399701e-09 0.712224603 -0.701951623 -0.18376933 0.685836375 -0.70417136 -0.356112361 0.616804659 -0.701951563 -0.502067029 0.50206691 -0.704171479 -0.616804719 0.356112391 -0.701951563 -0.685836256 0.183769479 -0.704171479 -0.712224722 -1.21399724e-09 -0.701951623 -0.685836375 -0.183769539 -0.70417136 -0.616804719 -0.356112331 -0.701951504 -0.502067029 -0.50206691 -0.704171538 -0.356112331 -0.616804719 -0.701951563 -0.183769271 -0.685836434 -0.7041713 1.21399724e-09 -0.712224722 -0.701951504 0.183769271 -0.685836434 -0.7041713 0.356112301 -0.616804719 -0.701951504 0.502067029 -0.50206691 -0.704171538 0.616804779 -0.356112391 -0.701951504 0.685836256 -0.183769509 -0.704171419 0.879478872 0.235655949 -0.413501203 0.908071697 -1.219851e-09 -0.418814689 0.786413133 0.454035968 -0.418814659 0.643823266 0.643823206 -0.413501173 0.454035938 0.786413193 -0.418814421 0.235655785 0.879479051 -0.413500965 0 0.908071816 -0.41881451 -0.235655814 0.879478931 -0.413500935 -0.454035968 0.786413193 -0.41881448 -0.643823326 0.643823147 -0.413501292 -0.786413133 0.454035938 -0.418814689 -0.879478872 0.235655949 -0.413501203 -0.908071697 0 -0.418814719 -0.879478872 -0.235655978 -0.413501203 -0.786413193 -0.454035938 -0.41881457 -0.643823385 -0.643823266 -0.413500935 -0.454035908 -0.786413193 -0.4188146 -0.235655606 -0.879478991 -0.413501203 0 -0.908071876 -0.418814272 0.235655606 -0.879478991 -0.413501143 0.454035848 -0.786413193 -0.418814689 0.643823385 -0.643823266 -0.413501024 0.786413193 -0.454035938 -0.418814659 0.879478812 -0.235655978 -0.413501173 0.959884584 0.25720048 -0.111666664 0.993893623 2.43050957e-09 -0.110342868 0.860737085 0.496946812 -0.110342935 0.702684402 0.702684283 -0.111666642 0.496946722 0.860737145 -0.110342801 0.25720033 0.959884703 -0.111666545 -2.43050957e-09 0.993893623 -0.110342801 -0.25720039 0.959884703 -0.111666553 -0.496946782 0.860737145 -0.110342868 -0.702684402 0.702684224 -0.111666746 -0.860737085 0.496946812 -0.110342994 -0.959884584 0.257200509 -0.111666664 -0.993893623 0 -0.110342868 -0.959884584 -0.25720048 -0.111666672 -0.860737085 -0.496946812 -0.11034295 -0.702684402 -0.702684283 -0.111666523 -0.496946722 -0.860737145 -0.11034292 -0.257200271 -0.959884703 -0.111666888 0 -0.993893564 -0.110343009 0.257200271 -0.959884584 -0.111666873 0.496946722 -0.860737085 -0.110343039 0.702684402 -0.702684283 -0.111666642 0.860737085 -0.496946812 -0.110342957 0.959884584 -0.25720045 -0.111666679 0.936622381 0.250967175 0.244446546 0.970193923 -7.54876694e-09 0.24232991 0.840212643 0.485096961 0.242329895 0.685654998 0.685655177 0.244446546 0.485096842 0.840212643 0.242329895 0.250967205 0.936622322 0.244446531 0 0.970193923 0.242329791 -0.250967205 0.936622322 0.244446546 -0.485096842 0.840212643 0.242329895 -0.685654998 0.685655177 0.244446546 -0.840212643 0.485096961 0.242329895 -0.936622322 0.250967145 0.244446546 -0.970193923 -7.54876783e-09 0.242329925 -0.936622322 -0.250967145 0.244446576 -0.840212643 -0.485096961 0.24232991 -0.685654998 -0.685655236 0.244446516 -0.485096872 -0.840212643 0.242329851 -0.250967234 -0.936622322 0.244446412 -2.26462991e-08 -0.970193982 0.242329627 0.250967234 -0.936622322 0.244446412 0.485096931 -0.840212703 0.242329955 0.685654998 -0.685655177 0.244446591 0.840212643 -0.485096961 0.242329925 0.936622322 -0.250967145 0.244446605 0.856476843 0.229492307 0.462364256 0.889593244 -1.89949887e-08 0.456753641 0.770410299 0.444796622 0.456753641 0.626984477 0.626984596 0.462364346 0.444796503 0.770410538 0.456753403 0.229492396 0.856476903 0.462364078 2.01821759e-08 0.889593244 0.456753612 -0.229492411 0.856476903 0.462364078 -0.444796532 0.770410538 0.456753343 -0.626984537 0.626984596 0.462364256 -0.770410359 0.444796622 0.456753641 -0.856476843 0.229492307 0.462364346 -0.889593244 -1.78078015e-08 0.456753701 -0.856476784 -0.229492307 0.462364376 -0.770410359 -0.444796622 0.456753641 -0.626984537 -0.626984596 0.462364286 -0.444796711 -0.770410299 0.456753641 -0.229492396 -0.856476843 0.462364227 -2.25565486e-08 -0.889593363 0.456753463 0.229492307 -0.856476843 0.462364227 0.444796622 -0.770410299 0.456753761 0.626984477 -0.626984537 0.462364405 0.770410299 -0.444796622 0.456753641 0.856476724 -0.229492337 0.462364435 0.868220508 0.232639283 0.438260406 0.900987506 -2.07885513e-08 0.433844954 0.780278146 0.450493634 0.433844984 0.635581613 0.635581434 0.438260436 0.450493723 0.780278325 0.433844537 0.232639089 0.868220747 0.438259959 4.15771026e-08 0.900987446 0.433845103 -0.232639119 0.868220747 0.438259929 -0.450493872 0.780278325 0.433844388 -0.635581732 0.635581493 0.438260317 -0.780278146 0.450493634 0.433845013 -0.868220448 0.232639238 0.438260436 -0.900987506 -2.07885513e-08 0.433844984 -0.868220448 -0.232639283 0.438260525 -0.780278206 -0.450493634 0.433844924 -0.635581672 -0.635581493 0.438260406 -0.450493872 -0.780277967 0.433845013 -0.232639119 -0.868220448 0.438260436 0 -0.900987506 0.433845103 0.232639059 -0.868220508 0.438260466 0.450493783 -0.780277908 0.433845162 0.635581613 -0.635581374 0.438260525 0.780278206 -0.450493634 0.433844924 0.868220448 -0.232639283 0.438260525 3.94764855e-14 0 1 1.18429436e-13 0 1 3.34046552e-14 0 1 3.34046586e-14 0 1 3.56979626e-07 0 1 3.56979598e-07 0 1 1.78489771e-07 0 1 8.92449918e-08 0 1 8.92449563e-08 0 1 -8.92447858e-08 0 1 -8.92447929e-08 0 1 0 0 1 8.92448213e-08 0 1 8.92448284e-08 0 1 -8.92450132e-08 0 1 -8.92449918e-08 0 1 -1.78489842e-07 0 1 -3.56979626e-07 0 1 -3.56979598e-07 0 1 -1.18429436e-13 0 1 -3.34046552e-14 0 1 -3.94764855e-14 0 1 -3.34046586e-14 0 1 -3.56979541e-07 0 1 -4.46224568e-08 0 1 -4.46224533e-08 0 1 4.46224568e-08 0 1 4.46224533e-08 0 1 3.56979541e-07 0 1 -0.965926468 -0.258816808 0 -0.866027534 -0.499996364 0 -0.70710808 -0.707105398 0 -0.500001192 -0.866024673 0 -0.258820087 -0.965925515 0 0.258820087 -0.965925515 0 0.500001192 -0.866024673 0 0.70710808 -0.707105398 0 0.866027534 -0.499996364 0 0.965926468 -0.258816808 0 0.965925694 0.258819669 0 0.866024852 0.500000894 0 0.707106471 0.707107067 0 0.499999642 0.866025627 0 0.258819282 0.965925753 0 -0.258819282 0.965925753 0 -0.499999642 0.866025627 0 -0.707106471 0.707107067 0 -0.866024852 0.500000894 0 -0.965925694 0.258819669 0 -6.98438356e-08 0 1 3.49219214e-08 0 1 1.39687629e-07 0 1 1.39687643e-07 0 1 3.49218858e-08 0 1 3.49218716e-08 0 1 -5.23828838e-08 0 1 -5.23828874e-08 0 1 -3.7009203e-15 0 1 7.40184061e-15 0 1 3.13168685e-15 0 1 5.23828874e-08 0 1 5.23828909e-08 0 1 -3.49218858e-08 0 1 -3.49218716e-08 0 1 -1.39687629e-07 0 1 -1.39687643e-07 0 1 -3.49219249e-08 0 1 6.98438356e-08 0 1 3.49219249e-08 0 1 1.04765732e-07 0 1 1.04765739e-07 0 1 -3.14297296e-07 0 1 -3.14297324e-07 0 1 -5.67481209e-07 0 1 -5.67481152e-07 0 1 2.7501008e-07 0 1 -2.7501008e-07 0 1 5.67481095e-07 0 1 3.1429721e-07 0 1 -1.74609582e-07 0 1 -1.74609568e-07 0 1 -1.04765753e-07 0 1 0.965925872 0.258819163 0 0.707106888 0.707106709 0 0.500000119 0.866025329 0 -0.500000119 0.866025329 0 -0.707106888 0.707106709 0 -0.965925872 0.258819163 0 -0.965925872 -0.258819163 0 -0.866025388 -0.500000119 0 -0.707106471 -0.707107008 0 -0.499999732 -0.866025567 0 -0.258819014 -0.965925872 0 0.258819014 -0.965925872 0 0.499999732 -0.866025567 0 0.707106471 -0.707107008 0 0.866025388 -0.500000119 0 0.965925872 -0.258819163 0</float_array>
          <technique_common>
            <accessor source="#normals_array" count="337" stride="3">
              <param name="X" type="float" />
              <param name="Y" type="float" />
              <param name="Z" type="float" />
            </accessor>
          </technique_common>
        </source>
        <vertices id="vertices">
          <input semantic="POSITION" source="#positions" />
        </vertices>
        <triangles material="scout_383b3b" count="288">
          <input semantic="VERTEX" source="#vertices" offset="0" />
          <input semantic="NORMAL" source="#normals" offset="1" />
          <input semantic="TEXCOORD" source="#atlas_uv" offset="2" set="0" />
          <p>73 72 498 72 71 499 96 95 500 73 72 501 96 95 502 97 96 503 72 71 504 74 73 505 98 97 506 72 71 507 98 97 508 96 95 509 74 73 510 75 74 511 99 98 512 74 73 513 99 98 514 98 97 515 75 74 516 76 75 517 100 99 518 75 74 519 100 99 520 99 98 521 76 75 522 77 76 523 101 100 524 76 75 525 101 100 526 100 99 527 77 76 528 78 77 529 102 101 530 77 76 531 102 101 532 101 100 533 78 77 534 79 78 535 103 102 536 78 77 537 103 102 538 102 101 539 79 78 540 80 79 541 104 103 542 79 78 543 104 103 544 103 102 545 80 79 546 81 80 547 105 104 548 80 79 549 105 104 550 104 103 551 81 80 552 82 81 553 106 105 554 81 80 555 106 105 556 105 104 557 82 81 558 83 82 559 107 106 560 82 81 561 107 106 562 106 105 563 83 82 564 84 83 565 108 107 566 83 82 567 108 107 568 107 106 569 84 83 570 85 84 571 109 108 572 84 83 573 109 108 574 108 107 575 85 84 576 86 85 577 110 109 578 85 84 579 110 109 580 109 108 581 86 85 582 87 86 583 111 110 584 86 85 585 111 110 586 110 109 587 87 86 588 88 87 589 112 111 590 87 86 591 112 111 592 111 110 593 88 87 594 89 88 595 113 112 596 88 87 597 113 112 598 112 111 599 89 88 600 90 89 601 114 113 602 89 88 603 114 113 604 113 112 605 90 89 606 91 90 607 115 114 608 90 89 609 115 114 610 114 113 611 91 90 612 92 91 613 116 115 614 91 90 615 116 115 616 115 114 617 92 91 618 93 92 619 117 116 620 92 91 621 117 116 622 116 115 623 93 92 624 94 93 625 118 117 626 93 92 627 118 117 628 117 116 629 94 93 630 95 94 631 119 118 632 94 93 633 119 118 634 118 117 635 95 94 636 73 72 637 97 96 638 95 94 639 97 96 640 119 118 641 97 96 642 96 95 643 120 119 644 97 96 645 120 119 646 121 120 647 96 95 648 98 97 649 122 121 650 96 95 651 122 121 652 120 119 653 98 97 654 99 98 655 123 122 656 98 97 657 123 122 658 122 121 659 99 98 660 100 99 661 124 123 662 99 98 663 124 123 664 123 122 665 100 99 666 101 100 667 125 124 668 100 99 669 125 124 670 124 123 671 101 100 672 102 101 673 126 125 674 101 100 675 126 125 676 125 124 677 102 101 678 103 102 679 127 126 680 102 101 681 127 126 682 126 125 683 103 102 684 104 103 685 128 127 686 103 102 687 128 127 688 127 126 689 104 103 690 105 104 691 129 128 692 104 103 693 129 128 694 128 127 695 105 104 696 106 105 697 130 129 698 105 104 699 130 129 700 129 128 701 106 105 702 107 106 703 131 130 704 106 105 705 131 130 706 130 129 707 107 106 708 108 107 709 132 131 710 107 106 711 132 131 712 131 130 713 108 107 714 109 108 715 133 132 716 108 107 717 133 132 718 132 131 719 109 108 720 110 109 721 134 133 722 109 108 723 134 133 724 133 132 725 110 109 726 111 110 727 135 134 728 110 109 729 135 134 730 134 133 731 111 110 732 112 111 733 136 135 734 111 110 735 136 135 736 135 134 737 112 111 738 113 112 739 137 136 740 112 111 741 137 136 742 136 135 743 113 112 744 114 113 745 138 137 746 113 112 747 138 137 748 137 136 749 114 113 750 115 114 751 139 138 752 114 113 753 139 138 754 138 137 755 115 114 756 116 115 757 140 139 758 115 114 759 140 139 760 139 138 761 116 115 762 117 116 763 141 140 764 116 115 765 141 140 766 140 139 767 117 116 768 118 117 769 142 141 770 117 116 771 142 141 772 141 140 773 118 117 774 119 118 775 143 142 776 118 117 777 143 142 778 142 141 779 119 118 780 97 96 781 121 120 782 119 118 783 121 120 784 143 142 785 121 120 786 120 119 787 144 143 788 121 120 789 144 143 790 145 144 791 120 119 792 122 121 793 146 145 794 120 119 795 146 145 796 144 143 797 122 121 798 123 122 799 147 146 800 122 121 801 147 146 802 146 145 803 123 122 804 124 123 805 148 147 806 123 122 807 148 147 808 147 146 809 124 123 810 125 124 811 149 148 812 124 123 813 149 148 814 148 147 815 125 124 816 126 125 817 150 149 818 125 124 819 150 149 820 149 148 821 126 125 822 127 126 823 151 150 824 126 125 825 151 150 826 150 149 827 127 126 828 128 127 829 152 151 830 127 126 831 152 151 832 151 150 833 128 127 834 129 128 835 153 152 836 128 127 837 153 152 838 152 151 839 129 128 840 130 129 841 154 153 842 129 128 843 154 153 844 153 152 845 130 129 846 131 130 847 155 154 848 130 129 849 155 154 850 154 153 851 131 130 852 132 131 853 156 155 854 131 130 855 156 155 856 155 154 857 132 131 858 133 132 859 157 156 860 132 131 861 157 156 862 156 155 863 133 132 864 134 133 865 158 157 866 133 132 867 158 157 868 157 156 869 134 133 870 135 134 871 159 158 872 134 133 873 159 158 874 158 157 875 135 134 876 136 135 877 160 159 878 135 134 879 160 159 880 159 158 881 136 135 882 137 136 883 161 160 884 136 135 885 161 160 886 160 159 887 137 136 888 138 137 889 162 161 890 137 136 891 162 161 892 161 160 893 138 137 894 139 138 895 163 162 896 138 137 897 163 162 898 162 161 899 139 138 900 140 139 901 164 163 902 139 138 903 164 163 904 163 162 905 140 139 906 141 140 907 165 164 908 140 139 909 165 164 910 164 163 911 141 140 912 142 141 913 166 165 914 141 140 915 166 165 916 165 164 917 142 141 918 143 142 919 167 166 920 142 141 921 167 166 922 166 165 923 143 142 924 121 120 925 145 144 926 143 142 927 145 144 928 167 166 929 145 144 930 144 143 931 168 167 932 145 144 933 168 167 934 169 168 935 144 143 936 146 145 937 170 169 938 144 143 939 170 169 940 168 167 941 146 145 942 147 146 943 171 170 944 146 145 945 171 170 946 170 169 947 147 146 948 148 147 949 172 171 950 147 146 951 172 171 952 171 170 953 148 147 954 149 148 955 173 172 956 148 147 957 173 172 958 172 171 959 149 148 960 150 149 961 174 173 962 149 148 963 174 173 964 173 172 965 150 149 966 151 150 967 175 174 968 150 149 969 175 174 970 174 173 971 151 150 972 152 151 973 176 175 974 151 150 975 176 175 976 175 174 977 152 151 978 153 152 979 177 176 980 152 151 981 177 176 982 176 175 983 153 152 984 154 153 985 178 177 986 153 152 987 178 177 988 177 176 989 154 153 990 155 154 991 179 178 992 154 153 993 179 178 994 178 177 995 155 154 996 156 155 997 180 179 998 155 154 999 180 179 1000 179 178 1001 156 155 1002 157 156 1003 181 180 1004 156 155 1005 181 180 1006 180 179 1007 157 156 1008 158 157 1009 182 181 1010 157 156 1011 182 181 1012 181 180 1013 158 157 1014 159 158 1015 183 182 1016 158 157 1017 183 182 1018 182 181 1019 159 158 1020 160 159 1021 184 183 1022 159 158 1023 184 183 1024 183 182 1025 160 159 1026 161 160 1027 185 184 1028 160 159 1029 185 184 1030 184 183 1031 161 160 1032 162 161 1033 186 185 1034 161 160 1035 186 185 1036 185 184 1037 162 161 1038 163 162 1039 187 186 1040 162 161 1041 187 186 1042 186 185 1043 163 162 1044 164 163 1045 188 187 1046 163 162 1047 188 187 1048 187 186 1049 164 163 1050 165 164 1051 189 188 1052 164 163 1053 189 188 1054 188 187 1055 165 164 1056 166 165 1057 190 189 1058 165 164 1059 190 189 1060 189 188 1061 166 165 1062 167 166 1063 191 190 1064 166 165 1065 191 190 1066 190 189 1067 167 166 1068 145 144 1069 169 168 1070 167 166 1071 169 168 1072 191 190 1073 169 168 1074 168 167 1075 192 191 1076 169 168 1077 192 191 1078 193 192 1079 168 167 1080 170 169 1081 194 193 1082 168 167 1083 194 193 1084 192 191 1085 170 169 1086 171 170 1087 195 194 1088 170 169 1089 195 194 1090 194 193 1091 171 170 1092 172 171 1093 196 195 1094 171 170 1095 196 195 1096 195 194 1097 172 171 1098 173 172 1099 197 196 1100 172 171 1101 197 196 1102 196 195 1103 173 172 1104 174 173 1105 198 197 1106 173 172 1107 198 197 1108 197 196 1109 174 173 1110 175 174 1111 199 198 1112 174 173 1113 199 198 1114 198 197 1115 175 174 1116 176 175 1117 200 199 1118 175 174 1119 200 199 1120 199 198 1121 176 175 1122 177 176 1123 201 200 1124 176 175 1125 201 200 1126 200 199 1127 177 176 1128 178 177 1129 202 201 1130 177 176 1131 202 201 1132 201 200 1133 178 177 1134 179 178 1135 203 202 1136 178 177 1137 203 202 1138 202 201 1139 179 178 1140 180 179 1141 204 203 1142 179 178 1143 204 203 1144 203 202 1145 180 179 1146 181 180 1147 205 204 1148 180 179 1149 205 204 1150 204 203 1151 181 180 1152 182 181 1153 206 205 1154 181 180 1155 206 205 1156 205 204 1157 182 181 1158 183 182 1159 207 206 1160 182 181 1161 207 206 1162 206 205 1163 183 182 1164 184 183 1165 208 207 1166 183 182 1167 208 207 1168 207 206 1169 184 183 1170 185 184 1171 209 208 1172 184 183 1173 209 208 1174 208 207 1175 185 184 1176 186 185 1177 210 209 1178 185 184 1179 210 209 1180 209 208 1181 186 185 1182 187 186 1183 211 210 1184 186 185 1185 211 210 1186 210 209 1187 187 186 1188 188 187 1189 212 211 1190 187 186 1191 212 211 1192 211 210 1193 188 187 1194 189 188 1195 213 212 1196 188 187 1197 213 212 1198 212 211 1199 189 188 1200 190 189 1201 214 213 1202 189 188 1203 214 213 1204 213 212 1205 190 189 1206 191 190 1207 215 214 1208 190 189 1209 215 214 1210 214 213 1211 191 190 1212 169 168 1213 193 192 1214 191 190 1215 193 192 1216 215 214 1217 193 192 1218 192 191 1219 216 215 1220 193 192 1221 216 215 1222 217 216 1223 192 191 1224 194 193 1225 218 217 1226 192 191 1227 218 217 1228 216 215 1229 194 193 1230 195 194 1231 219 218 1232 194 193 1233 219 218 1234 218 217 1235 195 194 1236 196 195 1237 220 219 1238 195 194 1239 220 219 1240 219 218 1241 196 195 1242 197 196 1243 221 220 1244 196 195 1245 221 220 1246 220 219 1247 197 196 1248 198 197 1249 222 221 1250 197 196 1251 222 221 1252 221 220 1253 198 197 1254 199 198 1255 223 222 1256 198 197 1257 223 222 1258 222 221 1259 199 198 1260 200 199 1261 224 223 1262 199 198 1263 224 223 1264 223 222 1265 200 199 1266 201 200 1267 225 224 1268 200 199 1269 225 224 1270 224 223 1271 201 200 1272 202 201 1273 226 225 1274 201 200 1275 226 225 1276 225 224 1277 202 201 1278 203 202 1279 227 226 1280 202 201 1281 227 226 1282 226 225 1283 203 202 1284 204 203 1285 228 227 1286 203 202 1287 228 227 1288 227 226 1289 204 203 1290 205 204 1291 229 228 1292 204 203 1293 229 228 1294 228 227 1295 205 204 1296 206 205 1297 230 229 1298 205 204 1299 230 229 1300 229 228 1301 206 205 1302 207 206 1303 231 230 1304 206 205 1305 231 230 1306 230 229 1307 207 206 1308 208 207 1309 232 231 1310 207 206 1311 232 231 1312 231 230 1313 208 207 1314 209 208 1315 233 232 1316 208 207 1317 233 232 1318 232 231 1319 209 208 1320 210 209 1321 234 233 1322 209 208 1323 234 233 1324 233 232 1325 210 209 1326 211 210 1327 235 234 1328 210 209 1329 235 234 1330 234 233 1331 211 210 1332 212 211 1333 236 235 1334 211 210 1335 236 235 1336 235 234 1337 212 211 1338 213 212 1339 237 236 1340 212 211 1341 237 236 1342 236 235 1343 213 212 1344 214 213 1345 238 237 1346 213 212 1347 238 237 1348 237 236 1349 214 213 1350 215 214 1351 239 238 1352 214 213 1353 239 238 1354 238 237 1355 215 214 1356 193 192 1357 217 216 1358 215 214 1359 217 216 1360 239 238 1361</p>
        </triangles>
        <triangles material="scout_b01424" count="144">
          <input semantic="VERTEX" source="#vertices" offset="0" />
          <input semantic="NORMAL" source="#normals" offset="1" />
          <input semantic="TEXCOORD" source="#atlas_uv" offset="2" set="0" />
          <p>25 25 210 24 26 211 48 27 212 25 25 213 48 27 214 49 28 215 24 26 216 26 29 217 50 30 218 24 26 219 50 30 220 48 27 221 26 29 222 27 31 223 51 32 224 26 29 225 51 32 226 50 30 227 27 31 228 28 33 229 52 34 230 27 31 231 52 34 232 51 32 233 28 33 234 29 35 235 53 36 236 28 33 237 53 36 238 52 34 239 29 35 240 30 37 241 54 38 242 29 35 243 54 38 244 53 36 245 30 37 246 31 39 247 55 40 248 30 37 249 55 40 250 54 38 251 31 39 252 32 41 253 56 42 254 31 39 255 56 42 256 55 40 257 32 41 258 33 43 259 57 44 260 32 41 261 57 44 262 56 42 263 33 43 264 34 45 265 58 46 266 33 43 267 58 46 268 57 44 269 34 45 270 35 47 271 59 48 272 34 45 273 59 48 274 58 46 275 35 47 276 36 49 277 60 50 278 35 47 279 60 50 280 59 48 281 36 49 282 37 51 283 61 52 284 36 49 285 61 52 286 60 50 287 37 51 288 38 53 289 62 54 290 37 51 291 62 54 292 61 52 293 38 53 294 39 55 295 63 56 296 38 53 297 63 56 298 62 54 299 39 55 300 40 57 301 64 58 302 39 55 303 64 58 304 63 56 305 40 57 306 41 59 307 65 60 308 40 57 309 65 60 310 64 58 311 41 59 312 42 37 313 66 61 314 41 59 315 66 61 316 65 60 317 42 37 318 43 62 319 67 63 320 42 37 321 67 63 322 66 61 323 43 62 324 44 64 325 68 65 326 43 62 327 68 65 328 67 63 329 44 64 330 45 66 331 69 67 332 44 64 333 69 67 334 68 65 335 45 66 336 46 29 337 70 68 338 45 66 339 70 68 340 69 67 341 46 29 342 47 69 343 71 70 344 46 29 345 71 70 346 70 68 347 47 69 348 25 25 349 49 28 350 47 69 351 49 28 352 71 70 353 241 13 1506 240 268 1507 264 268 1508 241 13 1509 264 268 1510 265 13 1511 240 268 1512 242 269 1513 266 269 1514 240 268 1515 266 269 1516 264 268 1517 242 269 1518 243 270 1519 267 270 1520 242 269 1521 267 270 1522 266 269 1523 243 270 1524 244 271 1525 268 271 1526 243 270 1527 268 271 1528 267 270 1529 244 271 1530 245 272 1531 269 272 1532 244 271 1533 269 272 1534 268 271 1535 245 272 1536 246 19 1537 270 19 1538 245 272 1539 270 19 1540 269 272 1541 246 19 1542 247 273 1543 271 273 1544 246 19 1545 271 273 1546 270 19 1547 247 273 1548 248 274 1549 272 274 1550 247 273 1551 272 274 1552 271 273 1553 248 274 1554 249 275 1555 273 275 1556 248 274 1557 273 275 1558 272 274 1559 249 275 1560 250 276 1561 274 276 1562 249 275 1563 274 276 1564 273 275 1565 250 276 1566 251 277 1567 275 277 1568 250 276 1569 275 277 1570 274 276 1571 251 277 1572 252 1 1573 276 1 1574 251 277 1575 276 1 1576 275 277 1577 252 1 1578 253 278 1579 277 278 1580 252 1 1581 277 278 1582 276 1 1583 253 278 1584 254 279 1585 278 279 1586 253 278 1587 278 279 1588 277 278 1589 254 279 1590 255 280 1591 279 280 1592 254 279 1593 279 280 1594 278 279 1595 255 280 1596 256 281 1597 280 281 1598 255 280 1599 280 281 1600 279 280 1601 256 281 1602 257 282 1603 281 282 1604 256 281 1605 281 282 1606 280 281 1607 257 282 1608 258 7 1609 282 7 1610 257 282 1611 282 7 1612 281 282 1613 258 7 1614 259 283 1615 283 283 1616 258 7 1617 283 283 1618 282 7 1619 259 283 1620 260 284 1621 284 284 1622 259 283 1623 284 284 1624 283 283 1625 260 284 1626 261 285 1627 285 285 1628 260 284 1629 285 285 1630 284 284 1631 261 285 1632 262 286 1633 286 286 1634 261 285 1635 286 286 1636 285 285 1637 262 286 1638 263 287 1639 287 287 1640 262 286 1641 287 287 1642 286 286 1643 263 287 1644 241 13 1645 265 13 1646 263 287 1647 265 13 1648 287 287 1649 265 288 1650 264 289 1651 288 289 1652 265 288 1653 288 289 1654 289 288 1655 264 289 1656 266 290 1657 290 291 1658 264 289 1659 290 291 1660 288 289 1661 266 290 1662 267 292 1663 291 293 1664 266 290 1665 291 293 1666 290 291 1667 267 292 1668 268 294 1669 292 295 1670 267 292 1671 292 295 1672 291 293 1673 268 294 1674 269 296 1675 293 250 1676 268 294 1677 293 250 1678 292 295 1679 269 296 1680 270 250 1681 294 250 1682 269 296 1683 294 250 1684 293 250 1685 270 250 1686 271 297 1687 295 298 1688 270 250 1689 295 298 1690 294 250 1691 271 297 1692 272 299 1693 296 300 1694 271 297 1695 296 300 1696 295 298 1697 272 299 1698 273 301 1699 297 302 1700 272 299 1701 297 302 1702 296 300 1703 273 301 1704 274 303 1705 298 304 1706 273 301 1707 298 304 1708 297 302 1709 274 303 1710 275 305 1711 299 305 1712 274 303 1713 299 305 1714 298 304 1715 275 305 1716 276 306 1717 300 306 1718 275 305 1719 300 306 1720 299 305 1721 276 306 1722 277 307 1723 301 289 1724 276 306 1725 301 289 1726 300 306 1727 277 307 1728 278 308 1729 302 309 1730 277 307 1731 302 309 1732 301 289 1733 278 308 1734 279 310 1735 303 311 1736 278 308 1737 303 311 1738 302 309 1739 279 310 1740 280 312 1741 304 313 1742 279 310 1743 304 313 1744 303 311 1745 280 312 1746 281 314 1747 305 314 1748 280 312 1749 305 314 1750 304 313 1751 281 314 1752 282 250 1753 306 250 1754 281 314 1755 306 250 1756 305 314 1757 282 250 1758 283 315 1759 307 315 1760 282 250 1761 307 315 1762 306 250 1763 283 315 1764 284 316 1765 308 316 1766 283 315 1767 308 316 1768 307 315 1769 284 316 1770 285 317 1771 309 317 1772 284 316 1773 309 317 1774 308 316 1775 285 317 1776 286 318 1777 310 319 1778 285 317 1779 310 319 1780 309 317 1781 286 318 1782 287 320 1783 311 320 1784 286 318 1785 311 320 1786 310 319 1787 287 320 1788 265 288 1789 289 288 1790 287 320 1791 289 288 1792 311 320 1793</p>
        </triangles>
        <triangles material="scout_b8bab5" count="236">
          <input semantic="VERTEX" source="#vertices" offset="0" />
          <input semantic="NORMAL" source="#normals" offset="1" />
          <input semantic="TEXCOORD" source="#atlas_uv" offset="2" set="0" />
          <p>0 0 0 1 0 1 2 0 2 2 0 3 3 0 4 4 0 5 4 0 6 5 0 7 6 0 8 6 0 9 7 0 10 8 0 11 8 0 12 9 0 13 10 0 14 10 0 15 11 0 16 12 0 17 12 0 18 13 0 19 14 0 20 14 0 21 15 0 22 16 0 23 16 0 24 17 0 25 18 0 26 18 0 27 19 0 28 20 0 29 20 0 30 21 0 31 22 0 32 22 0 33 23 0 34 0 0 35 0 0 36 2 0 37 4 0 38 4 0 39 6 0 40 8 0 41 8 0 42 10 0 43 12 0 44 12 0 45 14 0 46 16 0 47 16 0 48 18 0 49 20 0 50 20 0 51 22 0 52 0 0 53 0 0 54 4 0 55 8 0 56 8 0 57 12 0 58 16 0 59 16 0 60 20 0 61 0 0 62 8 0 63 16 0 64 0 0 65 0 1 66 23 2 67 24 2 68 0 1 69 24 2 70 25 1 71 23 2 72 22 3 73 26 3 74 23 2 75 26 3 76 24 2 77 22 3 78 21 4 79 27 4 80 22 3 81 27 4 82 26 3 83 21 4 84 20 5 85 28 5 86 21 4 87 28 5 88 27 4 89 20 5 90 19 6 91 29 6 92 20 5 93 29 6 94 28 5 95 19 6 96 18 7 97 30 7 98 19 6 99 30 7 100 29 6 101 18 7 102 17 8 103 31 8 104 18 7 105 31 8 106 30 7 107 17 8 108 16 9 109 32 9 110 17 8 111 32 9 112 31 8 113 16 9 114 15 10 115 33 10 116 16 9 117 33 10 118 32 9 119 15 10 120 14 11 121 34 11 122 15 10 123 34 11 124 33 10 125 14 11 126 13 12 127 35 12 128 14 11 129 35 12 130 34 11 131 13 12 132 12 13 133 36 13 134 13 12 135 36 13 136 35 12 137 12 13 138 11 14 139 37 14 140 12 13 141 37 14 142 36 13 143 11 14 144 10 15 145 38 15 146 11 14 147 38 15 148 37 14 149 10 15 150 9 16 151 39 16 152 10 15 153 39 16 154 38 15 155 9 16 156 8 17 157 40 17 158 9 16 159 40 17 160 39 16 161 8 17 162 7 18 163 41 18 164 8 17 165 41 18 166 40 17 167 7 18 168 6 19 169 42 19 170 7 18 171 42 19 172 41 18 173 6 19 174 5 20 175 43 20 176 6 19 177 43 20 178 42 19 179 5 20 180 4 21 181 44 21 182 5 20 183 44 21 184 43 20 185 4 21 186 3 22 187 45 22 188 4 21 189 45 22 190 44 21 191 3 22 192 2 23 193 46 23 194 3 22 195 46 23 196 45 22 197 2 23 198 1 24 199 47 24 200 2 23 201 47 24 202 46 23 203 1 24 204 0 1 205 25 1 206 1 24 207 25 1 208 47 24 209 49 28 354 48 27 355 72 71 356 49 28 357 72 71 358 73 72 359 48 27 360 50 30 361 74 73 362 48 27 363 74 73 364 72 71 365 50 30 366 51 32 367 75 74 368 50 30 369 75 74 370 74 73 371 51 32 372 52 34 373 76 75 374 51 32 375 76 75 376 75 74 377 52 34 378 53 36 379 77 76 380 52 34 381 77 76 382 76 75 383 53 36 384 54 38 385 78 77 386 53 36 387 78 77 388 77 76 389 54 38 390 55 40 391 79 78 392 54 38 393 79 78 394 78 77 395 55 40 396 56 42 397 80 79 398 55 40 399 80 79 400 79 78 401 56 42 402 57 44 403 81 80 404 56 42 405 81 80 406 80 79 407 57 44 408 58 46 409 82 81 410 57 44 411 82 81 412 81 80 413 58 46 414 59 48 415 83 82 416 58 46 417 83 82 418 82 81 419 59 48 420 60 50 421 84 83 422 59 48 423 84 83 424 83 82 425 60 50 426 61 52 427 85 84 428 60 50 429 85 84 430 84 83 431 61 52 432 62 54 433 86 85 434 61 52 435 86 85 436 85 84 437 62 54 438 63 56 439 87 86 440 62 54 441 87 86 442 86 85 443 63 56 444 64 58 445 88 87 446 63 56 447 88 87 448 87 86 449 64 58 450 65 60 451 89 88 452 64 58 453 89 88 454 88 87 455 65 60 456 66 61 457 90 89 458 65 60 459 90 89 460 89 88 461 66 61 462 67 63 463 91 90 464 66 61 465 91 90 466 90 89 467 67 63 468 68 65 469 92 91 470 67 63 471 92 91 472 91 90 473 68 65 474 69 67 475 93 92 476 68 65 477 93 92 478 92 91 479 69 67 480 70 68 481 94 93 482 69 67 483 94 93 484 93 92 485 70 68 486 71 70 487 95 94 488 70 68 489 95 94 490 94 93 491 71 70 492 49 28 493 73 72 494 71 70 495 73 72 496 95 94 497 217 239 1362 216 240 1363 240 241 1364 217 239 1365 240 241 1366 241 242 1367 216 240 1368 218 243 1369 242 244 1370 216 240 1371 242 244 1372 240 241 1373 218 243 1374 219 245 1375 243 245 1376 218 243 1377 243 245 1378 242 244 1379 219 245 1380 220 246 1381 244 247 1382 219 245 1383 244 247 1384 243 245 1385 220 246 1386 221 248 1387 245 249 1388 220 246 1389 245 249 1390 244 247 1391 221 248 1392 222 250 1393 246 250 1394 221 248 1395 246 250 1396 245 249 1397 222 250 1398 223 251 1399 247 252 1400 222 250 1401 247 252 1402 246 250 1403 223 251 1404 224 253 1405 248 254 1406 223 251 1407 248 254 1408 247 252 1409 224 253 1410 225 255 1411 249 255 1412 224 253 1413 249 255 1414 248 254 1415 225 255 1416 226 256 1417 250 257 1418 225 255 1419 250 257 1420 249 255 1421 226 256 1422 227 258 1423 251 259 1424 226 256 1425 251 259 1426 250 257 1427 227 258 1428 228 260 1429 252 261 1430 227 258 1431 252 261 1432 251 259 1433 228 260 1434 229 262 1435 253 262 1436 228 260 1437 253 262 1438 252 261 1439 229 262 1440 230 250 1441 254 250 1442 229 262 1443 254 250 1444 253 262 1445 230 250 1446 231 250 1447 255 250 1448 230 250 1449 255 250 1450 254 250 1451 231 250 1452 232 250 1453 256 250 1454 231 250 1455 256 250 1456 255 250 1457 232 250 1458 233 263 1459 257 264 1460 232 250 1461 257 264 1462 256 250 1463 233 263 1464 234 250 1465 258 250 1466 233 263 1467 258 250 1468 257 264 1469 234 250 1470 235 265 1471 259 266 1472 234 250 1473 259 266 1474 258 250 1475 235 265 1476 236 250 1477 260 250 1478 235 265 1479 260 250 1480 259 266 1481 236 250 1482 237 250 1483 261 250 1484 236 250 1485 261 250 1486 260 250 1487 237 250 1488 238 250 1489 262 250 1490 237 250 1491 262 250 1492 261 250 1493 238 250 1494 239 267 1495 263 267 1496 238 250 1497 263 267 1498 262 250 1499 239 267 1500 217 239 1501 241 242 1502 239 267 1503 241 242 1504 263 267 1505 289 1 1794 288 321 1795 312 321 1796 289 1 1797 312 321 1798 313 1 1799 288 321 1800 290 3 1801 314 3 1802 288 321 1803 314 3 1804 312 321 1805 290 3 1806 291 322 1807 315 322 1808 290 3 1809 315 322 1810 314 3 1811 291 322 1812 292 323 1813 316 323 1814 291 322 1815 316 323 1816 315 322 1817 292 323 1818 293 6 1819 317 6 1820 292 323 1821 317 6 1822 316 323 1823 293 6 1824 294 7 1825 318 7 1826 293 6 1827 318 7 1828 317 6 1829 294 7 1830 295 8 1831 319 8 1832 294 7 1833 319 8 1834 318 7 1835 295 8 1836 296 324 1837 320 324 1838 295 8 1839 320 324 1840 319 8 1841 296 324 1842 297 325 1843 321 325 1844 296 324 1845 321 325 1846 320 324 1847 297 325 1848 298 11 1849 322 11 1850 297 325 1851 322 11 1852 321 325 1853 298 11 1854 299 326 1855 323 326 1856 298 11 1857 323 326 1858 322 11 1859 299 326 1860 300 13 1861 324 13 1862 299 326 1863 324 13 1864 323 326 1865 300 13 1866 301 327 1867 325 327 1868 300 13 1869 325 327 1870 324 13 1871 301 327 1872 302 328 1873 326 328 1874 301 327 1875 326 328 1876 325 327 1877 302 328 1878 303 329 1879 327 329 1880 302 328 1881 327 329 1882 326 328 1883 303 329 1884 304 330 1885 328 330 1886 303 329 1887 328 330 1888 327 329 1889 304 330 1890 305 331 1891 329 331 1892 304 330 1893 329 331 1894 328 330 1895 305 331 1896 306 19 1897 330 19 1898 305 331 1899 330 19 1900 329 331 1901 306 19 1902 307 332 1903 331 332 1904 306 19 1905 331 332 1906 330 19 1907 307 332 1908 308 333 1909 332 333 1910 307 332 1911 332 333 1912 331 332 1913 308 333 1914 309 334 1915 333 334 1916 308 333 1917 333 334 1918 332 333 1919 309 334 1920 310 335 1921 334 335 1922 309 334 1923 334 335 1924 333 334 1925 310 335 1926 311 336 1927 335 336 1928 310 335 1929 335 336 1930 334 335 1931 311 336 1932 289 1 1933 313 1 1934 311 336 1935 313 1 1936 335 336 1937 335 250 1938 313 250 1939 312 250 1940 312 250 1941 314 250 1942 315 250 1943 315 250 1944 316 250 1945 317 250 1946 317 250 1947 318 250 1948 319 250 1949 319 250 1950 320 250 1951 321 250 1952 321 250 1953 322 250 1954 323 250 1955 323 250 1956 324 250 1957 325 250 1958 325 250 1959 326 250 1960 327 250 1961 327 250 1962 328 250 1963 329 250 1964 329 250 1965 330 250 1966 331 250 1967 331 250 1968 332 250 1969 333 250 1970 333 250 1971 334 250 1972 335 250 1973 335 250 1974 312 250 1975 315 250 1976 315 250 1977 317 250 1978 319 250 1979 319 250 1980 321 250 1981 323 250 1982 323 250 1983 325 250 1984 327 250 1985 327 250 1986 329 250 1987 331 250 1988 331 250 1989 333 250 1990 335 250 1991 335 250 1992 315 250 1993 319 250 1994 319 250 1995 323 250 1996 327 250 1997 327 250 1998 331 250 1999 335 250 2000 319 250 2001 327 250 2002 335 250 2003</p>
        </triangles>
      </mesh>
    </geometry>
  </library_geometries>
  <library_visual_scenes>
    <visual_scene id="scene">
      <node id="wheel">
        <instance_geometry url="#geometry">
          <bind_material>
            <technique_common>
              <instance_material symbol="scout_383b3b" target="#scout_383b3b">
                <bind_vertex_input semantic="UVMap" input_semantic="TEXCOORD" input_set="0" />
              </instance_material>
              <instance_material symbol="scout_b01424" target="#scout_b01424">
                <bind_vertex_input semantic="UVMap" input_semantic="TEXCOORD" input_set="0" />
              </instance_material>
              <instance_material symbol="scout_b8bab5" target="#scout_b8bab5">
                <bind_vertex_input semantic="UVMap" input_semantic="TEXCOORD" input_set="0" />
              </instance_material>
            </technique_common>
          </bind_material>
        </instance_geometry>
      </node>
    </visual_scene>
  </library_visual_scenes>
  <scene>
    <instance_visual_scene url="#scene" />
  </scene>
</COLLADA>