<?xml version='1.0' encoding='utf-8'?>
<COLLADA xmlns="http://www.collada.org/2005/11/COLLADASchema" version="1.4.1">
  <asset>
    <created>2026-09-14T00:00:00Z</created>
    <modified>2026-09-14T00:00:00Z</modified>
    <unit name="metre" meter="1" />
    <up_axis>Z_UP</up_axis>
  </asset>
  <library_effects>
    <effect id="scout_1a1f21_effect">
      <profile_COMMON>
        <technique sid="common">
          <phong>
            <emission>
              <color>0 0 0 1</color>
            </emission>
            <ambient>
              <color>0.05 0.06 0.065 1</color>
            </ambient>
            <diffuse>
              <color>0.1 0.12 0.13 1</color>
            </diffuse>
            <specular>
              <color>0.035 0.035 0.035 1</color>
            </specular>
            <shininess>
              <float>24</float>
            </shininess>
          </phong>
        </technique>
      </profile_COMMON>
    </effect>
    <effect id="scout_b01424_effect">
      <profile_COMMON>
        <technique sid="common">
          <phong>
            <emission>
              <color>0 0 0 1</color>
            </emission>
            <ambient>
              <color>0.345 0.04 0.07 1</color>
            </ambient>
            <diffuse>
              <color>0.69 0.08 0.14 1</color>
            </diffuse>
            <specular>
              <color>0.035 0.035 0.035 1</color>
            </specular>
            <shininess>
              <float>24</float>
            </shininess>
          </phong>
        </technique>
      </profile_COMMON>
    </effect>
    <effect id="scout_b8bab5_effect">
      <profile_COMMON>
        <technique sid="common">
          <phong>
            <emission>
              <color>0 0 0 1</color>
            </emission>
            <ambient>
              <color>0.36 0.365 0.355 1</color>
            </ambient>
            <diffuse>
              <color>0.72 0.73 0.71 1</color>
            </diffuse>
            <specular>
              <color>0.035 0.035 0.035 1</color>
            </specular>
            <shininess>
              <float>24</float>
            </shininess>
          </phong>
        </technique>
      </profile_COMMON>
    </effect>
    <effect id="scout_dbded4_effect">
      <profile_COMMON>
        <technique sid="common">
          <phong>
            <emission>
              <color>0 0 0 1</color>
            </emission>
            <ambient>
              <color>0.43 0.435 0.415 1</color>
            </ambient>
            <diffuse>
              <color>0.86 0.87 0.83 1</color>
            </diffuse>
            <specular>
              <color>0.035 0.035 0.035 1</color>
            </specular>
            <shininess>
              <float>24</float>
            </shininess>
          </phong>
        </technique>
      </profile_COMMON>
    </effect>
  </library_effects>
  <library_materials>
    <material id="scout_1a1f21" name="scout_1a1f21">
      <instance_effect url="#scout_1a1f21_effect" />
    </material>
    <material id="scout_b01424" name="scout_b01424">
      <instance_effect url="#scout_b01424_effect" />
    </material>
    <material id="scout_b8bab5" name="scout_b8bab5">
      <instance_effect url="#scout_b8bab5_effect" />
    </material>
    <material id="scout_dbded4" name="scout_dbded4">
      <instance_effect url="#scout_dbded4_effect" />
    </material>
  </library_materials>
  <library_geometries>
    <geometry id="geometry" name="body">
      <mesh>
        <source id="positions">
          <float_array id="positions_array" count="1194">-0.0894419998 0.0539991707 0.132823005 -0.0563529991 0.0539991707 0.139451995 -0.0405780002 0.0539991707 0.0918859988 0.0388499983 0.0539991707 0.0905369967 0.0563529991 0.0539991707 0.139451995 0.0894419998 0.0539991707 0.132823005 -0.0898080021 0.0539991707 -0.142809004 0.0883150026 0.0539991707 -0.146413997 -0.0127499998 0.0539991707 -0.111500002 0.0127499998 0.0539991707 -0.111500002 -0.0127499998 0.0539991707 -0.150999993 0.0127499998 0.0539991707 -0.150999993 -0.0664139986 0.0539991707 -0.168314993 0.0628089979 0.0539991707 -0.169808 -0.0894419998 0.0529991686 0.132823005 -0.0405780002 0.0529991686 0.0918859988 -0.0563529991 0.0529991686 0.139451995 0.0388499983 0.0529991686 0.0905369967 0.0894419998 0.0529991686 0.132823005 0.0563529991 0.0529991686 0.139451995 -0.0898080021 0.0529991686 -0.142809004 0.0883150026 0.0529991686 -0.146413997 -0.0127499998 0.0529991686 -0.111500002 0.0127499998 0.0529991686 -0.111500002 -0.0127499998 0.0529991686 -0.150999993 0.0127499998 0.0529991686 -0.150999993 -0.0664139986 0.0529991686 -0.168314993 0.0628089979 0.0529991686 -0.169808 -0.151544005 0.0529991686 0.250804991 -0.0653380007 0.0529991686 0.262329996 -0.0284010004 0.0529991686 0.124462999 0.0230069999 0.0529991686 0.120251998 0.0653380007 0.0529991686 0.262329996 0.151544005 0.0529991686 0.250804991 -0.151544005 0.0529991686 -0.25999999 -0.0845130011 0.0529991686 0.126031995 0.0845130011 0.0529991686 0.126031995 0.151544005 0.0529991686 -0.25999999 -0.0841569975 0.0529991686 -0.143636003 -0.0766239986 0.0529991686 0.125073999 0.0766239986 0.0529991686 0.125073999 0.0841569975 0.0529991686 -0.143636003 -0.0726130009 0.0529991686 0.0871820003 0.0726130009 0.0529991686 0.0871820003 -0.0618330017 0.0529991686 -0.164903998 0.0618330017 0.0529991686 -0.164903998 -0.0923290029 0.0529991686 -0.220109001 -0.0209880006 0.0529991686 -0.204759002 0.0203920007 0.0529991686 -0.204566002 0.0923290029 0.0529991686 -0.220109001 0.0309609994 0.0529991686 -0.219741002 -0.0309609994 0.0529991686 -0.219741002 -0.116442002 0.0529991686 -0.258345991 0.116442002 0.0529991686 -0.258345991 -0.151544005 0.0519991703 0.250804991 -0.0284010004 0.0519991703 0.124462999 -0.0653380007 0.0519991703 0.262329996 0.0230069999 0.0519991703 0.120251998 0.151544005 0.0519991703 0.250804991 0.0653380007 0.0519991703 0.262329996 -0.151544005 0.0519991703 -0.25999999 -0.0845130011 0.0519991703 0.126031995 0.0845130011 0.0519991703 0.126031995 0.151544005 0.0519991703 -0.25999999 -0.0841569975 0.0519991703 -0.143636003 -0.0766239986 0.0519991703 0.125073999 0.0766239986 0.0519991703 0.125073999 0.0841569975 0.0519991703 -0.143636003 -0.0726130009 0.0519991703 0.0871820003 0.0726130009 0.0519991703 0.0871820003 -0.0618330017 0.0519991703 -0.164903998 0.0618330017 0.0519991703 -0.164903998 -0.0923290029 0.0519991703 -0.220109001 -0.0209880006 0.0519991703 -0.204759002 0.0203920007 0.0519991703 -0.204566002 0.0923290029 0.0519991703 -0.220109001 0.0309609994 0.0519991703 -0.219741002 -0.0309609994 0.0519991703 -0.219741002 -0.116442002 0.0519991703 -0.258345991 0.116442002 0.0519991703 -0.258345991 -0.173014 -0.0508008301 -0.0314860009 -0.142741993 -0.0508008301 -0.00627399981 -0.143749997 -0.0508008301 -0.134083003 -0.153796002 -0.0508008301 -0.134499997 0.143749997 -0.0508008301 -0.134083003 0.141305 -0.0508008301 -0.00797899999 0.173014 -0.0508008301 -0.0314860009 0.153796002 -0.0508008301 -0.134499997 -0.173014 -0.0518008284 -0.0314860009 -0.143749997 -0.0518008284 -0.134083003 -0.142741993 -0.0518008284 -0.00627399981 -0.153796002 -0.0518008284 -0.134499997 0.143749997 -0.0518008284 -0.134083003 0.173014 -0.0518008284 -0.0314860009 0.141305 -0.0518008284 -0.00797899999 0.153796002 -0.0518008284 -0.134499997 -0.168185577 0.0374109298 0.240043998 -0.160964578 0.047723569 0.247416005 -0.160964578 0.0477235802 -0.25287199 -0.193411574 0.00138452474 -0.0743729994 -0.179898575 0.0206830651 -0.200650007 -0.16736643 0.0368373543 0.240043998 -0.160145432 0.0471500047 -0.25287199 -0.160145432 0.0471499935 0.247416005 -0.192592427 0.000810947851 -0.0743729994 -0.179079428 0.0201094896 -0.200650007 0.160946578 0.0477492884 -0.252918988 0.160964578 0.047723569 0.247416005 0.168185577 0.0374109298 0.240043998 0.193411574 0.00138452533 -0.0743729994 0.179898575 0.0206830651 -0.200650007 0.160127431 0.0471757129 -0.252918988 0.16736643 0.0368373543 0.240043998 0.160145432 0.0471499935 0.247416005 0.192592427 0.000810948433 -0.0743729994 0.179079428 0.0201094896 -0.200650007 -0.135000005 0.0529991686 -0.174999997 -0.133000001 0.0529991686 -0.174999997 -0.133000001 0.0529991686 0.174999997 -0.135000005 0.0529991686 0.174999997 -0.135000005 0.0689991713 0.174999997 -0.133000001 0.0689991713 0.174999997 -0.133000001 0.0689991713 -0.174999997 -0.135000005 0.0689991713 -0.174999997 -0.0970000029 0.0529991686 -0.174999997 -0.0949999988 0.0529991686 -0.174999997 -0.0949999988 0.0529991686 0.174999997 -0.0970000029 0.0529991686 0.174999997 -0.0970000029 0.0689991713 0.174999997 -0.0949999988 0.0689991713 0.174999997 -0.0949999988 0.0689991713 -0.174999997 -0.0970000029 0.0689991713 -0.174999997 -0.0780000016 0.0200215001 -0.27746734 0.0780000016 0.0200215001 -0.27746734 0.0780000016 -0.0153301423 -0.29787761 -0.0780000016 -0.0153301423 -0.29787761 -0.0780000016 -0.0702776238 -0.202705786 0.0780000016 -0.0702776238 -0.202705786 0.0780000016 -0.0349259786 -0.182295501 -0.0780000016 -0.0349259786 -0.182295501 -0.0531942993 -0.0560000017 -0.224460825 -0.0691077039 -0.0560000017 -0.226123169 -0.0691077039 -0.050999999 -0.226123169 -0.0531942993 -0.050999999 -0.224460825 -0.0694182962 -0.050999999 -0.0691518188 -0.0853317082 -0.050999999 -0.0708141774 -0.0853317082 -0.0560000017 -0.0708141774 -0.0694182962 -0.0560000017 -0.0691518188 0.0691077039 -0.0560000017 -0.226123169 0.0531942993 -0.0560000017 -0.224460825 0.0531942993 -0.050999999 -0.224460825 0.0691077039 -0.050999999 -0.226123169 0.0853317082 -0.050999999 -0.0708141774 0.0694182962 -0.050999999 -0.0691518188 0.0694182962 -0.0560000017 -0.0691518188 0.0853317082 -0.0560000017 -0.0708141774 0.0934560001 -0.0435290113 -0.158922985 0.0930000022 -0.0251009818 -0.12770997 0.140000001 -0.0251009818 -0.12770997 0.140456006 -0.0389422141 -0.151153967 0.103919998 -0.0428269096 -0.157733783 0.133596003 -0.041110035 -0.154825777 0.189544007 -0.0722552389 -0.207578868 0.178200006 -0.0712186024 -0.205823034 0.148900002 -0.0741617382 -0.210808069 0.138096005 -0.0827964321 -0.22543332 0.189999998 -0.0942354649 -0.244808525 0.127095997 -0.0942354649 -0.244808525 0.0934560001 -0.062473651 -0.147738144 0.140000001 -0.0440456234 -0.116525136 0.0930000022 -0.0440456234 -0.116525136 0.140456006 -0.0578868538 -0.139969125 0.103919998 -0.061771553 -0.146548942 0.133596003 -0.0600546785 -0.143640935 0.189544007 -0.0911998749 -0.196394026 0.178200006 -0.0901632458 -0.194638208 0.148900002 -0.0931063816 -0.199623227 0.138096005 -0.101741076 -0.214248493 0.189999998 -0.113180108 -0.233623683 0.127095997 -0.113180108 -0.233623683 -0.133595735 -0.0836706012 -0.216328353 -0.137595728 -0.0809190124 -0.219231591 -0.133595735 -0.0781674162 -0.222134814 -0.129595727 -0.0809190124 -0.219231591 -0.133595735 -0.0692452565 -0.221256435 -0.124095738 -0.0757802948 -0.214361265 -0.143095732 -0.0757802948 -0.214361265 -0.133595735 -0.0823153257 -0.207466096 -0.133595735 -0.0388411656 -0.192440331 -0.124095738 -0.0453761965 -0.185545176 -0.143095732 -0.0453761965 -0.185545176 -0.133595735 -0.0519112311 -0.178650007 -0.13359575 0.0173789822 -0.134334341 -0.127595738 0.0132515933 -0.129979506 -0.139595747 0.0132515933 -0.129979506 -0.13359575 0.00912420359 -0.125624657 0.133595735 -0.0858646035 -0.218102574 0.129595727 -0.0831130147 -0.221005797 0.133595735 -0.0803614184 -0.22390902 0.137595728 -0.0831130147 -0.221005797 0.133595735 -0.0714392588 -0.223030642 0.143095732 -0.0779742897 -0.216135472 0.124095738 -0.0779742897 -0.216135472 0.133595735 -0.084509328 -0.209240302 0.133595735 -0.0410351641 -0.194214553 0.143095732 -0.047570195 -0.187319383 0.124095738 -0.047570195 -0.187319383 0.133595735 -0.0541052297 -0.180424213 0.13359575 0.0172315221 -0.134168908 0.139595747 0.0131041333 -0.129814073 0.127595738 0.0131041333 -0.129814073 0.13359575 0.00897674356 -0.125459224 -0.140456006 -0.0389422141 -0.151153967 -0.140000001 -0.0251009818 -0.12770997 -0.0930000022 -0.0251009818 -0.12770997 -0.0934560001 -0.0435290113 -0.158922985 -0.189544007 -0.0722552389 -0.207578868 -0.133596003 -0.041110035 -0.154825777 -0.103919998 -0.0428269096 -0.157733783 -0.178200006 -0.0712186024 -0.205823034 -0.148900002 -0.0741617382 -0.210808069 -0.138096005 -0.0827964321 -0.22543332 -0.189999998 -0.0942354649 -0.244808525 -0.127095997 -0.0942354649 -0.244808525 -0.140456006 -0.0578868538 -0.139969125 -0.0930000022 -0.0440456234 -0.116525136 -0.140000001 -0.0440456234 -0.116525136 -0.0934560001 -0.062473651 -0.147738144 -0.189544007 -0.0911998749 -0.196394026 -0.133596003 -0.0600546785 -0.143640935 -0.103919998 -0.061771553 -0.146548942 -0.178200006 -0.0901632458 -0.194638208 -0.148900002 -0.0931063816 -0.199623227 -0.138096005 -0.101741076 -0.214248493 -0.189999998 -0.113180108 -0.233623683 -0.127095997 -0.113180108 -0.233623683 0.0286320001 0.0519991703 0.124577001 0.0609540008 0.0519991703 0.252718002 0.0555340014 0.0519991703 0.204753995 0.151559994 0.0519991703 0.239941999 -0.151559994 0.0519991703 0.239941999 -0.0608219989 0.0519991703 0.252642989 -0.0555340014 0.0519991703 0.204753995 -0.0286320001 0.0519991703 0.124577001 -0.149136007 0.0519991703 0.193370998 0.149136007 0.0519991703 0.193370998 -0.0319949985 0.0519991703 0.117829002 0.0319949985 0.0519991703 0.117829002 0.0286320001 0.04999917 0.124577001 0.0555340014 0.04999917 0.204753995 0.0609540008 0.04999917 0.252718002 0.151559994 0.04999917 0.239941999 -0.151559994 0.04999917 0.239941999 -0.0555340014 0.04999917 0.204753995 -0.0608219989 0.04999917 0.252642989 -0.0286320001 0.04999917 0.124577001 -0.149136007 0.04999917 0.193370998 0.149136007 0.04999917 0.193370998 -0.0319949985 0.04999917 0.117829002 0.0319949985 0.04999917 0.117829002 0.138096005 -0.0827964321 0.22543332 0.127095997 -0.0942354649 0.244808525 0.189999998 -0.0942354649 0.244808525 0.189544007 -0.0722552389 0.207578868 0.0934560001 -0.0435290113 0.158922985 0.148900002 -0.0741617382 0.210808069 0.103919998 -0.0428269096 0.157733783 0.178200006 -0.0712186024 0.205823034 0.140456006 -0.0389422141 0.151153967 0.133596003 -0.041110035 0.154825777 0.0930000022 -0.0251009818 0.12770997 0.140000001 -0.0251009818 0.12770997 0.138096005 -0.101741076 0.214248493 0.189999998 -0.113180108 0.233623683 0.127095997 -0.113180108 0.233623683 0.189544007 -0.0911998749 0.196394026 0.0934560001 -0.062473651 0.147738144 0.148900002 -0.0931063816 0.199623227 0.103919998 -0.061771553 0.146548942 0.178200006 -0.0901632458 0.194638208 0.140456006 -0.0578868538 0.139969125 0.133596003 -0.0600546785 0.143640935 0.0930000022 -0.0440456234 0.116525136 0.140000001 -0.0440456234 0.116525136 -0.189544007 -0.0722552389 0.207578868 -0.189999998 -0.0942354649 0.244808525 -0.127095997 -0.0942354649 0.244808525 -0.138096005 -0.0827964321 0.22543332 -0.148900002 -0.0741617382 0.210808069 -0.0934560001 -0.0435290113 0.158922985 -0.178200006 -0.0712186024 0.205823034 -0.103919998 -0.0428269096 0.157733783 -0.140456006 -0.0389422141 0.151153967 -0.133596003 -0.041110035 0.154825777 -0.0930000022 -0.0251009818 0.12770997 -0.140000001 -0.0251009818 0.12770997 -0.189544007 -0.0911998749 0.196394026 -0.127095997 -0.113180108 0.233623683 -0.189999998 -0.113180108 0.233623683 -0.138096005 -0.101741076 0.214248493 -0.148900002 -0.0931063816 0.199623227 -0.0934560001 -0.062473651 0.147738144 -0.178200006 -0.0901632458 0.194638208 -0.103919998 -0.061771553 0.146548942 -0.140456006 -0.0578868538 0.139969125 -0.133596003 -0.0600546785 0.143640935 -0.0930000022 -0.0440456234 0.116525136 -0.140000001 -0.0440456234 0.116525136 -0.151544005 0.0519991703 -0.213 -0.0488709994 0.0519991703 -0.195999995 0.0488709994 0.0519991703 -0.195999995 0.0215620007 0.0519991703 -0.205514997 0.151544005 0.0519991703 -0.213 -0.0952029973 0.0519991703 -0.221101999 0.0952029973 0.0519991703 -0.221101999 -0.151544005 0.0519991703 -0.266548008 0.151544005 0.0519991703 -0.266548008 -0.151544005 0.050499171 -0.213 0.0488709994 0.050499171 -0.195999995 -0.0488709994 0.050499171 -0.195999995 0.0215620007 0.050499171 -0.205514997 0.151544005 0.050499171 -0.213 -0.0952029973 0.050499171 -0.221101999 0.0952029973 0.050499171 -0.221101999 -0.151544005 0.050499171 -0.266548008 0.151544005 0.050499171 -0.266548008 -0.133595735 -0.0803614184 0.22390902 -0.137595728 -0.0831130147 0.221005797 -0.133595735 -0.0858646035 0.218102574 -0.129595727 -0.0831130147 0.221005797 -0.133595735 -0.084509328 0.209240302 -0.124095738 -0.0779742897 0.216135472 -0.143095732 -0.0779742897 0.216135472 -0.133595735 -0.0714392588 0.223030642 -0.133595735 -0.0541052297 0.180424213 -0.124095738 -0.047570195 0.187319383 -0.143095732 -0.047570195 0.187319383 -0.133595735 -0.0410351641 0.194214553 -0.13359575 0.00897674356 0.125459224 -0.127595738 0.0131041333 0.129814073 -0.139595747 0.0131041333 0.129814073 -0.13359575 0.0172315221 0.134168908 0.133595735 -0.0802090317 0.224069804 0.129595727 -0.082960628 0.221166566 0.133595735 -0.0857122242 0.218263343 0.137595728 -0.082960628 0.221166566 0.133595735 -0.0843569413 0.209401071 0.143095732 -0.0778219104 0.216296241 0.124095738 -0.0778219104 0.216296241 0.133595735 -0.071286872 0.22319141 0.133595735 -0.0539528541 0.180584982 0.143095732 -0.0474178195 0.187480152 0.124095738 -0.0474178195 0.187480152 0.133595735 -0.0408827849 0.194375306 0.13359575 0.00912418682 0.125624642 0.139595747 0.0132515766 0.129979491 0.127595738 0.0132515766 0.129979491 0.13359575 0.0173789673 0.134334326 -0.0797500014 -0.0478719994 0.141078994 -0.0797500014 0.0489999987 -0.147499993 -0.0797500014 0.0489999987 0.195500001 -0.0797500014 -0.0480000004 -0.134661004 -0.156749994 -0.0478719994 0.141078994 -0.156749994 0.0489999987 0.195500001 -0.156749994 0.0489999987 -0.147499993 -0.156749994 -0.0480000004 -0.134661004 0.156749994 -0.0478719994 0.141078994 0.156749994 0.0489999987 -0.147499993 0.156749994 0.0489999987 0.195500001 0.156749994 -0.0480000004 -0.134661004 0.0797500014 -0.0478719994 0.141078994 0.0797500014 0.0489999987 0.195500001 0.0797500014 0.0489999987 -0.147499993 0.0797500014 -0.0480000004 -0.134661004 0.0797500014 -0.050999999 -0.150830001 0.0797500014 0.0520000011 0.136329994 0.0797500014 -0.050999999 0.136329994 0.0797500014 0.0520000011 -0.150830001 -0.0797500014 -0.050999999 -0.150830001 -0.0797500014 -0.050999999 0.136329994 -0.0797500014 0.0520000011 0.136329994 -0.0797500014 0.0520000011 -0.150830001 0.0949999988 0.0529991686 -0.174999997 0.0970000029 0.0529991686 -0.174999997 0.0970000029 0.0529991686 0.174999997 0.0949999988 0.0529991686 0.174999997 0.0949999988 0.0689991713 0.174999997 0.0970000029 0.0689991713 0.174999997 0.0970000029 0.0689991713 -0.174999997 0.0949999988 0.0689991713 -0.174999997 0.133000001 0.0529991686 -0.174999997 0.135000005 0.0529991686 -0.174999997 0.135000005 0.0529991686 0.174999997 0.133000001 0.0529991686 0.174999997 0.133000001 0.0689991713 0.174999997 0.135000005 0.0689991713 0.174999997 0.135000005 0.0689991713 -0.174999997 0.133000001 0.0689991713 -0.174999997</float_array>
          <technique_common>
            <accessor source="#positions_array" count="398" stride="3">
              <param name="X" type="float" />
              <param name="Y" type="float" />
              <param name="Z" type="float" />
            </accessor>
          </technique_common>
        </source>
        <source id="normals">
          <float_array id="normals_array" count="1431">0 1 0 0 1 -2.00323989e-08 0 1 -2.30255477e-08 0 1 -1.34229182e-07 0 1 -6.06093735e-08 0 1 3.31044214e-09 0 1 7.27626315e-08 0 1 2.96248603e-09 0 1 -2.7749838e-08 0 1 -8.25343562e-08 0 1 -1.92900842e-08 0 1 2.12201101e-07 0 -1 3.50764608e-08 0 -1 2.88022957e-08 0 -1 6.9357462e-08 0 -1 9.2075032e-09 0 -1 -5.09932985e-10 0 -1 0 0 -1 -1.27882478e-08 0 -1 -8.3079243e-08 0 -1 -1.85912086e-08 0 -1 1.6296136e-08 0 -1 6.33249044e-07 0 -1 1.30717112e-07 0 -1 6.31869312e-08 0 -1 -2.12201101e-07 -0.196435064 0 0.980516911 0.949163139 0 0.314784676 0.0169814974 0 0.999855816 -0.941538393 0 0.336905897 0.196435064 0 0.980516911 0.999991894 0 -0.00403595204 0.675935507 0 -0.736960828 -0.0115529615 0 -0.999933183 -0.736960292 0 -0.675936043 -0.999999166 0 0.00132786261 0 0 1 -1 0 0 0 0 -1 1 0 0 0 1 1.19588989e-07 0 1 -3.60241863e-08 0 1 -7.31261096e-08 0 1 -1.84008968e-08 0 1 -5.63074245e-08 0 1 1.0607156e-07 0 1 -1.2808357e-07 0 1 -1.95155181e-08 0 1 6.00031808e-06 0 1 2.93013134e-08 0 1 -1.5607506e-07 0 1 5.65386813e-08 0 1 1.85190441e-08 0 1 7.9000273e-08 0 1 -3.46275215e-07 0 1 1.58187525e-08 0 1 -2.21269669e-08 0 1 3.81378925e-07 0 0.99999994 -1.78782514e-07 0 0.99999994 -3.57565028e-07 0 -1 4.28339568e-08 0 -1 -9.13548988e-08 0 -1 3.78258527e-08 0 -1 5.91053642e-08 0 -1 5.81517661e-08 0 -1 1.46252219e-07 0 -1 -9.94345051e-09 0 -1 5.84115192e-08 0 -1 -1.06071546e-07 0 -1 -1.75390031e-08 0 -1 -5.89433142e-08 0 -1 -6.06684307e-06 0 -1 -3.90310291e-08 0 -1 -1.00427924e-08 0 -1 4.92463741e-08 0 -1 -1.35199329e-07 0 -1 -1.32732447e-08 0 -1 4.92712253e-08 0 -1 3.07107726e-08 0 -1 8.95458854e-08 0 -1 -1.13439249e-08 0 -1 -5.02131059e-07 0 -0.99999994 0 -0.132513106 0 0.991181254 0.965933383 0 0.258790702 0.0816400647 0 0.996661782 -0.958367407 0 0.285537928 0.132513106 0 0.991181254 -0.0470669046 0 -0.998891711 -0.845855892 0 -0.533411384 -0.00599656999 0 -0.999981999 -0.820588291 0 -0.571519792 0.00466408115 0 -0.999989152 0.832433939 0 -0.554124236 0.00599656999 0 -0.999981999 0.845855892 0 -0.533411384 0.0470669046 0 -0.998891711 0.689773798 0 0.724025011 -0.689773798 0 0.724025011 -0.999999106 0 0.00132015592 0.120548852 0 -0.992707431 0.994444132 0 -0.105265252 -0.994444132 0 -0.105265252 -0.120548852 0 -0.992707431 0.999999106 0 0.00132015592 0 1 2.71204819e-08 0 1 2.83949397e-08 0 1 5.00726705e-09 0 -1 -4.52008031e-08 0 -1 -8.34544434e-09 0 -1 -4.73248996e-08 0.999968886 0 -0.00788656715 0.041473303 0 -0.999139547 -0.983039796 0 -0.18339248 -0.639964819 0 0.768404365 0.595537007 0 0.803327918 0.983039796 0 -0.18339248 -0.041473303 0 -0.999139547 -0.999812067 0 -0.0193850193 -0.819152772 0.573575437 9.56352419e-09 -0.819152832 0.573575318 9.24177002e-09 -0.8191517 0.573576987 7.21848625e-09 -0.81915164 0.573577106 1.30310047e-08 -0.819151521 0.573577106 0 0.819152772 -0.573575437 -9.3967758e-09 0.81915158 -0.573577106 -6.08517547e-09 0.819152832 -0.573575318 -9.24177002e-09 0.81915164 -0.573576927 -1.08591678e-08 0.819151461 -0.573577344 0 -0.289843023 -0.413928658 0.862933397 0.573583007 0.819147468 1.4543728e-08 -0.484838605 -0.692413807 -0.534316897 -0.533913612 -0.762503922 -0.365409434 -0.533913553 -0.762503862 -0.365409583 -0.573431075 -0.818938375 -0.0227323528 -0.573431134 -0.818938315 -0.0227323826 -0.568051875 -0.811249912 0.138530388 0.819151521 0.573577106 4.67546779e-10 0.819151998 0.57357651 9.24055232e-09 0.819151938 0.57357651 9.89551641e-09 0.8191517 0.573576927 1.65056502e-08 0.819151342 0.573577464 -1.97917682e-08 -0.819151461 -0.573577404 -2.79056049e-08 -0.819152415 -0.573575795 -1.77902475e-08 -0.819152594 -0.573575735 -1.84811189e-08 -0.819151461 -0.573577225 -1.08340128e-08 -0.819151282 -0.573577642 -4.94794321e-08 0.28982994 -0.413929909 0.862937212 0.568052351 -0.811249614 0.138530314 0.573430955 -0.818938494 -0.0227323752 0.573430896 -0.818938553 -0.0227323938 0.533911705 -0.76249963 -0.365421116 0.533911705 -0.76249963 -0.365421295 0.484833241 -0.69240123 -0.534338236 -0.573577106 0.819151521 6.27423797e-05 0 0 0.99999994 0 0 -0.99999994 0 0.499999821 -0.866025567 0 -0.50000006 0.866025388 0 -0.866025329 -0.5 1 -2.59509658e-08 0 0 0.866025388 0.49999994 -1 -2.59509711e-08 0 0.103896275 0 -0.994588196 -0.103897706 0 0.994587958 -0.994588017 0 -0.1038974 0.994587958 0 0.103897378 -0.103896275 0 -0.994588196 0.103897706 0 0.994587958 -0.994587958 0 0.103897378 0.994588017 0 -0.1038974 5.12416307e-07 0.861119986 -0.508401692 0 0.861120105 -0.508401573 1.05780451e-07 0.861120164 -0.508401394 8.10459028e-07 0.861119807 -0.50840205 5.41381439e-07 0.861117899 -0.508405328 1.15980868e-06 0.861119509 -0.508402646 -3.62466835e-07 0.861120641 -0.508400619 -7.43497765e-07 0.861121297 -0.508399606 3.49193812e-08 0.861120045 -0.508401632 0 0.861120105 -0.508401513 0 0.861120164 -0.508401394 0 0.861120343 -0.508401215 -4.79866401e-07 -0.861120164 0.508401453 0 -0.861120105 0.508401632 0 -0.861120045 0.508401692 -7.26517953e-07 -0.861119866 0.50840199 -5.41381723e-07 -0.861120105 0.508401573 -1.19607557e-06 -0.861119926 0.508401811 -1.04621243e-07 -0.861120045 0.508401752 -2.48901443e-07 -0.861119449 0.508402705 -4.61001619e-08 -0.861120224 0.508401394 0 -0.861120224 0.508401394 0 -0.861120045 0.508401513 0 -0.861119926 0.508401811 0 0.508401573 0.861120045 0.99985981 0.00851396564 0.0144213149 0.800326943 0.304819465 0.516296446 0.999944329 0.005362052 0.00908175204 0 -0.508401811 -0.861120045 -0.898384154 0.223295584 0.37821272 -0.865796328 -0.25440228 -0.430901587 -0.964218199 -0.134782374 -0.228291735 -0.96421814 -0.134782404 -0.22829175 -0.999920845 -0.00639534788 -0.0108322836 0.807766914 0.299704075 0.507632017 -0.193829671 0.498760104 0.844788969 -0.798784435 -0.305863559 -0.518064618 0.113066167 -0.505141675 -0.855598032 0 -0.725808799 -0.68789655 0.619760633 0.0768914744 -0.781015158 0.691803515 0.32570675 -0.644455552 0.691803455 0.325706601 -0.644455671 -0.619761586 0.0768898949 -0.781014442 -0.691803932 0.325706393 -0.644455314 -0.691803932 0.325706512 -0.644455254 -0.619760513 -0.775772154 0.118636221 -0.691804171 -0.626074016 0.359775513 -0.691804111 -0.626074016 0.359775424 0.619759023 -0.775773287 0.11863593 0.691803634 -0.626074612 0.359775305 0.691803634 -0.626074553 0.359775454 0.707024693 0.497367978 -0.502733648 0.707024753 0.497367978 -0.502733648 -0.707024753 0.497368157 -0.502733529 -0.707026005 -0.475355715 0.523594439 0.707025945 -0.475355536 0.523594797 0.707025886 -0.475355476 0.523594737 0.706773877 0.508417785 -0.491916686 -0.706774116 0.508417606 -0.491916537 -0.706775486 -0.463962048 0.534048319 0.706775248 -0.463961691 0.534048796 8.08438813e-07 0.725807488 0.68789798 0 -0.725807488 -0.687897921 0.619758785 0.0768908635 -0.781016648 0.691803336 0.325706363 -0.644456029 0.691803336 0.325706333 -0.644456029 -0.619757712 0.0768924356 -0.781017244 -0.691803157 0.325706452 -0.644456148 -0.691803157 0.325706512 -0.644456089 -0.619759321 -0.775772929 0.11863675 -0.691802919 -0.626074791 0.359776288 -0.691802919 -0.62607491 0.359776229 0.619761348 -0.77577132 0.118636847 0.691803634 -0.626074076 0.359776258 0.707030296 0.49700442 -0.503085315 0.707030237 0.49700442 -0.503085315 -0.707030952 0.497003317 -0.503085315 -0.707030952 0.497003347 -0.503085375 -0.707030654 -0.475727051 0.523250818 -0.707030714 -0.475727022 0.523250818 0.707030773 -0.47572726 0.52325052 0.707030773 -0.47572726 0.523250461 0.706795514 0.507684469 -0.492642462 -0.706796288 0.507683158 -0.492642671 -0.706797361 -0.464726001 0.5333547 0.7067976 -0.464726329 0.533354163 0 0.725807786 0.687897563 -6.31480816e-07 0.861119628 -0.508402348 0 0.861120164 -0.508401573 0 0.861120224 -0.508401394 -3.62220902e-07 0.861120105 -0.508401453 4.08592257e-07 0.861120522 -0.508400798 -1.10118413e-06 0.861119032 -0.508403301 1.80539917e-06 0.861119986 -0.508401811 7.43497765e-07 0.861121297 -0.508399606 4.69433594e-08 0.861120105 -0.508401632 7.1012451e-08 0.861120045 -0.508401632 8.09958962e-08 0.861120105 -0.508401513 4.54421496e-07 -0.861119688 0.508402228 0 -0.861120105 0.508401573 3.82392471e-07 -0.861120224 0.508401394 2.28803927e-07 -0.861120045 0.508401752 9.90889475e-07 -0.861119747 0.508402228 4.35474163e-07 -0.861120045 0.508401632 4.97802887e-07 -0.861119449 0.508402705 1.69454317e-08 -0.861120105 0.508401453 -7.10124723e-08 -0.861120224 0.508401513 3.70317323e-08 -0.861120045 0.508401513 -0.999944329 0.00536180707 0.00908175204 -0.800326884 0.304819524 0.516296327 -0.99985975 0.00851416308 0.0144213205 0.999920845 -0.00639563985 -0.0108322836 0.96421814 -0.134782553 -0.228291735 0.96421802 -0.134782597 -0.228291795 0.865796208 -0.254402369 -0.430901617 0.898384154 0.223295584 0.37821272 -0.807766914 0.299704015 0.507632017 -0.113066509 -0.505141795 -0.855597973 0.798784494 -0.30586338 -0.518064678 0.193829328 0.498759985 0.844789028 0 1 -1.43024423e-07 0 1 5.45378631e-09 0 1 4.8425818e-08 0 1 3.26862093e-08 0 1 -4.68177319e-08 0 1 -1.45444815e-07 0 1 -3.84417262e-08 0 1 5.48603907e-07 0 1 4.64415955e-08 0 1 6.30629017e-07 0 1 -2.44242301e-07 0 -1 1.7204097e-07 0 -1 -4.97973218e-08 0 -1 -5.45378631e-09 0 -1 -4.20251247e-08 0 -1 6.24236378e-08 0 -1 5.12556433e-08 0 -1 1.93926425e-07 0 -1 -5.48603907e-07 0 -1 -5.97106222e-08 0 -1 -6.26559086e-07 0 -1 2.84949351e-07 0.96983248 0 0.243772045 -0.969629765 0 0.244577333 0.139625311 0 0.990204394 0.998648107 0 -0.051978875 -0.120721422 0 -0.992686391 0.965235293 0 -0.26138249 -0.965235293 0 -0.26138249 0.120721422 0 -0.992686391 -0.998648107 0 -0.051978875 -0.138623089 0 0.99034518 -1.18853677e-07 0.861120105 0.508401632 0 0.861120343 0.508401215 -3.0762908e-07 0.861120343 0.508401155 -1.9910253e-07 0.861120224 0.508401275 5.52236941e-07 0.861120164 0.508401394 -2.76728827e-08 0.861119568 0.508402348 6.35528863e-07 0.861120105 0.508401632 0 0.861120641 0.508400559 -8.55155662e-08 0.861120462 0.508400977 -9.76426051e-08 0.861120343 0.508401036 8.66683223e-08 0.861120164 0.508401513 0 0.861120164 0.508401453 3.86943988e-08 -0.861120045 -0.508401573 0 -0.861120164 -0.508401513 0 -0.861119926 -0.508401811 -4.82726421e-07 -0.861119747 -0.50840205 -7.42573604e-07 -0.861120343 -0.508401036 1.64919189e-08 -0.861120105 -0.508401632 -5.99673399e-07 -0.861120224 -0.508401334 -8.89720127e-07 -0.861118913 -0.508403659 1.81395543e-09 -0.861120343 -0.508401275 9.9049835e-08 -0.861120224 -0.508401275 -1.60881743e-08 -0.861120164 -0.508401632 0 -0.861120105 -0.508401692 -0.999920845 -0.00639563985 0.0108322836 -0.96421814 -0.134782553 0.228291735 -0.96421802 -0.134782597 0.228291795 -0.865796208 -0.254402369 0.430901617 -0.898384154 0.223295584 -0.37821272 0 -0.508401811 0.861120045 0.999944329 0.00536180707 -0.00908175204 0.800326884 0.304819524 -0.516296327 0.99985975 0.00851416308 -0.0144213205 0 0.508401573 -0.861120045 -0.798784494 -0.30586338 0.518064678 -0.193829328 0.498759985 -0.844789028 0.807766914 0.299704015 -0.507632017 0.113066509 -0.505141795 0.855597973 -1.5946317e-07 0.861120224 0.508401394 0 0.861120284 0.508401334 2.29155205e-07 0.861120343 0.508401096 2.38831291e-07 0.861120224 0.508401453 -2.2169263e-07 0.861119747 0.508402348 -4.79857874e-07 0.861120105 0.508401453 -2.40307031e-07 0.861120641 0.508400619 -5.21388984e-07 0.861120105 0.508401692 -1.53539688e-08 0.861120403 0.508400977 0 0.861120403 0.508401096 0 0.861120164 0.508401632 0 0.861120164 0.508401573 5.32632782e-07 -0.861119747 -0.508402169 0 -0.861120105 -0.508401573 0 -0.861120045 -0.508401632 5.7281941e-08 -0.861120105 -0.508401632 4.79857874e-07 -0.861120164 -0.508401394 1.13862268e-06 -0.861118793 -0.508403718 5.21388984e-07 -0.861120105 -0.508401573 4.09438954e-08 -0.861120403 -0.508401096 0 -0.861120403 -0.508401096 0.898384154 0.223295584 -0.37821272 0.865796328 -0.25440228 0.430901587 0.964218199 -0.134782374 0.228291735 0.96421814 -0.134782404 0.22829175 0.999920845 -0.00639534788 0.0108322836 -0.99985981 0.00851396564 -0.0144213149 -0.800326943 0.304819465 -0.516296446 -0.999944329 0.005362052 -0.00908175204 0.798784435 -0.305863559 0.518064618 -0.113066167 -0.505141675 0.855598032 -0.807766914 0.299704075 -0.507632017 0.193829671 0.498760104 -0.844788969 0 1 -2.56665693e-08 0 1 -5.60492595e-07 0 1 -1.592554e-08 0 1 -2.73827983e-08 0 1 -7.29098701e-08 0 1 -4.87829141e-07 0 -1 -2.13666027e-08 0 -1 4.30919869e-08 0 -1 5.60492595e-07 0 -1 2.78352672e-07 0 -1 7.29098701e-08 0 -1 -3.96785424e-07 0 -1 4.87829141e-07 -0.163350105 0 0.986568153 -0.0819507092 0 0.99663645 0.0819507092 0 0.99663645 0.163350105 0 0.986568153 -0.627833664 0 -0.778347492 -0.429261804 0 -0.903180122 -0.0379297622 0 -0.999280453 0.394695461 0 -0.918811977 0.627833664 0 -0.778347492 0 -0.725807905 0.687897444 0.619759321 -0.775772929 -0.11863675 0.691802919 -0.626074791 -0.359776288 0.691802919 -0.62607491 -0.359776229 -0.619761348 -0.77577132 -0.118636847 -0.691803634 -0.626074076 -0.359776258 -0.619758785 0.0768908635 0.781016648 -0.691803336 0.325706363 0.644456029 -0.691803336 0.325706333 0.644456029 0.619757712 0.0768924356 0.781017244 0.691803157 0.325706452 0.644456148 0.691803157 0.325706512 0.644456089 0.707030654 -0.475727051 -0.523250818 0.707030714 -0.475727022 -0.523250818 -0.707030773 -0.47572726 -0.52325052 -0.707030773 -0.47572726 -0.523250461 -0.707030296 0.49700442 0.503085315 -0.707030237 0.49700442 0.503085315 0.707030952 0.497003317 0.503085315 0.707030952 0.497003347 0.503085375 0.706797361 -0.464726001 -0.5333547 -0.7067976 -0.464726329 -0.533354163 -0.706795514 0.507684469 0.492642462 0.706796288 0.507683158 0.492642671 0 0.725807369 -0.68789798 0 -0.725806952 0.687898457 0.61975944 -0.77577275 -0.118637815 0.691803634 -0.626074195 -0.35977602 0.691803634 -0.626074255 -0.35977596 -0.619757891 -0.775773823 -0.118638277 -0.691803098 -0.626074851 -0.359776139 -0.691803098 -0.626074731 -0.359776258 -0.619761467 0.0768921524 0.781014323 -0.691803634 0.325707078 0.644455314 -0.691803634 0.325707048 0.644455373 0.619760633 0.0768907219 0.781015158 0.691803336 0.325706899 0.644455731 0.691803336 0.32570684 0.644455731 0.707031012 -0.475726187 -0.523251116 0.707031012 -0.475726247 -0.523251116 -0.707031012 -0.475726008 -0.523251414 -0.707030952 -0.475726008 -0.523251414 -0.707030296 0.497004986 0.50308466 -0.707030296 0.497004986 0.503084719 0.707030296 0.497005105 0.50308454 0.707030296 0.497005135 0.503084481 0.706796646 -0.464724988 -0.533356428 -0.706796467 -0.46472469 -0.533356965 -0.706796587 0.507685125 0.492640316 0.706796825 0.507684886 0.492640108 0 0.725807667 -0.687897563 -1 -4.33634213e-08 0 -1 -2.15866379e-07 0 -1 -2.78542785e-07 0 0 -0.99999994 0.000464214274 0 -0.489786059 0.871842563 0 -0.131216288 -0.99135375 1 -4.33634213e-08 0 1 -2.15866379e-07 0 1 -2.78542785e-07 0 0 0.99999994 0</float_array>
          <technique_common>
            <accessor source="#normals_array" count="477" stride="3">
              <param name="X" type="float" />
              <param name="Y" type="float" />
              <param name="Z" type="float" />
            </accessor>
          </technique_common>
        </source>
        <vertices id="vertices">
          <input semantic="POSITION" source="#positions" />
        </vertices>
        <triangles material="scout_1a1f21" count="340">
          <input semantic="VERTEX" source="#vertices" offset="0" />
          <input semantic="NORMAL" source="#normals" offset="1" />
          <p>132 157 133 157 134 157 132 157 134 157 135 157 136 158 137 158 138 158 136 158 138 158 139 158 135 159 134 159 137 159 135 159 137 159 136 159 134 160 133 160 138 160 134 160 138 160 137 160 133 161 132 161 139 161 133 161 139 161 138 161 132 162 135 162 136 162 132 162 136 162 139 162 140 163 141 163 142 163 140 163 142 163 143 163 144 164 145 164 146 164 144 164 146 164 147 164 143 0 142 0 145 0 143 0 145 0 144 0 142 165 141 165 146 165 142 165 146 165 145 165 141 17 140 17 147 17 141 17 147 17 146 17 140 166 143 166 144 166 140 166 144 166 147 166 148 167 149 167 150 167 148 167 150 167 151 167 152 168 153 168 154 168 152 168 154 168 155 168 151 0 150 0 153 0 151 0 153 0 152 0 150 169 149 169 154 169 150 169 154 169 153 169 149 17 148 17 155 17 149 17 155 17 154 17 148 170 151 170 152 170 148 170 152 170 155 170 156 171 157 172 158 173 156 171 158 173 159 174 156 171 159 174 160 175 160 175 159 174 161 176 161 176 159 174 162 177 163 178 161 176 162 177 156 171 160 175 164 179 165 180 156 171 164 179 164 179 163 178 162 177 164 179 162 177 166 181 165 180 164 179 166 181 167 182 165 180 166 181 168 183 169 184 170 185 168 183 171 186 169 184 168 183 172 187 171 186 172 187 173 188 171 186 173 188 174 189 171 186 175 190 174 189 173 188 168 183 176 191 172 187 177 192 176 191 168 183 176 191 174 189 175 190 176 191 178 193 174 189 177 192 178 193 176 191 179 194 178 193 177 192 157 195 170 195 169 195 157 195 169 195 158 195 158 196 169 196 171 196 158 196 171 196 159 196 159 197 171 197 174 197 159 197 174 197 162 197 162 198 174 198 178 198 162 198 178 198 166 198 166 199 178 199 179 199 166 199 179 199 167 199 167 200 179 200 177 200 167 200 177 200 165 200 165 201 177 201 168 202 165 201 168 202 156 203 156 203 168 202 170 204 156 203 170 204 157 204 160 205 172 205 176 205 160 205 176 205 164 205 164 206 176 206 175 206 164 206 175 206 163 206 163 207 175 207 173 207 163 207 173 207 161 207 161 208 173 208 172 208 161 208 172 208 160 208 212 258 213 259 214 260 212 258 214 260 215 261 216 262 212 258 217 263 217 263 212 258 218 264 218 264 212 258 215 261 216 262 217 263 219 265 220 266 218 264 215 261 220 266 215 261 221 267 216 262 219 265 220 266 222 268 216 262 220 266 222 268 220 266 221 267 222 268 221 267 223 260 224 269 225 270 226 270 224 269 227 271 225 270 228 272 229 273 224 269 229 273 230 274 224 269 230 274 227 271 224 269 228 272 231 275 229 273 232 276 227 271 230 274 232 276 233 277 227 271 228 272 232 276 231 275 234 278 232 276 228 272 234 278 233 277 232 276 234 278 235 194 233 277 222 279 234 279 228 279 222 279 228 279 216 279 216 280 228 280 224 280 216 280 224 280 212 280 212 281 224 281 226 281 212 281 226 281 213 281 213 195 226 195 225 195 213 195 225 195 214 195 214 282 225 282 227 283 214 282 227 283 215 284 215 284 227 283 233 285 215 284 233 285 221 285 221 286 233 286 235 286 221 286 235 286 223 286 223 199 235 199 234 199 223 199 234 199 222 199 220 287 232 287 230 287 220 287 230 287 218 287 218 288 230 288 229 288 218 288 229 288 217 288 217 289 229 289 231 289 217 289 231 289 219 289 219 290 231 290 232 290 219 290 232 290 220 290 236 291 237 292 238 293 238 293 237 292 239 294 240 295 241 296 242 297 242 297 241 296 243 298 244 0 240 295 242 297 238 293 239 294 245 299 246 300 242 297 243 298 236 291 238 293 247 301 246 300 243 298 236 291 246 300 236 291 247 301 248 302 249 303 250 304 249 303 251 305 250 304 252 306 253 307 254 308 253 307 255 309 254 308 256 17 253 307 252 306 249 303 257 310 251 305 258 311 255 309 253 307 248 302 259 312 249 303 258 311 248 302 255 309 258 311 259 312 248 302 241 313 254 313 255 313 241 313 255 313 243 313 243 36 255 36 248 36 243 36 248 36 236 36 236 314 248 314 250 314 236 314 250 314 237 314 237 315 250 315 251 315 237 315 251 315 239 315 239 316 251 316 257 316 239 316 257 316 245 316 245 317 257 317 249 317 245 317 249 317 238 317 238 318 249 318 259 318 238 318 259 318 247 318 247 38 259 38 258 38 247 38 258 38 246 38 246 319 258 319 253 319 246 319 253 319 242 319 242 320 253 320 256 320 242 320 256 320 244 320 244 321 256 321 252 321 244 321 252 321 240 321 240 322 252 322 254 322 240 322 254 322 241 322 260 323 261 324 262 325 260 323 262 325 263 326 264 327 260 323 265 328 265 328 260 323 263 326 264 327 265 328 266 329 267 330 265 328 263 326 267 330 263 326 268 331 269 332 267 330 268 331 270 333 264 327 266 329 270 333 266 329 269 332 270 333 269 332 268 331 270 333 268 331 271 334 272 335 273 336 274 337 272 335 275 338 273 336 276 339 277 340 272 335 277 340 275 338 272 335 276 339 278 341 277 340 279 342 275 338 277 340 279 342 280 343 275 338 281 344 280 343 279 342 282 345 278 341 276 339 282 345 281 344 278 341 282 345 280 343 281 344 282 345 283 346 280 343 270 347 282 347 276 348 270 347 276 348 264 349 264 349 276 348 272 350 264 349 272 350 260 350 260 351 272 351 274 351 260 351 274 351 261 351 261 352 274 352 273 352 261 352 273 352 262 352 262 353 273 353 275 353 262 353 275 353 263 353 263 354 275 354 280 354 263 354 280 354 268 354 268 355 280 355 283 355 268 355 283 355 271 355 271 356 283 356 282 356 271 356 282 356 270 356 269 357 281 357 279 357 269 357 279 357 267 357 267 358 279 358 277 358 267 358 277 358 265 358 265 359 277 359 278 359 265 359 278 359 266 359 266 360 278 360 281 360 266 360 281 360 269 360 284 361 285 362 286 363 284 361 286 363 287 364 284 361 287 364 288 365 288 365 287 364 289 366 284 361 288 365 290 367 291 368 288 365 289 366 292 369 284 361 290 367 292 369 290 367 293 370 291 368 289 366 294 371 293 370 291 368 294 371 292 369 293 370 294 371 295 372 292 369 294 371 296 373 297 374 298 374 296 373 299 375 297 374 296 373 300 376 299 375 300 376 301 377 299 375 296 373 302 378 300 376 303 379 301 377 300 376 304 380 302 378 296 373 304 380 305 381 302 378 303 379 306 336 301 377 305 381 306 336 303 379 304 380 306 336 305 381 307 374 306 336 304 380 285 352 298 352 297 352 285 352 297 352 286 352 286 382 297 382 299 382 286 382 299 382 287 382 287 383 299 383 301 384 287 383 301 384 289 385 289 385 301 384 306 386 289 385 306 386 294 386 294 356 306 356 307 356 294 356 307 356 295 356 295 387 307 387 304 387 295 387 304 387 292 387 292 388 304 388 296 388 292 388 296 388 284 388 284 389 296 389 298 389 284 389 298 389 285 389 290 390 302 390 305 390 290 390 305 390 293 390 293 391 305 391 303 391 293 391 303 391 291 391 291 392 303 392 300 392 291 392 300 392 288 392 288 393 300 393 302 393 288 393 302 393 290 393 308 394 309 395 310 396 308 394 310 396 311 397 311 397 310 396 312 398 308 394 311 397 313 0 314 399 311 397 312 398 315 0 308 394 313 0 314 399 312 398 316 0 317 400 318 401 319 402 317 400 320 403 318 401 320 403 321 404 318 401 317 400 322 405 320 403 323 406 321 404 320 403 324 17 322 405 317 400 323 406 325 17 321 404 315 37 324 37 317 37 315 37 317 37 308 37 308 407 317 407 319 408 308 407 319 408 309 408 309 408 319 408 318 409 309 408 318 409 310 409 310 409 318 409 321 410 310 409 321 410 312 410 312 39 321 39 325 39 312 39 325 39 316 39 316 411 325 411 323 412 316 411 323 412 314 412 314 412 323 412 320 413 314 412 320 413 311 413 311 413 320 413 322 414 311 413 322 414 313 414 313 414 322 414 324 415 313 414 324 415 315 415 358 39 359 39 360 39 361 39 359 39 358 39 362 467 363 37 364 468 365 469 362 467 364 468 361 470 358 470 362 470 361 470 362 470 365 470 358 471 360 471 363 471 358 471 363 471 362 471 360 0 359 0 364 0 360 0 364 0 363 0 359 472 361 472 365 472 359 472 365 472 364 472 366 473 367 474 368 39 369 475 367 474 366 473 370 37 371 37 372 37 373 37 370 37 372 37 369 470 366 470 370 470 369 470 370 470 373 470 366 471 368 471 371 471 366 471 371 471 370 471 368 0 367 0 372 0 368 0 372 0 371 0 367 472 369 472 373 472 367 472 373 472 372 472 374 39 375 39 376 39 374 39 377 39 375 39 378 37 379 37 380 37 378 37 380 37 381 37 374 82 376 82 379 82 374 82 379 82 378 82 376 36 375 36 380 36 376 36 380 36 379 36 375 476 377 476 381 476 375 476 381 476 380 476 377 38 374 38 378 38 377 38 378 38 381 38</p>
        </triangles>
        <triangles material="scout_b01424" count="32">
          <input semantic="VERTEX" source="#vertices" offset="0" />
          <input semantic="NORMAL" source="#normals" offset="1" />
          <p>185 212 184 211 188 222 185 212 188 222 189 223 184 215 186 214 190 224 184 215 190 224 188 224 186 218 187 217 191 225 186 218 191 225 190 225 187 221 185 220 189 226 187 221 189 226 191 227 201 236 200 235 204 245 201 236 204 245 205 246 200 239 202 238 206 247 200 239 206 247 204 248 202 242 203 241 207 249 202 242 207 249 206 250 203 244 201 244 205 251 203 244 205 251 207 252 331 419 330 418 334 428 331 419 334 428 335 429 330 421 332 421 336 430 330 421 336 430 334 431 332 424 333 423 337 432 332 424 337 432 336 433 333 427 331 426 335 434 333 427 335 434 337 435 347 444 346 443 350 454 347 444 350 454 351 455 346 447 348 446 352 456 346 447 352 456 350 457 348 450 349 449 353 458 348 450 353 458 352 459 349 453 347 452 351 460 349 453 351 460 353 461</p>
        </triangles>
        <triangles material="scout_b8bab5" count="128">
          <input semantic="VERTEX" source="#vertices" offset="0" />
          <input semantic="NORMAL" source="#normals" offset="1" />
          <p>116 17 117 17 118 17 116 17 118 17 119 17 120 0 121 0 122 0 120 0 122 0 123 0 119 155 118 155 121 155 119 155 121 155 120 155 118 39 117 39 122 39 118 39 122 39 121 39 117 156 116 156 123 156 117 156 123 156 122 156 116 37 119 37 120 37 116 37 120 37 123 37 124 17 125 17 126 17 124 17 126 17 127 17 128 0 129 0 130 0 128 0 130 0 131 0 127 155 126 155 129 155 127 155 129 155 128 155 126 39 125 39 130 39 126 39 130 39 129 39 125 156 124 156 131 156 125 156 131 156 130 156 124 37 127 37 128 37 124 37 128 37 131 37 180 209 181 209 182 209 180 209 182 209 183 209 183 210 182 210 184 211 183 210 184 211 185 212 182 213 181 213 186 214 182 213 186 214 184 215 181 216 180 216 187 217 181 216 187 217 186 218 180 219 183 219 185 220 180 219 185 220 187 221 189 223 188 222 192 228 189 223 192 228 193 228 188 224 190 224 194 229 188 224 194 229 192 229 190 225 191 225 195 230 190 225 195 230 194 230 191 227 189 226 193 231 191 227 193 231 195 231 193 232 192 232 194 232 193 232 194 232 195 232 196 233 197 233 198 233 196 233 198 233 199 233 199 234 198 234 200 235 199 234 200 235 201 236 198 237 197 237 202 238 198 237 202 238 200 239 197 240 196 240 203 241 197 240 203 241 202 242 196 243 199 243 201 244 196 243 201 244 203 244 205 246 204 245 208 253 205 246 208 253 209 253 204 248 206 247 210 254 204 248 210 254 208 254 206 250 207 249 211 255 206 250 211 255 210 255 207 252 205 251 209 256 207 252 209 256 211 256 209 257 208 257 210 257 209 257 210 257 211 257 326 416 327 416 328 416 326 416 328 416 329 416 329 417 328 417 330 418 329 417 330 418 331 419 328 420 327 420 332 421 328 420 332 421 330 421 327 422 326 422 333 423 327 422 333 423 332 424 326 425 329 425 331 426 326 425 331 426 333 427 335 429 334 428 338 436 335 429 338 436 339 436 334 431 336 430 340 437 334 431 340 437 338 437 336 433 337 432 341 438 336 433 341 438 340 438 337 435 335 434 339 439 337 435 339 439 341 439 339 440 338 440 340 440 339 440 340 440 341 440 342 441 343 441 344 441 342 441 344 441 345 441 345 442 344 442 346 443 345 442 346 443 347 444 344 445 343 445 348 446 344 445 348 446 346 447 343 448 342 448 349 449 343 448 349 449 348 450 342 451 345 451 347 452 342 451 347 452 349 453 351 455 350 454 354 462 351 455 354 462 355 462 350 457 352 456 356 463 350 457 356 463 354 463 352 459 353 458 357 464 352 459 357 464 356 464 353 461 351 460 355 465 353 461 355 465 357 465 355 466 354 466 356 466 355 466 356 466 357 466 382 17 383 17 384 17 382 17 384 17 385 17 386 0 387 0 388 0 386 0 388 0 389 0 385 155 384 155 387 155 385 155 387 155 386 155 384 39 383 39 388 39 384 39 388 39 387 39 383 156 382 156 389 156 383 156 389 156 388 156 382 37 385 37 386 37 382 37 386 37 389 37 390 17 391 17 392 17 390 17 392 17 393 17 394 0 395 0 396 0 394 0 396 0 397 0 393 155 392 155 395 155 393 155 395 155 394 155 392 39 391 39 396 39 392 39 396 39 395 39 391 156 390 156 397 156 391 156 397 156 396 156 390 37 393 37 394 37 390 37 394 37 397 37</p>
        </triangles>
        <triangles material="scout_dbded4" count="216">
          <input semantic="VERTEX" source="#vertices" offset="0" />
          <input semantic="NORMAL" source="#normals" offset="1" />
          <p>0 0 1 0 2 1 3 2 4 3 5 4 6 5 0 0 2 1 3 2 5 4 7 6 6 5 2 1 3 2 6 5 3 2 8 7 8 7 3 2 9 8 9 8 3 2 7 6 6 5 8 7 10 0 11 9 9 8 7 6 12 10 6 5 10 0 11 9 7 6 13 11 12 10 10 0 11 9 12 10 11 9 13 11 14 12 15 13 16 14 17 15 18 16 19 17 20 18 15 13 14 12 17 15 21 19 18 16 20 18 17 15 15 13 20 18 22 20 17 15 22 20 23 21 17 15 23 21 21 19 17 15 20 18 24 22 22 20 25 23 21 19 23 21 26 24 24 22 20 18 25 23 27 25 21 19 26 24 25 23 24 22 26 24 27 25 25 23 0 26 14 26 16 26 0 26 16 26 1 26 1 27 16 27 15 27 1 27 15 27 2 27 2 28 15 28 17 28 2 28 17 28 3 28 3 29 17 29 19 29 3 29 19 29 4 29 4 30 19 30 18 30 4 30 18 30 5 30 5 31 18 31 21 31 5 31 21 31 7 31 7 32 21 32 27 32 7 32 27 32 13 32 13 33 27 33 26 33 13 33 26 33 12 33 12 34 26 34 20 34 12 34 20 34 6 34 6 35 20 35 14 35 6 35 14 35 0 35 10 36 24 36 25 36 10 36 25 36 11 36 11 37 25 37 23 37 11 37 23 37 9 37 9 38 23 38 22 38 9 38 22 38 8 38 8 39 22 39 24 39 8 39 24 39 10 39 28 0 29 0 30 40 31 41 32 42 33 43 34 44 28 0 35 0 35 0 28 0 30 40 31 41 33 43 36 45 36 45 33 43 37 46 34 44 35 0 38 47 39 0 35 0 30 40 31 41 36 45 40 48 41 0 36 45 37 46 42 49 39 0 30 40 31 41 40 48 43 50 42 49 30 40 31 41 42 49 31 41 43 50 34 44 38 47 44 51 45 52 41 0 37 46 34 44 44 51 46 53 46 53 44 51 45 52 46 53 45 52 47 54 47 54 45 52 48 55 48 55 45 52 49 56 49 56 45 52 37 46 50 0 48 55 49 56 46 53 47 54 51 57 34 44 46 53 52 58 53 59 49 56 37 46 54 60 55 61 56 62 57 63 58 64 59 65 60 66 61 67 54 60 61 67 55 61 54 60 57 63 62 68 58 64 62 68 63 69 58 64 60 66 64 70 61 67 65 17 55 61 61 67 57 63 66 71 62 68 67 72 63 69 62 68 68 73 55 61 65 17 57 63 69 74 66 71 68 73 57 63 55 61 68 73 69 74 57 63 60 66 70 75 64 70 71 76 63 69 67 72 60 66 72 77 70 75 72 77 71 76 70 75 72 77 73 78 71 76 73 78 74 79 71 76 74 79 75 80 71 76 75 80 63 69 71 76 76 81 75 80 74 79 72 77 77 17 73 78 60 66 78 82 72 77 79 82 63 69 75 80 34 37 60 37 54 37 34 37 54 37 28 37 28 83 54 83 56 83 28 83 56 83 29 83 29 84 56 84 55 84 29 84 55 84 30 84 30 85 55 85 57 85 30 85 57 85 31 85 31 86 57 86 59 86 31 86 59 86 32 86 32 87 59 87 58 87 32 87 58 87 33 87 33 39 58 39 63 39 33 39 63 39 37 39 37 88 63 88 79 88 37 88 79 88 53 88 53 89 79 89 75 89 53 89 75 89 49 89 49 90 75 90 76 90 49 90 76 90 50 90 50 91 76 91 74 91 50 91 74 91 48 91 48 92 74 92 73 92 48 92 73 92 47 92 47 93 73 93 77 93 47 93 77 93 51 93 51 94 77 94 72 94 51 94 72 94 46 94 46 95 72 95 78 95 46 95 78 95 52 95 52 96 78 96 60 96 52 96 60 96 34 96 38 97 64 97 70 97 38 97 70 97 44 97 44 36 70 36 71 36 44 36 71 36 45 36 45 98 71 98 67 98 45 98 67 98 41 98 41 99 67 99 62 99 41 99 62 99 36 99 36 100 62 100 66 100 36 100 66 100 40 100 40 101 66 101 69 101 40 101 69 101 43 101 43 38 69 38 68 38 43 38 68 38 42 38 42 102 68 102 65 102 42 102 65 102 39 102 39 103 65 103 61 103 39 103 61 103 35 103 35 104 61 104 64 104 35 104 64 104 38 104 80 105 81 106 82 107 83 0 80 105 82 107 84 0 85 0 86 0 84 0 86 0 87 0 88 108 89 109 90 110 91 17 89 109 88 108 92 17 93 17 94 17 92 17 95 17 93 17 81 111 90 111 89 111 81 111 89 111 82 111 82 112 89 112 91 112 82 112 91 112 83 112 83 113 91 113 88 113 83 113 88 113 80 113 80 114 88 114 90 114 80 114 90 114 81 114 85 115 94 115 93 115 85 115 93 115 86 115 86 116 93 116 95 116 86 116 95 116 87 116 87 117 95 117 92 117 87 117 92 117 84 117 84 118 92 118 94 118 84 118 94 118 85 118 96 119 97 120 98 121 99 122 96 119 98 121 100 123 99 122 98 121 101 124 102 125 103 126 104 127 102 125 101 124 105 128 102 125 104 127 96 129 101 129 103 129 96 129 103 129 97 129 97 130 103 130 102 130 97 130 102 130 98 130 98 131 102 131 105 132 98 131 105 132 100 133 100 133 105 132 104 134 100 133 104 134 99 135 99 135 104 134 101 136 99 135 101 136 96 136 106 137 107 138 108 139 106 137 108 139 109 140 106 137 109 140 110 141 111 142 112 143 113 144 111 142 114 145 112 143 111 142 115 146 114 145 107 147 113 147 112 147 107 147 112 147 108 147 108 148 112 148 114 149 108 148 114 149 109 150 109 150 114 149 115 151 109 150 115 151 110 152 110 152 115 151 111 153 110 152 111 153 106 153 106 154 111 154 113 154 106 154 113 154 107 154</p>
        </triangles>
      </mesh>
    </geometry>
  </library_geometries>
  <library_visual_scenes>
    <visual_scene id="scene">
      <node id="body">
        <instance_geometry url="#geometry">
          <bind_material>
            <technique_common>
              <instance_material symbol="scout_1a1f21" target="#scout_1a1f21" />
              <instance_material symbol="scout_b01424" target="#scout_b01424" />
              <instance_material symbol="scout_b8bab5" target="#scout_b8bab5" />
              <instance_material symbol="scout_dbded4" target="#scout_dbded4" />
            </technique_common>
          </bind_material>
        </instance_geometry>
      </node>
    </visual_scene>
  </library_visual_scenes>
  <scene>
    <instance_visual_scene url="#scene" />
  </scene>
</COLLADA>