<?xml version='1.0' encoding='utf-8'?>
<COLLADA xmlns="http://www.collada.org/2005/11/COLLADASchema" version="1.4.1">
  <asset>
    <created>2026-09-14T00:00:00Z</created>
    <modified>2026-09-14T00:00:00Z</modified>
    <unit name="metre" meter="1" />
    <up_axis>Z_UP</up_axis>
  </asset>
  <library_effects>
    <effect id="scout_11141b_effect">
      <profile_COMMON>
        <technique sid="common">
          <phong>
            <emission>
              <color>0 0 0 1</color>
            </emission>
            <ambient>
              <color>0.0325 0.04 0.0525 1</color>
            </ambient>
            <diffuse>
              <color>0.065 0.08 0.105 1</color>
            </diffuse>
            <specular>
              <color>0.035 0.035 0.035 1</color>
            </specular>
            <shininess>
              <float>24</float>
            </shininess>
          </phong>
        </technique>
      </profile_COMMON>
    </effect>
    <effect id="scout_1a1f21_effect">
      <profile_COMMON>
        <technique sid="common">
          <phong>
            <emission>
              <color>0 0 0 1</color>
            </emission>
            <ambient>
              <color>0.05 0.06 0.065 1</color>
            </ambient>
            <diffuse>
              <color>0.1 0.12 0.13 1</color>
            </diffuse>
            <specular>
              <color>0.035 0.035 0.035 1</color>
            </specular>
            <shininess>
              <float>24</float>
            </shininess>
          </phong>
        </technique>
      </profile_COMMON>
    </effect>
    <effect id="scout_b8bab5_effect">
      <profile_COMMON>
        <technique sid="common">
          <phong>
            <emission>
              <color>0 0 0 1</color>
            </emission>
            <ambient>
              <color>0.36 0.365 0.355 1</color>
            </ambient>
            <diffuse>
              <color>0.72 0.73 0.71 1</color>
            </diffuse>
            <specular>
              <color>0.035 0.035 0.035 1</color>
            </specular>
            <shininess>
              <float>24</float>
            </shininess>
          </phong>
        </technique>
      </profile_COMMON>
    </effect>
    <effect id="scout_dbded4_effect">
      <profile_COMMON>
        <technique sid="common">
          <phong>
            <emission>
              <color>0 0 0 1</color>
            </emission>
            <ambient>
              <color>0.43 0.435 0.415 1</color>
            </ambient>
            <diffuse>
              <color>0.86 0.87 0.83 1</color>
            </diffuse>
            <specular>
              <color>0.035 0.035 0.035 1</color>
            </specular>
            <shininess>
              <float>24</float>
            </shininess>
          </phong>
        </technique>
      </profile_COMMON>
    </effect>
  </library_effects>
  <library_materials>
    <material id="scout_11141b" name="scout_11141b">
      <instance_effect url="#scout_11141b_effect" />
    </material>
    <material id="scout_1a1f21" name="scout_1a1f21">
      <instance_effect url="#scout_1a1f21_effect" />
    </material>
    <material id="scout_b8bab5" name="scout_b8bab5">
      <instance_effect url="#scout_b8bab5_effect" />
    </material>
    <material id="scout_dbded4" name="scout_dbded4">
      <instance_effect url="#scout_dbded4_effect" />
    </material>
  </library_materials>
  <library_geometries>
    <geometry id="geometry" name="payload">
      <mesh>
        <source id="positions">
          <float_array id="positions_array" count="690">0.182595938 -0.0461792797 0.0959994495 0.182595938 -0.0461792797 0.121000618 0.182595938 0.0437448025 0.121000618 0.182595938 0.0437448025 0.0959994495 0.207595915 0.0437448025 0.121000618 0.207595915 0.0437448025 0.0959994495 0.207595915 -0.0461792797 0.121000618 0.207595915 -0.0461792797 0.0959994495 -0.0403063595 -0.0662551969 0.188999981 -0.0403063595 -0.0662551969 0.201000005 -0.0403063595 0.0637447983 0.201000005 -0.0403063595 0.0637447983 0.188999981 0.0846936405 0.0637447983 0.201000005 0.0846936405 0.0637447983 0.188999981 0.0846936405 -0.0662551969 0.201000005 0.0846936405 -0.0662551969 0.188999981 0.0578436404 -0.00125520001 0.200800002 0.0437847637 -0.0351963267 0.200800002 0.00984364003 -0.0492551997 0.200800002 -0.0240974855 -0.0351963267 0.200800002 -0.0381563604 -0.00125520001 0.200800002 -0.0240974855 0.0326859243 0.200800002 0.00984364003 0.0467448011 0.200800002 0.0437847637 0.0326859243 0.200800002 0.0448454246 0.0337465852 0.221000001 0.0593436398 -0.00125520001 0.221000001 0.00984364003 0.0482448004 0.221000001 -0.0251581464 0.0337465852 0.221000001 -0.0396563597 -0.00125520001 0.221000001 -0.0251581464 -0.0362569839 0.221000001 0.00984364003 -0.050755199 0.221000001 0.0448454246 -0.0362569839 0.221000001 0.0430776589 0.0319788195 0.300799996 0.0568436384 -0.00125520001 0.300799996 0.00984364003 0.0457447991 0.300799996 -0.0233903788 0.0319788195 0.300799996 -0.0371563584 -0.00125520001 0.300799996 -0.0233903788 -0.0344892181 0.300799996 0.00984364003 -0.0482552014 0.300799996 0.0430776589 -0.0344892181 0.300799996 -0.0885580033 0.0127450004 0.142000005 0.122828998 0.0922089964 0.142000005 -0.0898979977 0.0922089964 0.142000005 0.0425500013 0.0407450013 0.142000005 0.140694007 0.0574939996 0.142000005 0.09155 0.0407450013 0.142000005 0.140694007 -0.0600039996 0.142000005 -0.00849600043 0.0065390002 0.142000005 0.0425500013 -0.0432550013 0.142000005 0.09155 -0.0432550013 0.142000005 -0.00849600043 -0.00904900022 0.142000005 -0.0885580033 -0.0152550004 0.142000005 -0.0898979977 -0.0947199985 0.142000005 0.122828998 -0.0947199985 0.142000005 -0.0885580033 0.0127450004 0.140000001 -0.0898979977 0.0922089964 0.140000001 0.122828998 0.0922089964 0.140000001 0.0425500013 0.0407450013 0.140000001 0.140694007 0.0574939996 0.140000001 0.09155 0.0407450013 0.140000001 0.140694007 -0.0600039996 0.140000001 -0.00849600043 0.0065390002 0.140000001 0.0425500013 -0.0432550013 0.140000001 0.09155 -0.0432550013 0.140000001 -0.00849600043 -0.00904900022 0.140000001 -0.0885580033 -0.0152550004 0.140000001 -0.0898979977 -0.0947199985 0.140000001 0.122828998 -0.0947199985 0.140000001 -0.0634500012 0.00908499956 0.188999996 0.120693997 0.0922089964 0.188999996 -0.0864500031 0.0922089964 0.188999996 -0.015656 0.0065390002 0.188999996 0.120693997 -0.0947199985 0.188999996 -0.0634500012 -0.0115949996 0.188999996 -0.0864500031 -0.0947199985 0.188999996 -0.0634500012 0.00908499956 0.187000006 -0.0864500031 0.0922089964 0.187000006 0.120693997 0.0922089964 0.187000006 -0.015656 0.0065390002 0.187000006 0.120693997 -0.0947199985 0.187000006 -0.0634500012 -0.0115949996 0.187000006 -0.0864500031 -0.0947199985 0.187000006 -0.0744500011 -0.0987199992 0.0960000008 -0.0864499956 -0.0987199992 0.0960000008 -0.0864499956 -0.094720006 0.0960000008 -0.0744500011 -0.094720006 0.0960000008 -0.0744500011 -0.094720006 0.187000006 -0.0864499956 -0.094720006 0.187000006 -0.0864499956 -0.0987199992 0.187000006 -0.0744500011 -0.0987199992 0.187000006 -0.0744500011 0.0922090039 0.0960000008 -0.0864499956 0.0922090039 0.0960000008 -0.0864499956 0.0962089971 0.0960000008 -0.0744500011 0.0962089971 0.0960000008 -0.0744500011 0.0962089971 0.187000006 -0.0864499956 0.0962089971 0.187000006 -0.0864499956 0.0922090039 0.187000006 -0.0744500011 0.0922090039 0.187000006 0.120693997 -0.0987199992 0.0960000008 0.108694002 -0.0987199992 0.0960000008 0.108694002 -0.094720006 0.0960000008 0.120693997 -0.094720006 0.0960000008 0.120693997 -0.094720006 0.187000006 0.108694002 -0.094720006 0.187000006 0.108694002 -0.0987199992 0.187000006 0.120693997 -0.0987199992 0.187000006 0.120693997 0.0922090039 0.0960000008 0.108694002 0.0922090039 0.0960000008 0.108694002 0.0962089971 0.0960000008 0.120693997 0.0962089971 0.0960000008 0.120693997 0.0962089971 0.187000006 0.108694002 0.0962089971 0.187000006 0.108694002 0.0922090039 0.187000006 0.120693997 0.0922090039 0.187000006 -0.173089534 0.135244802 0.0331903771 -0.161813214 0.135244802 0.0290861297 -0.161813214 -0.1377552 0.0290861297 -0.173089534 -0.1377552 0.0331903771 -0.113920055 -0.1377552 0.195757195 -0.102643728 -0.1377552 0.191652954 -0.102643728 0.135244802 0.191652954 -0.113920055 0.135244802 0.195757195 -0.147725999 -0.133855 0.0179999992 0.185433999 -0.101255 0.0179999992 -0.142726004 -0.0975949988 0.0179999992 0.186774001 -0.133855 0.0179999992 -0.146385998 0.0987450033 0.0179999992 0.186774001 0.131345004 0.0179999992 -0.147725999 0.131345004 0.0179999992 0.181774005 0.0950850025 0.0179999992 -0.147725999 -0.133855 0.0160000008 -0.142726004 -0.0975949988 0.0160000008 0.185433999 -0.101255 0.0160000008 0.186774001 -0.133855 0.0160000008 -0.146385998 0.0987450033 0.0160000008 -0.147725999 0.131345004 0.0160000008 0.186774001 0.131345004 0.0160000008 0.181774005 0.0950850025 0.0160000008 -0.118607998 -0.098755002 0.0960000008 -0.105608001 0.0732449964 0.0960000008 -0.118607998 0.0962449983 0.0960000008 0.119645998 0.0962449983 0.0960000008 0.091392003 0.0732449964 0.0960000008 0.209710002 0.0534639992 0.0960000008 -0.105608001 0.0532450005 0.0960000008 0.091392003 0.0532450005 0.0960000008 0.209710002 -0.0559750013 0.0960000008 -0.105608001 -0.0557550006 0.0960000008 0.091392003 -0.0557550006 0.0960000008 -0.105608001 -0.0757550001 0.0960000008 0.091392003 -0.0757550001 0.0960000008 0.119733997 -0.0992079973 0.0960000008 -0.118607998 -0.098755002 0.0939999968 -0.118607998 0.0962449983 0.0939999968 -0.105608001 0.0732449964 0.0939999968 0.119645998 0.0962449983 0.0939999968 0.091392003 0.0732449964 0.0939999968 0.209710002 0.0534639992 0.0939999968 -0.105608001 0.0532450005 0.0939999968 0.091392003 0.0532450005 0.0939999968 0.209710002 -0.0559750013 0.0939999968 -0.105608001 -0.0557550006 0.0939999968 0.091392003 -0.0557550006 0.0939999968 -0.105608001 -0.0757550001 0.0939999968 0.091392003 -0.0757550001 0.0939999968 0.119733997 -0.0992079973 0.0939999968 -0.145631999 -0.135439232 0.0213147979 -0.119425997 -0.100339226 0.0933147967 -0.102972001 -0.106950223 0.0797537938 0.121532001 -0.100339241 0.0933147967 0.112126 -0.106958516 0.0797367916 0.181946993 -0.135439247 0.0213147979 -0.111078002 -0.117497288 0.0581187978 0.0423440002 -0.109453544 0.074618794 0.0580300018 -0.107438706 0.078751795 0.154007003 -0.131284773 0.0298367981 0.0999120027 -0.131764948 0.0288517978 -0.0842190012 -0.110017575 0.0734617934 0.0689370036 -0.124832712 0.043071799 -0.116669998 -0.124832697 0.043071799 -0.124589004 -0.135439232 0.0213147979 0.0871929973 -0.135439247 0.0213147979 -0.145631999 -0.137236997 0.0221912023 -0.102972001 -0.108747974 0.0806302056 -0.119425997 -0.102136977 0.0941912085 0.121532001 -0.102136992 0.0941912085 0.112126 -0.108756267 0.0806132033 0.181946993 -0.137237012 0.0221912023 -0.111078002 -0.119295038 0.0589952022 0.0423440002 -0.111251295 0.0754952058 0.0580300018 -0.109236456 0.0796282068 0.154007003 -0.133082539 0.0307132024 0.0999120027 -0.133562714 0.0297282021 -0.0842190012 -0.111815326 0.0743382052 0.0689370036 -0.12663047 0.0439482033 -0.116669998 -0.126630455 0.0439482033 -0.124589004 -0.137236997 0.0221912023 0.0871929973 -0.137237012 0.0221912023 -0.119425997 0.0996265933 0.0941912085 0.121399 0.0995422527 0.0943642035 0.112126 0.106245868 0.0806132033 0.181946993 0.134726599 0.0221912023 -0.145631999 0.134726599 0.0221912023 -0.102972001 0.106237575 0.0806302056 -0.111078002 0.11678464 0.0589952022 0.0423440002 0.108740889 0.0754952058 0.0580300018 0.10672605 0.0796282068 0.154007003 0.130572125 0.0307132024 0.0999120027 0.131052315 0.0297282021 -0.0842190012 0.109304927 0.0743382052 0.0689370036 0.124120049 0.0439482033 -0.116669998 0.124120049 0.0439482033 -0.124589004 0.134726599 0.0221912023 0.0871929973 0.134726599 0.0221912023 -0.119425997 0.0978288427 0.0933147967 0.112126 0.104448117 0.0797367916 0.121399 0.0977445021 0.0934877917 0.181946993 0.132928833 0.0213147979 -0.145631999 0.132928833 0.0213147979 -0.102972001 0.104439825 0.0797537938 -0.111078002 0.114986889 0.0581187978 0.0423440002 0.106943138 0.074618794 0.0580300018 0.1049283 0.078751795 0.154007003 0.12877436 0.0298367981 0.0999120027 0.12925455 0.0288517978 -0.0842190012 0.107507177 0.0734617934 0.0689370036 0.122322299 0.043071799 -0.116669998 0.122322299 0.043071799 -0.124589004 0.132928833 0.0213147979 0.0871929973 0.132928833 0.0213147979</float_array>
          <technique_common>
            <accessor source="#positions_array" count="230" stride="3">
              <param name="X" type="float" />
              <param name="Y" type="float" />
              <param name="Z" type="float" />
            </accessor>
          </technique_common>
        </source>
        <source id="normals">
          <float_array id="normals_array" count="645">-1 0 0 0 1 0 1 0 0 0 -1 0 0 0 -1 0 0 1 0.921713054 0.381786078 -0.0684440359 0.923703432 0.38261047 -0.0195228271 0.923703492 0.38261053 -0.0195228308 0.381786376 0.921712875 -0.0684439838 0.382610649 0.923703372 -0.0195228085 -0.381786376 0.921712875 -0.0684436709 -0.382610589 0.923703372 -0.0195226558 -0.921713054 0.381786078 -0.0684440359 -0.923703492 0.3826105 -0.0195228215 -0.923703432 0.38261044 -0.0195228178 -0.921713054 -0.381786078 -0.0684440136 -0.923703432 -0.38261047 -0.0195228159 -0.923703492 -0.3826105 -0.0195228178 -0.381786108 -0.921712995 -0.0684438348 -0.382610559 -0.923703372 -0.0195227582 -0.38261053 -0.923703372 -0.0195227526 0.381786108 -0.921712995 -0.0684439912 0.38261053 -0.923703372 -0.0195228104 0.382610559 -0.923703372 -0.0195228141 0.921713054 -0.381786078 -0.0684440359 0.923703492 -0.38261053 -0.0195228271 0.923703432 -0.3826105 -0.0195228271 0.923492849 0.382523328 0.028931478 0.382523209 0.923492849 0.0289314706 -0.382523179 0.923492849 0.0289314669 -0.923492849 0.382523209 0.0289314967 -0.923492849 -0.382523209 0.0289314836 -0.382523298 -0.923492789 0.0289314259 0.382523328 -0.923492789 0.0289314669 0.923492849 -0.382523328 0.0289314836 -1.85408364e-08 0 1 -2.12897415e-08 0 1 -1.22193825e-07 0 1 1.49884212e-08 0 1 -2.01474407e-07 0 1 -3.43624365e-08 0 1 4.50178383e-08 0 1 -5.45742807e-07 0 1 7.36785069e-08 0 1 7.46613011e-08 0 1 5.26763131e-08 0 -1 2.4576039e-08 0 -1 -4.34519087e-08 0 -1 -1.33440267e-07 0 -1 -3.87892101e-08 0 -1 -2.07690807e-08 0 -1 -1.81859718e-07 0 -1 -3.83055976e-07 0 -1 5.26736343e-08 0 -1 -0.999857903 0.0168602355 0 -0.0772831067 0.997009277 0 -0.0772831067 -0.997009277 0 -0.999857903 -0.0168605316 0 0.88916713 0.457582653 0 0.971896887 0.23540701 0 0.971898198 -0.23540169 0 0.889172077 -0.457572907 0 2.11334722e-07 0 1 2.61040668e-07 0 1 4.21055944e-07 0 1 1.73455064e-07 0 1 -2.11334722e-07 0 -1 -2.61040668e-07 0 -1 -2.35219559e-07 0 -1 -1.03816909e-07 0 -1 1.81898642e-07 0 -1 -0.963787496 0.266671538 0 -0.354743809 0.934963524 0 -0.0531946123 -0.998584211 0 -0.963786662 -0.26667431 0 -0.342020512 0 -0.939692497 0.342020065 0 0.939692616 0 -1 -1.12153337e-07 0.939692557 0 -0.342020094 0 1 1.68230002e-07 -0.939692616 0 0.342020154 -5.12106801e-09 0 -1 -5.49479839e-09 0 -1 -3.67887137e-10 0 -1 6.54021781e-10 0 -1 9.10412368e-09 0 -1 9.76853443e-09 0 -1 -0.990626216 0.13660039 0 0.0111524034 0.999937832 0 0.999156296 0.0410695858 0 0.990626216 -0.13660039 0 -0.0111524044 -0.999937832 0 -0.999156296 -0.0410700329 0 2.60814687e-07 0 1 -3.14446595e-07 0 1 -6.01618737e-08 0 1 -8.66430673e-06 0 1 -3.92912973e-08 0 1 1.58890919e-06 0 1 -1.02370379e-09 0 1 -1.02107682e-08 0 1 -1.8631809e-07 0 1 -2.52482295e-07 0 -1 2.43643228e-07 0 -1 9.82589154e-06 0 -1 3.57100416e-09 0 -1 -1.58890919e-06 0 -1 1.4331853e-08 0 -1 1.28359172e-08 0 -1 0.219915196 0.975519001 0 0.429062903 0.903274596 0 0.433094025 -0.90134865 0 0.221167088 -0.975235939 0 -0.00190061238 -0.999998212 0 1.24261931e-07 0.89887625 -0.43820256 1.88684808e-07 0.898876429 -0.438202262 1.79484786e-07 0.898876488 -0.438202173 1.68812477e-07 0.898876369 -0.438202292 1.30849173e-07 0.898876309 -0.4382025 6.35470876e-09 0.898876131 -0.438202828 3.72850849e-07 0.898876369 -0.438202351 1.35761251e-08 0.898876667 -0.438201725 2.59148436e-08 0.89887017 -0.438215137 1.94700478e-09 0.898876131 -0.438202858 -2.00507372e-07 0.898876011 -0.438203096 3.47188553e-08 0.898876548 -0.438202083 -5.21025299e-07 0.898875952 -0.438203186 2.12794831e-08 0.898876011 -0.438203007 0 0.89887625 -0.438202471 -4.65406401e-07 0.89887619 -0.43820262 2.23223076e-08 -0.898876131 0.438202769 -6.07496853e-09 -0.898876488 0.438201904 -1.40170107e-08 -0.898876488 0.438202053 -1.68060723e-07 -0.898876548 0.438202053 -1.30652978e-07 -0.898876429 0.438202232 -6.3545702e-09 -0.898876071 0.438202947 8.52439541e-08 -0.898876488 0.438202113 -2.01900059e-11 -0.898877501 0.438199997 -2.41617326e-09 -0.89887017 0.438215137 -1.94690886e-09 -0.898876131 0.438202798 1.35296531e-07 -0.898875833 0.438203454 -9.27198869e-08 -0.898876607 0.438201874 4.95839913e-07 -0.89887625 0.43820256 -1.5959623e-08 -0.898876309 0.438202351 0 -0.898875892 0.438203245 2.79243608e-07 -0.898875654 0.438203841 0 0.438205689 0.8988747 0.79836899 0.263876081 0.541272879 0 -0.438199759 -0.898877561 -0.79837358 -0.263866842 -0.541270733 -3.9200998e-08 -0.438203484 -0.898875773 0.950426698 -0.136257529 -0.279504687 0 -0.438200146 -0.898877442 -0.950427115 0.136255383 0.279504567 -0.284173667 0.420139879 0.861816645 -0.28417325 0.420139909 0.861816704 -0.0101696467 0.438183129 0.898828268 -0.0392818563 -0.43786791 -0.898180664 0.947698057 -0.139859498 -0.286893189 -0.536360264 0.369841039 0.758640409 -0.020252943 0.438109875 0.898693204 -0.798301399 -0.26391089 -0.541355729 0.0202526152 -0.438116133 -0.898690224 0.798295498 0.263915449 0.541362166 2.76692958e-07 0.898876667 0.438201696 1.64410622e-07 0.898876369 0.438202351 1.36382084e-07 0.898876309 0.43820256 6.58080523e-08 0.898876607 0.438201725 2.14807912e-07 0.898876131 0.438202649 1.80191265e-07 0.898876965 0.438201129 1.6385485e-07 0.898876727 0.438201547 -2.89824218e-08 0.898876667 0.438201666 -3.15266119e-10 0.89887017 0.438215137 2.80295964e-08 0.898877382 0.438200265 -1.6083672e-07 0.898876309 0.438202351 3.01441823e-08 0.898876607 0.438201934 -7.34915488e-07 0.898876429 0.438202262 3.92421782e-07 0.898876131 0.438202798 0 0.898876131 0.438202888 -2.79244148e-07 0.898876786 0.438201427 -2.35485217e-07 -0.898876667 -0.438201785 -1.36339068e-07 -0.89887625 -0.4382025 -1.64410636e-07 -0.898876369 -0.438202381 -6.58082158e-08 -0.898877025 -0.43820104 -1.89766869e-08 -0.898876369 -0.438202411 -9.98192959e-08 -0.898876786 -0.438201547 3.40999577e-07 -0.898876309 -0.43820253 -8.6787546e-09 -0.898876667 -0.438201725 4.83299223e-09 -0.89887017 -0.438215137 -2.80295858e-08 -0.898877621 -0.438199669 3.10053707e-08 -0.898876011 -0.438203096 -3.01442071e-08 -0.898876905 -0.438201338 1.30374032e-08 -0.898876309 -0.43820253 0 -0.898875892 -0.438203335 0 -0.898876429 -0.438202113 9.30812618e-08 -0.898875952 -0.438203245 -0.000799182861 -0.438204944 0.89887464 0.798429728 -0.263837874 0.541202068 0 0.438199759 -0.898877561 -0.798374891 0.263867587 -0.541268408 0 0.438201547 -0.898876786 0.950426698 0.136257693 -0.279505014 0 0.438200146 -0.898877442 -0.950427711 -0.136255667 0.279502392 -0.28417325 -0.420139909 0.861816704 -0.284173667 -0.420139879 0.861816645 -0.0101696467 -0.438183129 0.898828268 -0.0392817445 0.437866628 -0.898181319 0.947698057 0.139859498 -0.286893189 -0.536360264 -0.369841039 0.758640409 -0.020253012 -0.438109875 0.898693204 -0.798301399 0.26391089 -0.541355729 0.0202526152 0.438116074 -0.898690224 0.798293948 -0.263914943 0.541364431</float_array>
          <technique_common>
            <accessor source="#normals_array" count="215" stride="3">
              <param name="X" type="float" />
              <param name="Y" type="float" />
              <param name="Z" type="float" />
            </accessor>
          </technique_common>
        </source>
        <vertices id="vertices">
          <input semantic="POSITION" source="#positions" />
        </vertices>
        <triangles material="scout_11141b" count="18">
          <input semantic="VERTEX" source="#vertices" offset="0" />
          <input semantic="NORMAL" source="#normals" offset="1" />
          <p>5 2 4 2 6 2 5 2 6 2 7 2 25 8 24 7 32 28 25 8 32 28 33 28 24 10 26 10 34 29 24 10 34 29 32 29 26 12 27 12 35 30 26 12 35 30 34 30 27 15 28 14 36 31 27 15 36 31 35 31 28 18 29 17 37 32 28 18 37 32 36 32 29 21 30 20 38 33 29 21 38 33 37 33 30 24 31 23 39 34 30 24 39 34 38 34 31 27 25 26 33 35 31 27 33 35 39 35</p>
        </triangles>
        <triangles material="scout_1a1f21" count="12">
          <input semantic="VERTEX" source="#vertices" offset="0" />
          <input semantic="NORMAL" source="#normals" offset="1" />
          <p>114 76 115 76 116 76 114 76 116 76 117 76 118 77 119 77 120 77 118 77 120 77 121 77 117 78 116 78 119 78 117 78 119 78 118 78 116 79 115 79 120 79 116 79 120 79 119 79 115 80 114 80 121 80 115 80 121 80 120 80 114 81 117 81 118 81 114 81 118 81 121 81</p>
        </triangles>
        <triangles material="scout_b8bab5" count="388">
          <input semantic="VERTEX" source="#vertices" offset="0" />
          <input semantic="NORMAL" source="#normals" offset="1" />
          <p>8 0 9 0 10 0 8 0 10 0 11 0 11 1 10 1 12 1 11 1 12 1 13 1 13 2 12 2 14 2 13 2 14 2 15 2 15 3 14 3 9 3 15 3 9 3 8 3 11 4 13 4 15 4 11 4 15 4 8 4 12 5 10 5 9 5 12 5 9 5 14 5 16 4 17 4 18 4 18 4 19 4 20 4 20 4 21 4 22 4 22 4 23 4 16 4 16 4 18 4 20 4 20 4 22 4 16 4 16 6 23 6 24 7 16 6 24 7 25 8 23 9 22 9 26 10 23 9 26 10 24 10 22 11 21 11 27 12 22 11 27 12 26 12 21 13 20 13 28 14 21 13 28 14 27 15 20 16 19 16 29 17 20 16 29 17 28 18 19 19 18 19 30 20 19 19 30 20 29 21 18 22 17 22 31 23 18 22 31 23 30 24 17 25 16 25 25 26 17 25 25 26 31 27 39 5 33 5 32 5 32 5 34 5 35 5 35 5 36 5 37 5 37 5 38 5 39 5 39 5 32 5 35 5 35 5 37 5 39 5 40 36 41 37 42 5 40 36 43 38 41 37 43 38 44 5 41 37 43 38 45 5 44 5 45 5 46 39 44 5 40 36 47 40 43 38 47 40 48 41 43 38 49 42 46 39 45 5 50 43 48 41 47 40 51 44 48 41 50 43 52 45 48 41 51 44 52 45 49 42 48 41 52 45 46 39 49 42 52 45 53 5 46 39 54 46 55 4 56 4 54 46 56 4 57 47 57 47 56 4 58 4 57 47 58 4 59 48 59 48 58 4 60 49 54 46 57 47 61 50 61 50 57 47 62 51 63 52 59 48 60 49 64 53 61 50 62 51 65 54 64 53 62 51 66 4 65 54 62 51 66 4 62 51 63 52 66 4 63 52 60 49 66 4 60 49 67 4 52 55 51 55 65 55 52 55 65 55 66 55 51 56 50 56 64 56 51 56 64 56 65 56 50 0 47 0 61 0 50 0 61 0 64 0 47 57 40 57 54 57 47 57 54 57 61 57 40 58 42 58 55 58 40 58 55 58 54 58 42 1 41 1 56 1 42 1 56 1 55 1 41 59 44 60 58 60 41 59 58 60 56 59 44 60 46 61 60 61 44 60 60 61 58 60 46 61 53 62 67 62 46 61 67 62 60 61 53 3 52 3 66 3 53 3 66 3 67 3 48 1 49 1 63 1 48 1 63 1 62 1 49 0 45 0 59 0 49 0 59 0 63 0 45 3 43 3 57 3 45 3 57 3 59 3 43 2 48 2 62 2 43 2 62 2 57 2 68 63 69 64 70 5 68 63 71 65 69 64 71 65 72 66 69 64 73 5 72 66 71 65 74 5 72 66 73 5 75 67 76 4 77 68 75 67 77 68 78 69 78 69 77 68 79 70 80 71 78 69 79 70 81 4 80 71 79 70 74 72 73 72 80 72 74 72 80 72 81 72 73 73 71 73 78 73 73 73 78 73 80 73 71 74 68 74 75 74 71 74 75 74 78 74 68 75 70 75 76 75 68 75 76 75 75 75 70 1 69 1 77 1 70 1 77 1 76 1 69 2 72 2 79 2 69 2 79 2 77 2 72 3 74 3 81 3 72 3 81 3 79 3 82 4 83 4 84 4 82 4 84 4 85 4 86 5 87 5 88 5 86 5 88 5 89 5 85 1 84 1 87 1 85 1 87 1 86 1 84 0 83 0 88 0 84 0 88 0 87 0 83 3 82 3 89 3 83 3 89 3 88 3 82 2 85 2 86 2 82 2 86 2 89 2 90 4 91 4 92 4 90 4 92 4 93 4 94 5 95 5 96 5 94 5 96 5 97 5 93 1 92 1 95 1 93 1 95 1 94 1 92 0 91 0 96 0 92 0 96 0 95 0 91 3 90 3 97 3 91 3 97 3 96 3 90 2 93 2 94 2 90 2 94 2 97 2 98 4 99 4 100 4 98 4 100 4 101 4 102 5 103 5 104 5 102 5 104 5 105 5 101 1 100 1 103 1 101 1 103 1 102 1 100 0 99 0 104 0 100 0 104 0 103 0 99 3 98 3 105 3 99 3 105 3 104 3 98 2 101 2 102 2 98 2 102 2 105 2 106 4 107 4 108 4 106 4 108 4 109 4 110 5 111 5 112 5 110 5 112 5 113 5 109 1 108 1 111 1 109 1 111 1 110 1 108 0 107 0 112 0 108 0 112 0 111 0 107 3 106 3 113 3 107 3 113 3 112 3 106 2 109 2 110 2 106 2 110 2 113 2 122 5 123 5 124 5 122 5 125 5 123 5 126 5 127 5 128 5 126 5 129 5 127 5 130 82 131 83 132 84 130 82 132 84 133 4 134 85 135 4 136 86 134 85 136 86 137 87 122 88 124 88 131 88 122 88 131 88 130 88 124 89 123 89 132 89 124 89 132 89 131 89 123 90 125 90 133 90 123 90 133 90 132 90 125 3 122 3 130 3 125 3 130 3 133 3 128 1 127 1 136 1 128 1 136 1 135 1 127 91 129 91 137 91 127 91 137 91 136 91 129 92 126 92 134 92 129 92 134 92 137 92 126 93 128 93 135 93 126 93 135 93 134 93 138 94 139 95 140 96 139 95 141 5 140 96 139 95 142 5 141 5 142 5 143 5 141 5 138 94 144 97 139 95 145 5 143 5 142 5 145 5 146 98 143 5 138 94 147 99 144 97 147 99 145 5 144 97 147 99 148 100 145 5 148 100 146 98 145 5 138 94 149 5 147 99 150 101 146 98 148 100 150 101 151 102 146 98 138 94 150 101 149 5 138 94 151 102 150 101 152 103 153 4 154 104 154 104 153 4 155 4 154 104 155 4 156 4 156 4 155 4 157 4 152 103 154 104 158 105 159 4 156 4 157 4 159 4 157 4 160 106 152 103 158 105 161 107 161 107 158 105 159 4 161 107 159 4 162 108 162 108 159 4 160 106 152 103 161 107 163 4 164 109 162 108 160 106 164 109 160 106 165 4 152 103 163 4 164 109 152 103 164 109 165 4 138 0 140 0 153 0 138 0 153 0 152 0 140 1 141 110 155 110 140 1 155 110 153 1 141 110 143 111 157 111 141 110 157 111 155 110 143 2 146 2 160 2 143 2 160 2 157 2 146 112 151 113 165 113 146 112 165 113 160 112 151 113 138 114 152 114 151 113 152 114 165 113 149 1 150 1 164 1 149 1 164 1 163 1 150 0 148 0 162 0 150 0 162 0 164 0 148 3 147 3 161 3 148 3 161 3 162 3 147 2 149 2 163 2 147 2 163 2 161 2 144 1 145 1 159 1 144 1 159 1 158 1 145 0 142 0 156 0 145 0 156 0 159 0 142 3 139 3 154 3 142 3 154 3 156 3 139 2 144 2 158 2 139 2 158 2 154 2 166 115 167 116 168 117 168 117 167 116 169 118 168 117 169 118 170 119 170 119 169 118 171 120 166 115 168 117 172 121 173 122 168 117 174 123 174 123 168 117 170 119 175 124 170 119 171 120 173 122 174 123 176 125 177 126 173 122 178 127 178 127 173 122 176 125 172 121 177 126 178 127 166 115 172 121 179 128 179 128 172 121 178 127 166 115 179 128 180 129 181 130 178 127 176 125 176 125 175 124 171 120 181 130 176 125 171 120 182 131 183 132 184 133 183 132 185 134 184 133 183 132 186 135 185 134 186 135 187 136 185 134 182 131 188 137 183 132 189 138 190 139 183 132 190 139 186 135 183 132 191 140 187 136 186 135 189 138 192 141 190 139 193 142 194 143 189 138 194 143 192 141 189 138 188 137 194 143 193 142 182 131 195 144 188 137 195 144 194 143 188 137 182 131 196 145 195 144 197 146 192 141 194 143 192 141 187 136 191 140 197 146 187 136 192 141 167 147 184 147 185 147 167 147 185 147 169 147 169 148 185 148 187 148 169 148 187 148 171 148 171 149 187 149 197 149 171 149 197 149 181 149 181 150 197 150 194 150 181 150 194 150 178 150 178 151 194 151 195 151 178 151 195 151 179 151 179 152 195 152 196 152 179 152 196 152 180 152 180 153 196 153 182 153 180 153 182 153 166 153 166 154 182 154 184 154 166 154 184 154 167 154 177 155 193 156 189 157 177 155 189 157 173 157 173 158 189 158 183 158 173 158 183 158 168 158 168 159 183 159 188 159 168 159 188 159 172 159 172 160 188 160 193 156 172 160 193 156 177 155 176 161 192 161 191 161 176 161 191 161 175 161 175 162 191 162 186 162 175 162 186 162 170 162 170 163 186 163 190 163 170 163 190 163 174 163 174 164 190 164 192 164 174 164 192 164 176 164 198 165 199 166 200 167 200 167 199 166 201 168 202 169 198 165 203 170 203 170 198 165 200 167 202 169 203 170 204 171 205 172 203 170 206 173 206 173 203 170 200 167 207 174 200 167 201 168 205 172 206 173 208 175 209 176 205 172 210 177 210 177 205 172 208 175 204 171 209 176 210 177 202 169 204 171 211 178 211 178 204 171 210 177 202 169 211 178 212 179 213 180 210 177 208 175 208 175 207 174 201 168 213 180 208 175 201 168 214 181 215 182 216 183 215 182 217 184 216 183 218 185 219 186 214 181 219 186 215 182 214 181 218 185 220 187 219 186 221 188 222 189 219 186 222 189 215 182 219 186 223 190 217 184 215 182 221 188 224 191 222 189 225 192 226 193 221 188 226 193 224 191 221 188 220 187 226 193 225 192 218 185 227 194 220 187 227 194 226 193 220 187 218 185 228 195 227 194 229 196 224 191 226 193 224 191 217 184 223 190 229 196 217 184 224 191 198 197 214 197 216 197 198 197 216 197 199 197 199 198 216 198 217 198 199 198 217 198 201 198 201 199 217 199 229 199 201 199 229 199 213 199 213 200 229 200 226 200 213 200 226 200 210 200 210 201 226 201 227 201 210 201 227 201 211 201 211 202 227 202 228 202 211 202 228 202 212 202 212 203 228 203 218 203 212 203 218 203 202 203 202 204 218 204 214 204 202 204 214 204 198 204 209 205 225 206 221 207 209 205 221 207 205 207 205 208 221 208 219 208 205 208 219 208 203 208 203 209 219 209 220 209 203 209 220 209 204 209 204 210 220 210 225 206 204 210 225 206 209 205 208 211 224 211 223 211 208 211 223 211 207 211 207 212 223 212 215 212 207 212 215 212 200 212 200 213 215 213 222 213 200 213 222 213 206 213 206 214 222 214 224 214 206 214 224 214 208 214</p>
        </triangles>
        <triangles material="scout_dbded4" count="10">
          <input semantic="VERTEX" source="#vertices" offset="0" />
          <input semantic="NORMAL" source="#normals" offset="1" />
          <p>0 0 1 0 2 0 0 0 2 0 3 0 3 1 2 1 4 1 3 1 4 1 5 1 7 3 6 3 1 3 7 3 1 3 0 3 3 4 5 4 7 4 3 4 7 4 0 4 4 5 2 5 1 5 4 5 1 5 6 5</p>
        </triangles>
      </mesh>
    </geometry>
  </library_geometries>
  <library_visual_scenes>
    <visual_scene id="scene">
      <node id="payload">
        <instance_geometry url="#geometry">
          <bind_material>
            <technique_common>
              <instance_material symbol="scout_11141b" target="#scout_11141b" />
              <instance_material symbol="scout_1a1f21" target="#scout_1a1f21" />
              <instance_material symbol="scout_b8bab5" target="#scout_b8bab5" />
              <instance_material symbol="scout_dbded4" target="#scout_dbded4" />
            </technique_common>
          </bind_material>
        </instance_geometry>
      </node>
    </visual_scene>
  </library_visual_scenes>
  <scene>
    <instance_visual_scene url="#scene" />
  </scene>
</COLLADA>