<?xml version='1.0' encoding='utf-8'?>
<COLLADA xmlns="http://www.collada.org/2005/11/COLLADASchema" version="1.4.1">
  <asset>
    <created>2026-09-14T00:00:00Z</created>
    <modified>2026-09-14T00:00:00Z</modified>
    <unit name="metre" meter="1" />
    <up_axis>Z_UP</up_axis>
  </asset>
  <library_images>
    <image id="wheel_atlas">
      <init_from>wheel_atlas.png</init_from>
    </image>
  </library_images>
  <library_effects>
    <effect id="scout_383b3b_effect">
      <profile_COMMON>
        <newparam sid="atlas_surface">
          <surface type="2D">
            <init_from>wheel_atlas</init_from>
          </surface>
        </newparam>
        <newparam sid="atlas_sampler">
          <sampler2D>
            <source>atlas_surface</source>
          </sampler2D>
        </newparam>
        <technique sid="common">
          <phong>
            <emission>
              <color>0 0 0 1</color>
            </emission>
            <ambient>
              <color>0.11 0.115 0.115 1</color>
            </ambient>
            <diffuse>
              <texture texture="atlas_sampler" texcoord="UVMap" />
            </diffuse>
            <specular>
              <color>0.035 0.035 0.035 1</color>
            </specular>
            <shininess>
              <float>24</float>
            </shininess>
          </phong>
        </technique>
      </profile_COMMON>
    </effect>
    <effect id="scout_b01424_effect">
      <profile_COMMON>
        <newparam sid="atlas_surface">
          <surface type="2D">
            <init_from>wheel_atlas</init_from>
          </surface>
        </newparam>
        <newparam sid="atlas_sampler">
          <sampler2D>
            <source>atlas_surface</source>
          </sampler2D>
        </newparam>
        <technique sid="common">
          <phong>
            <emission>
              <color>0 0 0 1</color>
            </emission>
            <ambient>
              <color>0.345 0.04 0.07 1</color>
            </ambient>
            <diffuse>
              <texture texture="atlas_sampler" texcoord="UVMap" />
            </diffuse>
            <specular>
              <color>0.035 0.035 0.035 1</color>
            </specular>
            <shininess>
              <float>24</float>
            </shininess>
          </phong>
        </technique>
      </profile_COMMON>
    </effect>
    <effect id="scout_b8bab5_effect">
      <profile_COMMON>
        <newparam sid="atlas_surface">
          <surface type="2D">
            <init_from>wheel_atlas</init_from>
          </surface>
        </newparam>
        <newparam sid="atlas_sampler">
          <sampler2D>
            <source>atlas_surface</source>
          </sampler2D>
        </newparam>
        <technique sid="common">
          <phong>
            <emission>
              <color>0 0 0 1</color>
            </emission>
            <ambient>
              <color>0.36 0.365 0.355 1</color>
            </ambient>
            <diffuse>
              <texture texture="atlas_sampler" texcoord="UVMap" />
            </diffuse>
            <specular>
              <color>0.035 0.035 0.035 1</color>
            </specular>
            <shininess>
              <float>24</float>
            </shininess>
          </phong>
        </technique>
      </profile_COMMON>
    </effect>
  </library_effects>
  <library_materials>
    <material id="scout_383b3b" name="scout_383b3b">
      <instance_effect url="#scout_383b3b_effect" />
    </material>
    <material id="scout_b01424" name="scout_b01424">
      <instance_effect url="#scout_b01424_effect" />
    </material>
    <material id="scout_b8bab5" name="scout_b8bab5">
      <instance_effect url="#scout_b8bab5_effect" />
    </material>
  </library_materials>
  <library_geometries>
    <geometry id="geometry" name="wheel">
      <mesh>
        <source id="atlas_uv">
          <float_array id="atlas_uv_array" count="528">0.420588225 0.25 0.370624095 0.129375905 0.25 0.07941176 0.25 0.07941176 0.129375905 0.129375905 0.0794117674 0.25 0.0794117674 0.25 0.129375905 0.370624095 0.25 0.420588225 0.25 0.420588225 0.370624095 0.370624095 0.420588225 0.25 0.420588225 0.25 0.25 0.07941176 0.0794117674 0.25 0.0794117674 0.25 0.25 0.420588225 0.420588225 0.25 0.420588225 0.25 0.370624095 0.370624095 0.41596213 0.41596213 0.420588225 0.25 0.41596213 0.41596213 0.484705895 0.25 0.370624095 0.370624095 0.25 0.420588225 0.25 0.484705895 0.370624095 0.370624095 0.25 0.484705895 0.41596213 0.41596213 0.25 0.420588225 0.129375905 0.370624095 0.0840378776 0.41596213 0.25 0.420588225 0.0840378776 0.41596213 0.25 0.484705895 0.129375905 0.370624095 0.0794117674 0.25 0.0152941113 0.25 0.129375905 0.370624095 0.0152941113 0.25 0.0840378776 0.41596213 0.0794117674 0.25 0.129375905 0.129375905 0.0840378776 0.0840378851 0.0794117674 0.25 0.0840378776 0.0840378851 0.0152941113 0.25 0.129375905 0.129375905 0.25 0.07941176 0.25 0.0152941253 0.129375905 0.129375905 0.25 0.0152941253 0.0840378776 0.0840378851 0.25 0.07941176 0.370624095 0.129375905 0.41596213 0.0840378851 0.25 0.07941176 0.41596213 0.0840378851 0.25 0.0152941253 0.370624095 0.129375905 0.420588225 0.25 0.484705895 0.25 0.370624095 0.129375905 0.484705895 0.25 0.41596213 0.0840378851 1 0.644631684 1.125 0.644631684 1.125 0.86559844 1 0.644631684 1.125 0.86559844 1 0.86559844 0.125 0.644631684 0.25 0.644631684 0.25 0.86559844 0.125 0.644631684 0.25 0.86559844 0.125 0.86559844 0.25 0.644631684 0.375 0.644631684 0.375 0.86559844 0.25 0.644631684 0.375 0.86559844 0.25 0.86559844 0.375 0.644631684 0.5 0.644631684 0.5 0.86559844 0.375 0.644631684 0.5 0.86559844 0.375 0.86559844 0.5 0.644631684 0.625 0.644631684 0.625 0.86559844 0.5 0.644631684 0.625 0.86559844 0.5 0.86559844 0.625 0.644631684 0.75 0.644631684 0.75 0.86559844 0.625 0.644631684 0.75 0.86559844 0.625 0.86559844 0.75 0.644631684 0.875 0.644631684 0.875 0.86559844 0.75 0.644631684 0.875 0.86559844 0.75 0.86559844 0.875 0.644631684 1 0.644631684 1 0.86559844 0.875 0.644631684 1 0.86559844 0.875 0.86559844 1 0.86559844 1.125 0.86559844 1.125 0.999970138 1 0.86559844 1.125 0.999970138 1 0.999970138 0.125 0.86559844 0.25 0.86559844 0.25 0.999970138 0.125 0.86559844 0.25 0.999970138 0.125 0.999970138 0.25 0.86559844 0.375 0.86559844 0.375 0.999970138 0.25 0.86559844 0.375 0.999970138 0.25 0.999970138 0.375 0.86559844 0.5 0.86559844 0.5 0.999970138 0.375 0.86559844 0.5 0.999970138 0.375 0.999970138 0.5 0.86559844 0.625 0.86559844 0.625 0.999970138 0.5 0.86559844 0.625 0.999970138 0.5 0.999970138 0.625 0.86559844 0.75 0.86559844 0.75 0.999970138 0.625 0.86559844 0.75 0.999970138 0.625 0.999970138 0.75 0.86559844 0.875 0.86559844 0.875 0.999970138 0.75 0.86559844 0.875 0.999970138 0.75 0.999970138 0.875 0.86559844 1 0.86559844 1 0.999970138 0.875 0.86559844 1 0.999970138 0.875 0.999970138 0.870624125 0.129375905 0.920588255 0.25 0.870624125 0.370624095 0.870624125 0.370624095 0.75 0.420588225 0.629375875 0.370624095 0.629375875 0.370624095 0.579411745 0.25 0.629375875 0.129375905 0.629375875 0.129375905 0.75 0.07941176 0.870624125 0.129375905 0.870624125 0.129375905 0.870624125 0.370624095 0.629375875 0.370624095 0.629375875 0.370624095 0.629375875 0.129375905 0.870624125 0.129375905 0.285294116 0.25 0.274956703 0.225043282 0.25 0.214705884 0.25 0.214705884 0.225043297 0.225043282 0.214705884 0.25 0.214705884 0.25 0.225043297 0.274956703 0.25 0.285294116 0.25 0.285294116 0.274956703 0.274956703 0.285294116 0.25 0.285294116 0.25 0.25 0.214705884 0.214705884 0.25 0.214705884 0.25 0.25 0.285294116 0.285294116 0.25 0.285294116 0.25 0.274956703 0.274956703 0.274956703 0.274956703 0.285294116 0.25 0.274956703 0.274956703 0.285294116 0.25 0.274956703 0.274956703 0.25 0.285294116 0.25 0.285294116 0.274956703 0.274956703 0.25 0.285294116 0.274956703 0.274956703 0.25 0.285294116 0.225043297 0.274956703 0.225043297 0.274956703 0.25 0.285294116 0.225043297 0.274956703 0.25 0.285294116 0.225043297 0.274956703 0.214705884 0.25 0.214705884 0.25 0.225043297 0.274956703 0.214705884 0.25 0.225043297 0.274956703 0.214705884 0.25 0.225043297 0.225043282 0.225043297 0.225043282 0.214705884 0.25 0.225043297 0.225043282 0.214705884 0.25 0.225043297 0.225043282 0.25 0.214705884 0.25 0.214705884 0.225043297 0.225043282 0.25 0.214705884 0.225043297 0.225043282 0.25 0.214705884 0.274956703 0.225043282 0.274956703 0.225043282 0.25 0.214705884 0.274956703 0.225043282 0.25 0.214705884 0.274956703 0.225043282 0.285294116 0.25 0.285294116 0.25 0.274956703 0.225043282 0.285294116 0.25 0.274956703 0.225043282 0.774956703 0.225043282 0.785294116 0.25 0.774956703 0.274956703 0.774956703 0.274956703 0.75 0.285294116 0.725043297 0.274956703 0.725043297 0.274956703 0.714705884 0.25 0.725043297 0.225043282 0.725043297 0.225043282 0.75 0.214705884 0.774956703 0.225043282 0.774956703 0.225043282 0.774956703 0.274956703 0.725043297 0.274956703 0.725043297 0.274956703 0.725043297 0.225043282 0.774956703 0.225043282</float_array>
          <technique_common>
            <accessor source="#atlas_uv_array" count="264" stride="2">
              <param name="S" type="float" />
              <param name="T" type="float" />
            </accessor>
          </technique_common>
        </source>
        <source id="positions">
          <float_array id="positions_array" count="144">0.0579999983 -0.000995000009 -0.00200000009 0.041012194 -0.042007193 -0.00200000009 -1.06544271e-17 -0.058995001 -0.00200000009 -0.041012194 -0.042007193 -0.00200000009 -0.0579999983 -0.000995000009 -0.00200000009 -0.041012194 0.040017195 -0.00200000009 3.55147556e-18 0.0570049994 -0.00200000009 0.041012194 0.040017195 -0.00200000009 0.0564271212 0.0554321222 0.0219999999 0.0798000023 -0.000995000009 0.0219999999 4.88634075e-18 0.0788049996 0.0219999999 -0.0564271212 0.0554321222 0.0219999999 -0.0798000023 -0.000995000009 0.0219999999 -0.0564271212 -0.0574221201 0.0219999999 -1.46590218e-17 -0.0807949975 0.0219999999 0.0564271212 -0.0574221201 0.0219999999 0.0564271212 0.0554321222 0.0590000004 0.0798000023 -0.000995000009 0.0590000004 4.88634075e-18 0.0788049996 0.0590000004 -0.0564271212 0.0554321222 0.0590000004 -0.0798000023 -0.000995000009 0.0590000004 -0.0564271212 -0.0574221201 0.0590000004 -1.46590218e-17 -0.0807949975 0.0590000004 0.0564271212 -0.0574221201 0.0590000004 0.041012194 0.040017195 0.0815000013 0.0579999983 -0.000995000009 0.0815000013 3.55147556e-18 0.0570049994 0.0815000013 -0.041012194 0.040017195 0.0815000013 -0.0579999983 -0.000995000009 0.0815000013 -0.041012194 -0.042007193 0.0815000013 -1.06544271e-17 -0.058995001 0.0815000013 0.041012194 -0.042007193 0.0815000013 0.0120000001 -0.000995000009 -0.0469949991 0.00848528091 -0.00948028173 -0.0469949991 -2.20436416e-18 -0.012995 -0.0469949991 -0.00848528091 -0.00948028173 -0.0469949991 -0.0120000001 -0.000995000009 -0.0469949991 -0.00848528091 0.00749028148 -0.0469949991 7.34788054e-19 0.0110050002 -0.0469949991 0.00848528091 0.00749028148 -0.0469949991 0.00848528091 0.00749028148 0.0850050002 0.0120000001 -0.000995000009 0.0850050002 7.34788054e-19 0.0110050002 0.0850050002 -0.00848528091 0.00749028148 0.0850050002 -0.0120000001 -0.000995000009 0.0850050002 -0.00848528091 -0.00948028173 0.0850050002 -2.20436416e-18 -0.012995 0.0850050002 0.00848528091 -0.00948028173 0.0850050002</float_array>
          <technique_common>
            <accessor source="#positions_array" count="48" stride="3">
              <param name="X" type="float" />
              <param name="Y" type="float" />
              <param name="Z" type="float" />
            </accessor>
          </technique_common>
        </source>
        <source id="normals">
          <float_array id="normals_array" count="144">7.64696639e-10 0 -1 0.740219057 0 -0.672365725 0.523413897 0.523413956 -0.672365785 0.523413897 0.523413956 -0.672365665 0.740219116 0 -0.672365785 0 0.740219057 -0.672365725 0 0.740219116 -0.672365665 -0.523413897 0.523413956 -0.672365785 -0.523413897 0.523413956 -0.672365665 -0.740219057 0 -0.672365725 -0.740219116 0 -0.672365785 -0.523413956 -0.523413956 -0.672365725 -0.523413956 -0.523414016 -0.672365665 0 -0.740219235 -0.672365606 0.523413956 -0.523413956 -0.672365725 0.523413956 -0.523414016 -0.672365665 0.923879504 0.382683426 0 0.382683396 0.923879504 0 -0.382683396 0.923879504 0 -0.923879504 0.382683426 0 -0.923879504 -0.382683426 0 -0.382683396 -0.923879504 0 0.382683396 -0.923879504 0 0.923879504 -0.382683426 0 0.718190312 -1.19475763e-08 0.695846736 0.507837236 0.507837296 0.695846736 0.507837236 0.507837236 0.695846736 0.718190372 -1.68950773e-08 0.695846736 -3.58427279e-08 0.718190372 0.695846736 -3.37901547e-08 0.718190372 0.695846677 -0.507837296 0.507837296 0.695846736 -0.507837236 0.507837236 0.695846736 -0.718190312 -1.19475763e-08 0.695846736 -0.718190372 -1.68950773e-08 0.695846736 -0.507837236 -0.507837296 0.695846617 2.38951525e-08 -0.718190491 0.695846558 3.37901547e-08 -0.718190432 0.695846558 0.507837296 -0.507837296 0.695846617 0 0 1 7.14566468e-08 0 -1 0.923879564 0.382683456 0 0.382683486 0.923879504 0 -0.382683486 0.923879504 0 -0.923879564 0.382683456 0 -0.923879564 -0.382683456 0 -0.382683426 -0.923879504 0 0.382683426 -0.923879504 0 0.923879564 -0.382683456 0</float_array>
          <technique_common>
            <accessor source="#normals_array" count="48" stride="3">
              <param name="X" type="float" />
              <param name="Y" type="float" />
              <param name="Z" type="float" />
            </accessor>
          </technique_common>
        </source>
        <vertices id="vertices">
          <input semantic="POSITION" source="#positions" />
        </vertices>
        <triangles material="scout_383b3b" count="32">
          <input semantic="VERTEX" source="#vertices" offset="0" />
          <input semantic="NORMAL" source="#normals" offset="1" />
          <input semantic="TEXCOORD" source="#atlas_uv" offset="2" set="0" />
          <p>9 16 66 8 16 67 16 16 68 9 16 69 16 16 70 17 16 71 8 17 72 10 17 73 18 17 74 8 17 75 18 17 76 16 17 77 10 18 78 11 18 79 19 18 80 10 18 81 19 18 82 18 18 83 11 19 84 12 19 85 20 19 86 11 19 87 20 19 88 19 19 89 12 20 90 13 20 91 21 20 92 12 20 93 21 20 94 20 20 95 13 21 96 14 21 97 22 21 98 13 21 99 22 21 100 21 21 101 14 22 102 15 22 103 23 22 104 14 22 105 23 22 106 22 22 107 15 23 108 9 23 109 17 23 110 15 23 111 17 23 112 23 23 113 17 24 114 16 25 115 24 26 116 17 24 117 24 26 118 25 27 119 16 25 120 18 28 121 26 29 122 16 25 123 26 29 124 24 26 125 18 28 126 19 30 127 27 31 128 18 28 129 27 31 130 26 29 131 19 30 132 20 32 133 28 33 134 19 30 135 28 33 136 27 31 137 20 32 138 21 34 139 29 34 140 20 32 141 29 34 142 28 33 143 21 34 144 22 35 145 30 36 146 21 34 147 30 36 148 29 34 149 22 35 150 23 37 151 31 37 152 22 35 153 31 37 154 30 36 155 23 37 156 17 24 157 25 27 158 23 37 159 25 27 160 31 37 161</p>
        </triangles>
        <triangles material="scout_b01424" count="16">
          <input semantic="VERTEX" source="#vertices" offset="0" />
          <input semantic="NORMAL" source="#normals" offset="1" />
          <input semantic="TEXCOORD" source="#atlas_uv" offset="2" set="0" />
          <p>0 1 18 7 2 19 8 3 20 0 1 21 8 3 22 9 4 23 7 2 24 6 5 25 10 6 26 7 2 27 10 6 28 8 3 29 6 5 30 5 7 31 11 8 32 6 5 33 11 8 34 10 6 35 5 7 36 4 9 37 12 10 38 5 7 39 12 10 40 11 8 41 4 9 42 3 11 43 13 12 44 4 9 45 13 12 46 12 10 47 3 11 48 2 13 49 14 13 50 3 11 51 14 13 52 13 12 53 2 13 54 1 14 55 15 15 56 2 13 57 15 15 58 14 13 59 1 14 60 0 1 61 9 4 62 1 14 63 9 4 64 15 15 65</p>
        </triangles>
        <triangles material="scout_b8bab5" count="40">
          <input semantic="VERTEX" source="#vertices" offset="0" />
          <input semantic="NORMAL" source="#normals" offset="1" />
          <input semantic="TEXCOORD" source="#atlas_uv" offset="2" set="0" />
          <p>0 0 0 1 0 1 2 0 2 2 0 3 3 0 4 4 0 5 4 0 6 5 0 7 6 0 8 6 0 9 7 0 10 0 0 11 0 0 12 2 0 13 4 0 14 4 0 15 6 0 16 0 0 17 31 38 162 25 38 163 24 38 164 24 38 165 26 38 166 27 38 167 27 38 168 28 38 169 29 38 170 29 38 171 30 38 172 31 38 173 31 38 174 24 38 175 27 38 176 27 38 177 29 38 178 31 38 179 32 39 180 33 39 181 34 39 182 34 39 183 35 39 184 36 39 185 36 39 186 37 39 187 38 39 188 38 39 189 39 39 190 32 39 191 32 39 192 34 39 193 36 39 194 36 39 195 38 39 196 32 39 197 32 40 198 39 40 199 40 40 200 32 40 201 40 40 202 41 40 203 39 41 204 38 41 205 42 41 206 39 41 207 42 41 208 40 41 209 38 42 210 37 42 211 43 42 212 38 42 213 43 42 214 42 42 215 37 43 216 36 43 217 44 43 218 37 43 219 44 43 220 43 43 221 36 44 222 35 44 223 45 44 224 36 44 225 45 44 226 44 44 227 35 45 228 34 45 229 46 45 230 35 45 231 46 45 232 45 45 233 34 46 234 33 46 235 47 46 236 34 46 237 47 46 238 46 46 239 33 47 240 32 47 241 41 47 242 33 47 243 41 47 244 47 47 245 47 38 246 41 38 247 40 38 248 40 38 249 42 38 250 43 38 251 43 38 252 44 38 253 45 38 254 45 38 255 46 38 256 47 38 257 47 38 258 40 38 259 43 38 260 43 38 261 45 38 262 47 38 263</p>
        </triangles>
      </mesh>
    </geometry>
  </library_geometries>
  <library_visual_scenes>
    <visual_scene id="scene">
      <node id="wheel">
        <instance_geometry url="#geometry">
          <bind_material>
            <technique_common>
              <instance_material symbol="scout_383b3b" target="#scout_383b3b">
                <bind_vertex_input semantic="UVMap" input_semantic="TEXCOORD" input_set="0" />
              </instance_material>
              <instance_material symbol="scout_b01424" target="#scout_b01424">
                <bind_vertex_input semantic="UVMap" input_semantic="TEXCOORD" input_set="0" />
              </instance_material>
              <instance_material symbol="scout_b8bab5" target="#scout_b8bab5">
                <bind_vertex_input semantic="UVMap" input_semantic="TEXCOORD" input_set="0" />
              </instance_material>
            </technique_common>
          </bind_material>
        </instance_geometry>
      </node>
    </visual_scene>
  </library_visual_scenes>
  <scene>
    <instance_visual_scene url="#scene" />
  </scene>
</COLLADA>