<?xml version='1.0' encoding='utf-8'?>
<COLLADA xmlns="http://www.collada.org/2005/11/COLLADASchema" version="1.4.1">
  <asset>
    <created>2026-09-14T00:00:00Z</created>
    <modified>2026-09-14T00:00:00Z</modified>
    <unit name="metre" meter="1" />
    <up_axis>Z_UP</up_axis>
  </asset>
  <library_images>
    <image id="wheel_atlas">
      <init_from>wheel_atlas.png</init_from>
    </image>
  </library_images>
  <library_effects>
    <effect id="scout_383b3b_effect">
      <profile_COMMON>
        <newparam sid="atlas_surface">
          <surface type="2D">
            <init_from>wheel_atlas</init_from>
          </surface>
        </newparam>
        <newparam sid="atlas_sampler">
          <sampler2D>
            <source>atlas_surface</source>
          </sampler2D>
        </newparam>
        <technique sid="common">
          <phong>
            <emission>
              <color>0 0 0 1</color>
            </emission>
            <ambient>
              <color>0.11 0.115 0.115 1</color>
            </ambient>
            <diffuse>
              <texture texture="atlas_sampler" texcoord="UVMap" />
            </diffuse>
            <specular>
              <color>0.035 0.035 0.035 1</color>
            </specular>
            <shininess>
              <float>24</float>
            </shininess>
          </phong>
        </technique>
      </profile_COMMON>
    </effect>
    <effect id="scout_b01424_effect">
      <profile_COMMON>
        <newparam sid="atlas_surface">
          <surface type="2D">
            <init_from>wheel_atlas</init_from>
          </surface>
        </newparam>
        <newparam sid="atlas_sampler">
          <sampler2D>
            <source>atlas_surface</source>
          </sampler2D>
        </newparam>
        <technique sid="common">
          <phong>
            <emission>
              <color>0 0 0 1</color>
            </emission>
            <ambient>
              <color>0.345 0.04 0.07 1</color>
            </ambient>
            <diffuse>
              <texture texture="atlas_sampler" texcoord="UVMap" />
            </diffuse>
            <specular>
              <color>0.035 0.035 0.035 1</color>
            </specular>
            <shininess>
              <float>24</float>
            </shininess>
          </phong>
        </technique>
      </profile_COMMON>
    </effect>
    <effect id="scout_b8bab5_effect">
      <profile_COMMON>
        <newparam sid="atlas_surface">
          <surface type="2D">
            <init_from>wheel_atlas</init_from>
          </surface>
        </newparam>
        <newparam sid="atlas_sampler">
          <sampler2D>
            <source>atlas_surface</source>
          </sampler2D>
        </newparam>
        <technique sid="common">
          <phong>
            <emission>
              <color>0 0 0 1</color>
            </emission>
            <ambient>
              <color>0.36 0.365 0.355 1</color>
            </ambient>
            <diffuse>
              <texture texture="atlas_sampler" texcoord="UVMap" />
            </diffuse>
            <specular>
              <color>0.035 0.035 0.035 1</color>
            </specular>
            <shininess>
              <float>24</float>
            </shininess>
          </phong>
        </technique>
      </profile_COMMON>
    </effect>
  </library_effects>
  <library_materials>
    <material id="scout_383b3b" name="scout_383b3b">
      <instance_effect url="#scout_383b3b_effect" />
    </material>
    <material id="scout_b01424" name="scout_b01424">
      <instance_effect url="#scout_b01424_effect" />
    </material>
    <material id="scout_b8bab5" name="scout_b8bab5">
      <instance_effect url="#scout_b8bab5_effect" />
    </material>
  </library_materials>
  <library_geometries>
    <geometry id="geometry" name="wheel">
      <mesh>
        <source id="atlas_uv">
          <float_array id="atlas_uv_array" count="1104">0.420588225 0.25 0.397733748 0.164705887 0.335294127 0.102266252 0.335294127 0.102266252 0.25 0.07941176 0.164705887 0.102266252 0.164705887 0.102266252 0.102266252 0.164705887 0.0794117674 0.25 0.0794117674 0.25 0.102266252 0.335294127 0.164705887 0.397733748 0.164705887 0.397733748 0.25 0.420588225 0.335294127 0.397733748 0.335294127 0.397733748 0.397733748 0.335294127 0.420588225 0.25 0.420588225 0.25 0.335294127 0.102266252 0.164705887 0.102266252 0.164705887 0.102266252 0.0794117674 0.25 0.164705887 0.397733748 0.164705887 0.397733748 0.335294127 0.397733748 0.420588225 0.25 0.164705887 0.102266252 0.164705887 0.397733748 0.420588225 0.25 0.420588225 0.25 0.397733748 0.335294127 0.430846483 0.354411751 0.420588225 0.25 0.430846483 0.354411751 0.458823532 0.25 0.397733748 0.335294127 0.335294127 0.397733748 0.354411781 0.430846483 0.397733748 0.335294127 0.354411781 0.430846483 0.430846483 0.354411751 0.335294127 0.397733748 0.25 0.420588225 0.25 0.458823532 0.335294127 0.397733748 0.25 0.458823532 0.354411781 0.430846483 0.25 0.420588225 0.164705887 0.397733748 0.145588234 0.430846483 0.25 0.420588225 0.145588234 0.430846483 0.25 0.458823532 0.164705887 0.397733748 0.102266252 0.335294127 0.0691535175 0.354411751 0.164705887 0.397733748 0.0691535175 0.354411751 0.145588234 0.430846483 0.102266252 0.335294127 0.0794117674 0.25 0.0411764644 0.25 0.102266252 0.335294127 0.0411764644 0.25 0.0691535175 0.354411751 0.0794117674 0.25 0.102266252 0.164705887 0.0691535175 0.145588234 0.0794117674 0.25 0.0691535175 0.145588234 0.0411764644 0.25 0.102266252 0.164705887 0.164705887 0.102266252 0.145588234 0.0691535175 0.102266252 0.164705887 0.145588234 0.0691535175 0.0691535175 0.145588234 0.164705887 0.102266252 0.25 0.07941176 0.25 0.0411764793 0.164705887 0.102266252 0.25 0.0411764793 0.145588234 0.0691535175 0.25 0.07941176 0.335294127 0.102266252 0.354411781 0.0691535175 0.25 0.07941176 0.354411781 0.0691535175 0.25 0.0411764793 0.335294127 0.102266252 0.397733748 0.164705887 0.430846483 0.145588234 0.335294127 0.102266252 0.430846483 0.145588234 0.354411781 0.0691535175 0.397733748 0.164705887 0.420588225 0.25 0.458823532 0.25 0.397733748 0.164705887 0.458823532 0.25 0.430846483 0.145588234 1 0.525190234 1.08333337 0.525190234 1.08333337 0.644631684 1 0.525190234 1.08333337 0.644631684 1 0.644631684 0.0833333284 0.525190234 0.166666657 0.525190234 0.166666657 0.644631684 0.0833333284 0.525190234 0.166666657 0.644631684 0.0833333284 0.644631684 0.166666657 0.525190234 0.25 0.525190234 0.25 0.644631684 0.166666657 0.525190234 0.25 0.644631684 0.166666657 0.644631684 0.25 0.525190234 0.333333343 0.525190234 0.333333343 0.644631684 0.25 0.525190234 0.333333343 0.644631684 0.25 0.644631684 0.333333343 0.525190234 0.416666657 0.525190234 0.416666657 0.644631684 0.333333343 0.525190234 0.416666657 0.644631684 0.333333343 0.644631684 0.416666657 0.525190234 0.5 0.525190234 0.5 0.644631684 0.416666657 0.525190234 0.5 0.644631684 0.416666657 0.644631684 0.5 0.525190234 0.583333313 0.525190234 0.583333313 0.644631684 0.5 0.525190234 0.583333313 0.644631684 0.5 0.644631684 0.583333313 0.525190234 0.666666687 0.525190234 0.666666687 0.644631684 0.583333313 0.525190234 0.666666687 0.644631684 0.583333313 0.644631684 0.666666687 0.525190234 0.75 0.525190234 0.75 0.644631684 0.666666687 0.525190234 0.75 0.644631684 0.666666687 0.644631684 0.75 0.525190234 0.833333313 0.525190234 0.833333313 0.644631684 0.75 0.525190234 0.833333313 0.644631684 0.75 0.644631684 0.833333313 0.525190234 0.916666687 0.525190234 0.916666687 0.644631684 0.833333313 0.525190234 0.916666687 0.644631684 0.833333313 0.644631684 0.916666687 0.525190234 1 0.525190234 1 0.644631684 0.916666687 0.525190234 1 0.644631684 0.916666687 0.644631684 1 0.644631684 1.08333337 0.644631684 1.08333337 0.86559844 1 0.644631684 1.08333337 0.86559844 1 0.86559844 0.0833333284 0.644631684 0.166666657 0.644631684 0.166666657 0.86559844 0.0833333284 0.644631684 0.166666657 0.86559844 0.0833333284 0.86559844 0.166666657 0.644631684 0.25 0.644631684 0.25 0.86559844 0.166666657 0.644631684 0.25 0.86559844 0.166666657 0.86559844 0.25 0.644631684 0.333333343 0.644631684 0.333333343 0.86559844 0.25 0.644631684 0.333333343 0.86559844 0.25 0.86559844 0.333333343 0.644631684 0.416666657 0.644631684 0.416666657 0.86559844 0.333333343 0.644631684 0.416666657 0.86559844 0.333333343 0.86559844 0.416666657 0.644631684 0.5 0.644631684 0.5 0.86559844 0.416666657 0.644631684 0.5 0.86559844 0.416666657 0.86559844 0.5 0.644631684 0.583333313 0.644631684 0.583333313 0.86559844 0.5 0.644631684 0.583333313 0.86559844 0.5 0.86559844 0.583333313 0.644631684 0.666666687 0.644631684 0.666666687 0.86559844 0.583333313 0.644631684 0.666666687 0.86559844 0.583333313 0.86559844 0.666666687 0.644631684 0.75 0.644631684 0.75 0.86559844 0.666666687 0.644631684 0.75 0.86559844 0.666666687 0.86559844 0.75 0.644631684 0.833333313 0.644631684 0.833333313 0.86559844 0.75 0.644631684 0.833333313 0.86559844 0.75 0.86559844 0.833333313 0.644631684 0.916666687 0.644631684 0.916666687 0.86559844 0.833333313 0.644631684 0.916666687 0.86559844 0.833333313 0.86559844 0.916666687 0.644631684 1 0.644631684 1 0.86559844 0.916666687 0.644631684 1 0.86559844 0.916666687 0.86559844 1 0.86559844 1.08333337 0.86559844 1.08333337 0.999970138 1 0.86559844 1.08333337 0.999970138 1 0.999970138 0.0833333284 0.86559844 0.166666657 0.86559844 0.166666672 0.999970138 0.0833333284 0.86559844 0.166666672 0.999970138 0.0833333284 0.999970138 0.166666657 0.86559844 0.25 0.86559844 0.25 0.999970138 0.166666657 0.86559844 0.25 0.999970138 0.166666672 0.999970138 0.25 0.86559844 0.333333343 0.86559844 0.333333343 0.999970138 0.25 0.86559844 0.333333343 0.999970138 0.25 0.999970138 0.333333343 0.86559844 0.416666657 0.86559844 0.416666657 0.999970138 0.333333343 0.86559844 0.416666657 0.999970138 0.333333343 0.999970138 0.416666657 0.86559844 0.5 0.86559844 0.5 0.999970138 0.416666657 0.86559844 0.5 0.999970138 0.416666657 0.999970138 0.5 0.86559844 0.583333313 0.86559844 0.583333313 0.999970138 0.5 0.86559844 0.583333313 0.999970138 0.5 0.999970138 0.583333313 0.86559844 0.666666687 0.86559844 0.666666687 0.999970138 0.583333313 0.86559844 0.666666687 0.999970138 0.583333313 0.999970138 0.666666687 0.86559844 0.75 0.86559844 0.75 0.999970138 0.666666687 0.86559844 0.75 0.999970138 0.666666687 0.999970138 0.75 0.86559844 0.833333313 0.86559844 0.833333313 0.999970138 0.75 0.86559844 0.833333313 0.999970138 0.75 0.999970138 0.833333313 0.86559844 0.916666687 0.86559844 0.916666687 0.999970138 0.833333313 0.86559844 0.916666687 0.999970138 0.833333313 0.999970138 0.916666687 0.86559844 1 0.86559844 1 0.999970138 0.916666687 0.86559844 1 0.999970138 0.916666687 0.999970138 0.949999988 0.25 0.923205078 0.349999994 0.897733748 0.335294127 0.949999988 0.25 0.897733748 0.335294127 0.920588255 0.25 0.923205078 0.349999994 0.850000024 0.423205078 0.835294127 0.397733748 0.923205078 0.349999994 0.835294127 0.397733748 0.897733748 0.335294127 0.850000024 0.423205078 0.75 0.449999988 0.75 0.420588225 0.850000024 0.423205078 0.75 0.420588225 0.835294127 0.397733748 0.75 0.449999988 0.649999976 0.423205078 0.664705873 0.397733748 0.75 0.449999988 0.664705873 0.397733748 0.75 0.420588225 0.649999976 0.423205078 0.576794922 0.349999994 0.602266252 0.335294127 0.649999976 0.423205078 0.602266252 0.335294127 0.664705873 0.397733748 0.576794922 0.349999994 0.550000012 0.25 0.579411745 0.25 0.576794922 0.349999994 0.579411745 0.25 0.602266252 0.335294127 0.550000012 0.25 0.576794922 0.149999991 0.602266252 0.164705887 0.550000012 0.25 0.602266252 0.164705887 0.579411745 0.25 0.576794922 0.149999991 0.649999976 0.0767949224 0.664705873 0.102266252 0.576794922 0.149999991 0.664705873 0.102266252 0.602266252 0.164705887 0.649999976 0.0767949224 0.75 0.0500000045 0.75 0.07941176 0.649999976 0.0767949224 0.75 0.07941176 0.664705873 0.102266252 0.75 0.0500000045 0.850000024 0.0767949224 0.835294127 0.102266252 0.75 0.0500000045 0.835294127 0.102266252 0.75 0.07941176 0.850000024 0.0767949224 0.923205078 0.149999991 0.897733748 0.164705887 0.850000024 0.0767949224 0.897733748 0.164705887 0.835294127 0.102266252 0.923205078 0.149999991 0.949999988 0.25 0.920588255 0.25 0.923205078 0.149999991 0.920588255 0.25 0.897733748 0.164705887 0.897733748 0.164705887 0.920588255 0.25 0.897733748 0.335294127 0.897733748 0.335294127 0.835294127 0.397733748 0.75 0.420588225 0.75 0.420588225 0.664705873 0.397733748 0.602266252 0.335294127 0.602266252 0.335294127 0.579411745 0.25 0.602266252 0.164705887 0.602266252 0.164705887 0.664705873 0.102266252 0.75 0.07941176 0.75 0.07941176 0.835294127 0.102266252 0.897733748 0.164705887 0.897733748 0.164705887 0.897733748 0.335294127 0.75 0.420588225 0.75 0.420588225 0.602266252 0.335294127 0.602266252 0.164705887 0.602266252 0.164705887 0.75 0.07941176 0.897733748 0.164705887 0.75 0.420588225 0.602266252 0.164705887 0.897733748 0.164705887 0.285294116 0.25 0.28056559 0.232352942 0.267647058 0.219434395 0.267647058 0.219434395 0.25 0.214705884 0.232352942 0.219434395 0.232352942 0.219434395 0.219434395 0.232352942 0.214705884 0.25 0.214705884 0.25 0.219434395 0.267647058 0.232352942 0.28056559 0.232352942 0.28056559 0.25 0.285294116 0.267647058 0.28056559 0.267647058 0.28056559 0.28056559 0.267647058 0.285294116 0.25 0.285294116 0.25 0.267647058 0.219434395 0.232352942 0.219434395 0.232352942 0.219434395 0.214705884 0.25 0.232352942 0.28056559 0.232352942 0.28056559 0.267647058 0.28056559 0.285294116 0.25 0.232352942 0.219434395 0.232352942 0.28056559 0.285294116 0.25 0.285294116 0.25 0.28056559 0.267647058 0.28056559 0.267647058 0.285294116 0.25 0.28056559 0.267647058 0.285294116 0.25 0.28056559 0.267647058 0.267647058 0.28056559 0.267647058 0.28056559 0.28056559 0.267647058 0.267647058 0.28056559 0.28056559 0.267647058 0.267647058 0.28056559 0.25 0.285294116 0.25 0.285294116 0.267647058 0.28056559 0.25 0.285294116 0.267647058 0.28056559 0.25 0.285294116 0.232352942 0.28056559 0.232352942 0.28056559 0.25 0.285294116 0.232352942 0.28056559 0.25 0.285294116 0.232352942 0.28056559 0.219434395 0.267647058 0.219434395 0.267647058 0.232352942 0.28056559 0.219434395 0.267647058 0.232352942 0.28056559 0.219434395 0.267647058 0.214705884 0.25 0.214705884 0.25 0.219434395 0.267647058 0.214705884 0.25 0.219434395 0.267647058 0.214705884 0.25 0.219434395 0.232352942 0.219434395 0.232352942 0.214705884 0.25 0.219434395 0.232352942 0.214705884 0.25 0.219434395 0.232352942 0.232352942 0.219434395 0.232352942 0.219434395 0.219434395 0.232352942 0.232352942 0.219434395 0.219434395 0.232352942 0.232352942 0.219434395 0.25 0.214705884 0.25 0.214705884 0.232352942 0.219434395 0.25 0.214705884 0.232352942 0.219434395 0.25 0.214705884 0.267647058 0.219434395 0.267647058 0.219434395 0.25 0.214705884 0.267647058 0.219434395 0.25 0.214705884 0.267647058 0.219434395 0.28056559 0.232352942 0.28056559 0.232352942 0.267647058 0.219434395 0.28056559 0.232352942 0.267647058 0.219434395 0.28056559 0.232352942 0.285294116 0.25 0.285294116 0.25 0.28056559 0.232352942 0.285294116 0.25 0.28056559 0.232352942 0.780565619 0.232352942 0.785294116 0.25 0.780565619 0.267647058 0.780565619 0.267647058 0.767647088 0.28056559 0.75 0.285294116 0.75 0.285294116 0.732352912 0.28056559 0.719434381 0.267647058 0.719434381 0.267647058 0.714705884 0.25 0.719434381 0.232352942 0.719434381 0.232352942 0.732352912 0.219434395 0.75 0.214705884 0.75 0.214705884 0.767647088 0.219434395 0.780565619 0.232352942 0.780565619 0.232352942 0.780565619 0.267647058 0.75 0.285294116 0.75 0.285294116 0.719434381 0.267647058 0.719434381 0.232352942 0.719434381 0.232352942 0.75 0.214705884 0.780565619 0.232352942 0.75 0.285294116 0.719434381 0.232352942 0.780565619 0.232352942</float_array>
          <technique_common>
            <accessor source="#atlas_uv_array" count="552" stride="2">
              <param name="S" type="float" />
              <param name="T" type="float" />
            </accessor>
          </technique_common>
        </source>
        <source id="positions">
          <float_array id="positions_array" count="288">0.0579999983 -0.000995000009 -0.00200000009 0.0502294749 -0.029995 -0.00200000009 0.0289999992 -0.0512244739 -0.00200000009 -1.06544271e-17 -0.058995001 -0.00200000009 -0.0289999992 -0.0512244739 -0.00200000009 -0.0502294749 -0.029995 -0.00200000009 -0.0579999983 -0.000995000009 -0.00200000009 -0.0502294749 0.0280050002 -0.00200000009 -0.0289999992 0.0492344722 -0.00200000009 3.55147556e-18 0.0570049994 -0.00200000009 0.0289999992 0.0492344722 -0.00200000009 0.0502294749 0.0280050002 -0.00200000009 0.0614878051 0.0345049985 0.00200000009 0.0710000023 -0.000995000009 0.00200000009 0.0355000012 0.0604928024 0.00200000009 4.34749628e-18 0.0700049996 0.00200000009 -0.0355000012 0.0604928024 0.00200000009 -0.0614878051 0.0345049985 0.00200000009 -0.0710000023 -0.000995000009 0.00200000009 -0.0614878051 -0.0364950001 0.00200000009 -0.0355000012 -0.0624828041 0.00200000009 -1.30424884e-17 -0.0719949976 0.00200000009 0.0355000012 -0.0624828041 0.00200000009 0.0614878051 -0.0364950001 0.00200000009 0.0691088289 0.0389049985 0.0219999999 0.0798000023 -0.000995000009 0.0219999999 0.0399000011 0.0681138262 0.0219999999 4.88634075e-18 0.0788049996 0.0219999999 -0.0399000011 0.0681138262 0.0219999999 -0.0691088289 0.0389049985 0.0219999999 -0.0798000023 -0.000995000009 0.0219999999 -0.0691088289 -0.0408950001 0.0219999999 -0.0399000011 -0.0701038241 0.0219999999 -1.46590218e-17 -0.0807949975 0.0219999999 0.0399000011 -0.0701038241 0.0219999999 0.0691088289 -0.0408950001 0.0219999999 0.0691088289 0.0389049985 0.0590000004 0.0798000023 -0.000995000009 0.0590000004 0.0399000011 0.0681138262 0.0590000004 4.88634075e-18 0.0788049996 0.0590000004 -0.0399000011 0.0681138262 0.0590000004 -0.0691088289 0.0389049985 0.0590000004 -0.0798000023 -0.000995000009 0.0590000004 -0.0691088289 -0.0408950001 0.0590000004 -0.0399000011 -0.0701038241 0.0590000004 -1.46590218e-17 -0.0807949975 0.0590000004 0.0399000011 -0.0701038241 0.0590000004 0.0691088289 -0.0408950001 0.0590000004 0.058889728 0.0330049992 0.0815000013 0.0680000037 -0.000995000009 0.0815000013 0.0340000018 0.0578947291 0.0815000013 4.16379932e-18 0.067005001 0.0815000013 -0.0340000018 0.0578947291 0.0815000013 -0.058889728 0.0330049992 0.0815000013 -0.0680000037 -0.000995000009 0.0815000013 -0.058889728 -0.0349950008 0.0815000013 -0.0340000018 -0.059884727 0.0815000013 -1.24913975e-17 -0.0689949989 0.0815000013 0.0340000018 -0.059884727 0.0815000013 0.058889728 -0.0349950008 0.0815000013 0.0502294749 0.0280050002 0.0815000013 0.0579999983 -0.000995000009 0.0815000013 0.0289999992 0.0492344722 0.0815000013 3.55147556e-18 0.0570049994 0.0815000013 -0.0289999992 0.0492344722 0.0815000013 -0.0502294749 0.0280050002 0.0815000013 -0.0579999983 -0.000995000009 0.0815000013 -0.0502294749 -0.029995 0.0815000013 -0.0289999992 -0.0512244739 0.0815000013 -1.06544271e-17 -0.058995001 0.0815000013 0.0289999992 -0.0512244739 0.0815000013 0.0502294749 -0.029995 0.0815000013 0.0120000001 -0.000995000009 -0.0469949991 0.0103923045 -0.00699499995 -0.0469949991 0.00600000005 -0.0113873044 -0.0469949991 -2.20436416e-18 -0.012995 -0.0469949991 -0.00600000005 -0.0113873044 -0.0469949991 -0.0103923045 -0.00699499995 -0.0469949991 -0.0120000001 -0.000995000009 -0.0469949991 -0.0103923045 0.00500500016 -0.0469949991 -0.00600000005 0.00939730462 -0.0469949991 7.34788054e-19 0.0110050002 -0.0469949991 0.00600000005 0.00939730462 -0.0469949991 0.0103923045 0.00500500016 -0.0469949991 0.0103923045 0.00500500016 0.0850050002 0.0120000001 -0.000995000009 0.0850050002 0.00600000005 0.00939730462 0.0850050002 7.34788054e-19 0.0110050002 0.0850050002 -0.00600000005 0.00939730462 0.0850050002 -0.0103923045 0.00500500016 0.0850050002 -0.0120000001 -0.000995000009 0.0850050002 -0.0103923045 -0.00699499995 0.0850050002 -0.00600000005 -0.0113873044 0.0850050002 -2.20436416e-18 -0.012995 0.0850050002 0.00600000005 -0.0113873044 0.0850050002 0.0103923045 -0.00699499995 0.0850050002</float_array>
          <technique_common>
            <accessor source="#positions_array" count="96" stride="3">
              <param name="X" type="float" />
              <param name="Y" type="float" />
              <param name="Z" type="float" />
            </accessor>
          </technique_common>
        </source>
        <source id="normals">
          <float_array id="normals_array" count="330">0.172735736 0 -0.984968245 0.149593532 -0.0863678679 -0.984968245 0.0863678753 -0.149593607 -0.984968245 0 -0.17273587 -0.984968185 -0.0863678753 -0.149593607 -0.984968245 -0.149593532 -0.0863678679 -0.984968245 -0.172735736 0 -0.984968245 -0.149593532 0.0863678753 -0.984968245 -0.086367853 0.149593562 -0.984968245 0 0.172735825 -0.984968245 0.086367853 0.149593562 -0.984968245 0.149593532 0.0863678753 -0.984968245 0.25468576 0.1470429 -0.955779016 0.29408583 0 -0.955779016 0.147042915 0.254685879 -0.955779016 0 0.29408595 -0.955778956 -0.147042915 0.254685879 -0.955779016 -0.25468576 0.1470429 -0.955779016 -0.29408583 0 -0.955779016 -0.254685819 -0.147042915 -0.955779016 -0.14704293 -0.254685909 -0.955779016 0 -0.294086039 -0.955778956 0.14704293 -0.254685909 -0.955779016 0.254685819 -0.147042915 -0.955779016 0.915314972 9.15888254e-09 -0.402738601 0.792686045 0.457657486 -0.402738661 0.848659098 0.489973575 -0.199257806 0.979947031 0 -0.199257806 0.457657456 0.792686105 -0.40273869 0.489973515 0.848659098 -0.199257836 0 0.915314972 -0.40273878 0 0.979947031 -0.19925788 -0.457657456 0.792686045 -0.402738661 -0.489973575 0.848659098 -0.199257836 -0.792686105 0.457657486 -0.402738661 -0.848659098 0.489973515 -0.199257806 -0.915314972 9.15888254e-09 -0.402738601 -0.979947031 5.17654453e-09 -0.199257806 -0.792686105 -0.457657516 -0.402738571 -0.848659098 -0.489973575 -0.199257776 -0.457657427 -0.792686105 -0.402738631 -0.489973515 -0.848659098 -0.199257791 0 -0.915314972 -0.40273878 0 -0.979947031 -0.19925788 0.457657427 -0.792686105 -0.402738631 0.489973485 -0.848659098 -0.199257791 0.792686105 -0.457657516 -0.402738571 0.848659039 -0.489973515 -0.199257776 0.842707753 0.486537516 0.230488539 0.973075032 1.04806794e-08 0.230488539 0.486537576 0.842707753 0.230488554 1.57210174e-08 0.973074973 0.230488569 -0.486537576 0.842707753 0.230488554 -0.842707753 0.486537516 0.230488539 -0.973075032 0 0.230488539 -0.842707753 -0.486537516 0.230488479 -0.486537576 -0.842707753 0.230488434 -1.57210174e-08 -0.973075032 0.230488449 0.486537516 -0.842707753 0.230488434 0.842707753 -0.486537576 0.230488494 0.766952455 0.442800134 0.464448184 0.885600269 1.81107254e-08 0.464448094 0.442800164 0.766952336 0.464448214 2.71660916e-08 0.885600328 0.464448243 -0.442800164 0.766952336 0.464448214 -0.766952395 0.442800134 0.464448214 -0.885600328 0 0.464448214 -0.766952395 -0.442800164 0.464448094 -0.442800194 -0.766952395 0.464447945 -3.62214543e-08 -0.885600388 0.464448005 0.442800164 -0.766952395 0.464447945 0.766952395 -0.442800164 0.464448094 -4.34259359e-14 0 1 3.69572376e-07 0 1 2.01165903e-07 0 1 -1.44191699e-08 0 1 0 0 1 -1.44191512e-08 0 1 9.23930585e-08 0 1 3.94770936e-08 0 1 9.23930514e-08 0 1 3.947709e-08 0 1 -3.69572376e-07 0 1 -2.30004218e-07 0 1 4.34259359e-14 0 1 -1.44191326e-08 0 1 7.39144809e-07 0 1 4.16751021e-07 0 1 4.61965641e-07 0 1 2.5506219e-07 0 1 9.23931296e-08 0 1 3.94771398e-08 0 1 -1.84786259e-07 0 1 -1.22211674e-07 0 1 -5.54358621e-07 0 1 -3.37796763e-07 0 1 6.73699745e-08 0 -0.99999994 1 0 0 0.866025388 0.50000006 0 0.50000006 0.866025388 0 0 1 0 -0.50000006 0.866025388 0 -0.866025388 0.50000006 0 -1 0 0 -0.866025388 -0.50000006 0 -0.50000006 -0.866025388 0 0 -1 0 0.50000006 -0.866025388 0 0.866025388 -0.50000006 0 -6.73699816e-08 0 1</float_array>
          <technique_common>
            <accessor source="#normals_array" count="110" stride="3">
              <param name="X" type="float" />
              <param name="Y" type="float" />
              <param name="Z" type="float" />
            </accessor>
          </technique_common>
        </source>
        <vertices id="vertices">
          <input semantic="POSITION" source="#positions" />
        </vertices>
        <triangles material="scout_383b3b" count="72">
          <input semantic="VERTEX" source="#vertices" offset="0" />
          <input semantic="NORMAL" source="#normals" offset="1" />
          <input semantic="TEXCOORD" source="#atlas_uv" offset="2" set="0" />
          <p>13 24 102 12 25 103 24 26 104 13 24 105 24 26 106 25 27 107 12 25 108 14 28 109 26 29 110 12 25 111 26 29 112 24 26 113 14 28 114 15 30 115 27 31 116 14 28 117 27 31 118 26 29 119 15 30 120 16 32 121 28 33 122 15 30 123 28 33 124 27 31 125 16 32 126 17 34 127 29 35 128 16 32 129 29 35 130 28 33 131 17 34 132 18 36 133 30 37 134 17 34 135 30 37 136 29 35 137 18 36 138 19 38 139 31 39 140 18 36 141 31 39 142 30 37 143 19 38 144 20 40 145 32 41 146 19 38 147 32 41 148 31 39 149 20 40 150 21 42 151 33 43 152 20 40 153 33 43 154 32 41 155 21 42 156 22 44 157 34 45 158 21 42 159 34 45 160 33 43 161 22 44 162 23 46 163 35 47 164 22 44 165 35 47 166 34 45 167 23 46 168 13 24 169 25 27 170 23 46 171 25 27 172 35 47 173 25 27 174 24 26 175 36 48 176 25 27 177 36 48 178 37 49 179 24 26 180 26 29 181 38 50 182 24 26 183 38 50 184 36 48 185 26 29 186 27 31 187 39 51 188 26 29 189 39 51 190 38 50 191 27 31 192 28 33 193 40 52 194 27 31 195 40 52 196 39 51 197 28 33 198 29 35 199 41 53 200 28 33 201 41 53 202 40 52 203 29 35 204 30 37 205 42 54 206 29 35 207 42 54 208 41 53 209 30 37 210 31 39 211 43 55 212 30 37 213 43 55 214 42 54 215 31 39 216 32 41 217 44 56 218 31 39 219 44 56 220 43 55 221 32 41 222 33 43 223 45 57 224 32 41 225 45 57 226 44 56 227 33 43 228 34 45 229 46 58 230 33 43 231 46 58 232 45 57 233 34 45 234 35 47 235 47 59 236 34 45 237 47 59 238 46 58 239 35 47 240 25 27 241 37 49 242 35 47 243 37 49 244 47 59 245 37 49 246 36 48 247 48 60 248 37 49 249 48 60 250 49 61 251 36 48 252 38 50 253 50 62 254 36 48 255 50 62 256 48 60 257 38 50 258 39 51 259 51 63 260 38 50 261 51 63 262 50 62 263 39 51 264 40 52 265 52 64 266 39 51 267 52 64 268 51 63 269 40 52 270 41 53 271 53 65 272 40 52 273 53 65 274 52 64 275 41 53 276 42 54 277 54 66 278 41 53 279 54 66 280 53 65 281 42 54 282 43 55 283 55 67 284 42 54 285 55 67 286 54 66 287 43 55 288 44 56 289 56 68 290 43 55 291 56 68 292 55 67 293 44 56 294 45 57 295 57 69 296 44 56 297 57 69 298 56 68 299 45 57 300 46 58 301 58 70 302 45 57 303 58 70 304 57 69 305 46 58 306 47 59 307 59 71 308 46 58 309 59 71 310 58 70 311 47 59 312 37 49 313 49 61 314 47 59 315 49 61 316 59 71 317</p>
        </triangles>
        <triangles material="scout_b01424" count="24">
          <input semantic="VERTEX" source="#vertices" offset="0" />
          <input semantic="NORMAL" source="#normals" offset="1" />
          <input semantic="TEXCOORD" source="#atlas_uv" offset="2" set="0" />
          <p>0 0 30 11 11 31 12 12 32 0 0 33 12 12 34 13 13 35 11 11 36 10 10 37 14 14 38 11 11 39 14 14 40 12 12 41 10 10 42 9 9 43 15 15 44 10 10 45 15 15 46 14 14 47 9 9 48 8 8 49 16 16 50 9 9 51 16 16 52 15 15 53 8 8 54 7 7 55 17 17 56 8 8 57 17 17 58 16 16 59 7 7 60 6 6 61 18 18 62 7 7 63 18 18 64 17 17 65 6 6 66 5 5 67 19 19 68 6 6 69 19 19 70 18 18 71 5 5 72 4 4 73 20 20 74 5 5 75 20 20 76 19 19 77 4 4 78 3 3 79 21 21 80 4 4 81 21 21 82 20 20 83 3 3 84 2 2 85 22 22 86 3 3 87 22 22 88 21 21 89 2 2 90 1 1 91 23 23 92 2 2 93 23 23 94 22 22 95 1 1 96 0 0 97 13 13 98 1 1 99 13 13 100 23 23 101</p>
        </triangles>
        <triangles material="scout_b8bab5" count="88">
          <input semantic="VERTEX" source="#vertices" offset="0" />
          <input semantic="NORMAL" source="#normals" offset="1" />
          <input semantic="TEXCOORD" source="#atlas_uv" offset="2" set="0" />
          <p>0 0 0 1 1 1 2 2 2 2 2 3 3 3 4 4 4 5 4 4 6 5 5 7 6 6 8 6 6 9 7 7 10 8 8 11 8 8 12 9 9 13 10 10 14 10 10 15 11 11 16 0 0 17 0 0 18 2 2 19 4 4 20 4 4 21 6 6 22 8 8 23 8 8 24 10 10 25 0 0 26 4 4 27 8 8 28 0 0 29 49 72 318 48 73 319 60 74 320 49 72 321 60 74 322 61 75 323 48 73 324 50 76 325 62 77 326 48 73 327 62 77 328 60 74 329 50 76 330 51 78 331 63 79 332 50 76 333 63 79 334 62 77 335 51 78 336 52 80 337 64 81 338 51 78 339 64 81 340 63 79 341 52 80 342 53 82 343 65 83 344 52 80 345 65 83 346 64 81 347 53 82 348 54 84 349 66 85 350 53 82 351 66 85 352 65 83 353 54 84 354 55 86 355 67 87 356 54 84 357 67 87 358 66 85 359 55 86 360 56 88 361 68 89 362 55 86 363 68 89 364 67 87 365 56 88 366 57 90 367 69 91 368 56 88 369 69 91 370 68 89 371 57 90 372 58 92 373 70 93 374 57 90 375 70 93 376 69 91 377 58 92 378 59 94 379 71 95 380 58 92 381 71 95 382 70 93 383 59 94 384 49 72 385 61 75 386 59 94 387 61 75 388 71 95 389 71 95 390 61 75 391 60 74 392 60 74 393 62 77 394 63 79 395 63 79 396 64 81 397 65 83 398 65 83 399 66 85 400 67 87 401 67 87 402 68 89 403 69 91 404 69 91 405 70 93 406 71 95 407 71 95 408 60 74 409 63 79 410 63 79 411 65 83 412 67 87 413 67 87 414 69 91 415 71 95 416 63 79 417 67 87 418 71 95 419 72 96 420 73 96 421 74 96 422 74 96 423 75 96 424 76 96 425 76 96 426 77 96 427 78 96 428 78 96 429 79 96 430 80 96 431 80 96 432 81 96 433 82 96 434 82 96 435 83 96 436 72 96 437 72 96 438 74 96 439 76 96 440 76 96 441 78 96 442 80 96 443 80 96 444 82 96 445 72 96 446 76 96 447 80 96 448 72 96 449 72 97 450 83 98 451 84 98 452 72 97 453 84 98 454 85 97 455 83 98 456 82 99 457 86 99 458 83 98 459 86 99 460 84 98 461 82 99 462 81 100 463 87 100 464 82 99 465 87 100 466 86 99 467 81 100 468 80 101 469 88 101 470 81 100 471 88 101 472 87 100 473 80 101 474 79 102 475 89 102 476 80 101 477 89 102 478 88 101 479 79 102 480 78 103 481 90 103 482 79 102 483 90 103 484 89 102 485 78 103 486 77 104 487 91 104 488 78 103 489 91 104 490 90 103 491 77 104 492 76 105 493 92 105 494 77 104 495 92 105 496 91 104 497 76 105 498 75 106 499 93 106 500 76 105 501 93 106 502 92 105 503 75 106 504 74 107 505 94 107 506 75 106 507 94 107 508 93 106 509 74 107 510 73 108 511 95 108 512 74 107 513 95 108 514 94 107 515 73 108 516 72 97 517 85 97 518 73 108 519 85 97 520 95 108 521 95 109 522 85 109 523 84 109 524 84 109 525 86 109 526 87 109 527 87 109 528 88 109 529 89 109 530 89 109 531 90 109 532 91 109 533 91 109 534 92 109 535 93 109 536 93 109 537 94 109 538 95 109 539 95 109 540 84 109 541 87 109 542 87 109 543 89 109 544 91 109 545 91 109 546 93 109 547 95 109 548 87 109 549 91 109 550 95 109 551</p>
        </triangles>
      </mesh>
    </geometry>
  </library_geometries>
  <library_visual_scenes>
    <visual_scene id="scene">
      <node id="wheel">
        <instance_geometry url="#geometry">
          <bind_material>
            <technique_common>
              <instance_material symbol="scout_383b3b" target="#scout_383b3b">
                <bind_vertex_input semantic="UVMap" input_semantic="TEXCOORD" input_set="0" />
              </instance_material>
              <instance_material symbol="scout_b01424" target="#scout_b01424">
                <bind_vertex_input semantic="UVMap" input_semantic="TEXCOORD" input_set="0" />
              </instance_material>
              <instance_material symbol="scout_b8bab5" target="#scout_b8bab5">
                <bind_vertex_input semantic="UVMap" input_semantic="TEXCOORD" input_set="0" />
              </instance_material>
            </technique_common>
          </bind_material>
        </instance_geometry>
      </node>
    </visual_scene>
  </library_visual_scenes>
  <scene>
    <instance_visual_scene url="#scene" />
  </scene>
</COLLADA>